<mxfile host="65bd71144e">
    <diagram id="hP5xyTqTdnX8N92_msat" name="Page-1">
        <mxGraphModel dx="1538" dy="734" grid="0" gridSize="10" guides="1" tooltips="1" connect="1" arrows="1" fold="1" page="0" pageScale="1" pageWidth="850" pageHeight="1100" math="0" shadow="0">
            <root>
                <mxCell id="0"/>
                <mxCell id="1" parent="0"/>
                <mxCell id="2" value="" style="shape=image;verticalLabelPosition=bottom;labelBackgroundColor=default;verticalAlign=top;aspect=fixed;imageAspect=0;image=data:image/png,iVBORw0KGgoAAAANSUhEUgAABLQAAAGsCAIAAABLhGmlAAAAAXNSR0IArs4c6QAAIABJREFUeAHs3QlYE2fiP/D57z4N6tbdbdWWVm1rW1vb7W7VtlZt99C2v7b21GpVPEBFoYIH4kW9bwU8QMULb0GtiAcCinhwiweoKHhyHwIJIYTcM+/8nxCNMQkQQkIm4ZuHpzuZeeed9/28wc2Xdw6KxQsCEIAABCAAAQhAAAIQgAAEWr0A1eoFAAABCEAAAhCAAAQgAAEIQAACLMIhPgQQgAAEIAABCEAAAhCAAAQggHCIzwAEIAABCEAAAhCAAAQgAAEIsAiH+BBAAAIQgAAEIAABCEAAAhCAAMIhPgMQgAAEIAABCEAAAhCAAAQgwCIc4kMAAQhAAAIQgAAEIAABCEAAAgiH+AxAAAIQgAAEIAABCEAAAhCAgFoAdyvF5wACEIAABCAAAQhAAAIQgAAEEA7xGYAABCAAAQhAAAIQgAAEIAABzBziMwABCEAAAhCAAAQgAAEIQAACOK0UnwEIQAACEIAABCAAAQhAAAIQUAvgmkN8DiAAAQhAAAIQgAAEIAABCEAA4RCfAQhAAAIQgAAEIAABCEAAAhDAzCE+AxCAAAQgAAEIQAACEIAABCCA00rxGYAABCAAAQhAAAIQgAAEIAABtQCuOcTnAAIQgAAEIAABCEAAAhCAAAQQDvEZgAAEIAABCEAAAhCAAAQgAAHMHOIzAAEIQAACEIAABCAAAQhAAAI4rRSfAQhAAAIQgAAErChAWFKrqCkS5WaWXsqtuiOSCxnCWPF4qBoCEIAABJohgGsOm4GHXSEAAQhAAAIQqF9AppLuuLJ6zpmxU6KGeEUN9o4aPDPWJTB5brVMoLcTYdlaJS2QKqvlKgVN9LbiLQQgAAEItIwAwmHLOOMoEIAABCAAgdYlUCWtDEia7V2XCfX+O/eM6z3+rai7lUsScn+NuNln5+XXg5I7BSZ0rPt5dX3SeyGp/3cgY0rsnR0ZJbcqxDSDuNi6PjzoLQQgYCsBhENbyeO4EIAABCAAAUcW2HxpiV4m1H275Nxkr9gsTRp8Izi5/+4rPUJSNW8N/ztg37Wou5VCmcqRvTjQt9ra2pycnNLSMg60BU2AAARsI4BwaBt3HBUCEIAABCDgwAKVtaVTT/2imwYNl4Mv7Xg9KLlzUFKuUMoQUilRvLc1zTAZata8tDbhg62Xtl0rZghmEa3ywWEY5qeffm7Xrt3rr79eXFxilWOgUghAgPMCCIecHyI0EAIQgAAEIGBvAnszNhimQb01fnGe/9iS9O3BTG3nfOPudQy4OOPsvW0Zxd+EZxgNit+EZSQVCJEQtWiWWlAqlf/61794PN7zzz+fnZ1tqWpRDwQgYF8CCIf2NV5oLQQgAAEIQIDrAoSQeXHj9aKg4Vu/uHGf7E58fWNyrlDKsmylRNE7NP3/wjM0wY8h5L0tz0wkdglK+ufWSx/tSOu3Kz3uIR8TiBb/HISGhvbs2dPFZZRMJrN45agQAhCwCwGEQ7sYJjQSAhCAAAQgYE8C889OMEyDemv8zoz7ZFdix8CE14OS+u+9+tbGlI6BCTPj72n6SVi2364rmsnDj3am78rM2X/9wOJzM31jx/nEjP09zuvA9U0PBNmERUi05AdDoVAQTMtaUhR1QcDOBBAO7WzA0FwIQAACEIAA9wXCrm/Ui4KGb/3ifvvHliS9c0df3ZB0Lq+KL1Wuu1Tw8tqE/+67sirp2JrEudNODTWswTtq8KJ4j5M5+2sVNdw3QQshAAEIcF8A4ZD7Y4QWQgACEIAABOxMQCAtnxY9zGic067cnL7ntaBkvXCofhuQ0DHgYsfAhPFRl7ZdDvA6+bN2l/oWfo8b/1CQTQhjZ0xoLgQgAAGOCSAccmxA0BwIQAACEICA/QsoGbIuZWl9Wc47avCyC97u0beMJMMnTztcdyl3QbxHAzXobZp6asiV4gQz5AghKpWKYcwPloSQ/Pz8tLS0q1ev1dQ0aw6TpumcnJxTp05FRUXl5OQolUozeoRdIAABCJgtgHBoNh12hAAEIAABCEDAiECtkh6w79qEqMvrUxboRTjN29/jxi248PiR90bz4djjaYvONSEZaqr1iRl+rSTZSINYNisra8CAAYMHDxaJRCzLyuXyHTt2fPfdd927d3/xxReff/75v/3t72+99dZ33323c+dOEy+6E4lES5cu69//sw4dOjg5OfHqXu3atevRo4erq1tm5tO7sBptku7K8vJyPz+/vn37/v3vf9fUo/nvCy+82LdvXz8/v8LCQt3ypiwLhcLvv/9+wIABx4+fMKU8y7Lh4eEDBgwYOnSoSoVHSppohmIQcDQBhENHG1H0BwIQgAAEIGBbgT03SjutVd9pZuSxa2uS1s8/O3FK1BCvKPXZoXPPjF2VuGRxwnVNAaPJ8JNd6aFXG79k0WjsnBc3QaaUGHY/NTWVx+O9+uqrAoHg4cOH//3vfzXp68UXX+zevfu77777yiuvaAPep59+eu/e4/viGFbFsixN0ydOnHj5ZWcej+fk5OTs/Erv3r0///zzfv36de/evV27djwer02btosXL2n0tp+1tbWbN29u1+4vmqo6d+7cp0+fgQMHfvHFF3369OncubOmnZ06vRQSEiKXy422x+jKoKAgHo/3+uuvm76Xv7+/ZhfMWBolxUoItAYBhMPWMMroIwQgAAEIQKCFBPgSZef1T28z8/LahF+P3jh8+/6ZB1dP3s2Zeibn5bUNzRl2DEwISD3jfXKw0exnysqQS0sMu6oNh+Xl5e+//z6Px2vf/q979+5VKBR03UulUt2+fbtv336aMNaxY6eSknofBL948RJNknzppZcOHjyoVCoZhiGEMAxD03R2dnbv3h9p6unXr1/D2ezbb7/VlOzWrVtsbKzmBFdS92IYRqVSxcXFde3aVVPmv//9X8O1aTsuEAjatlVn1Pnz52tXNrqAcNgoEQpAwOEFEA4dfojRQQhAAAIQgEDLCfx+/oHR+UATV3YJSl6TuNCUENhAmdIa/ZMwNeHQ2fmVb775hsfjjR49RiAQGKIolco9e/Zogt8333xjWIAQEhi49vnnn2/Xrt3ChYv4fL5hGc3U4v79+1944QUnJ6fx4ycYPU+1pqbmiy++4PF4L7zwws6dO8VisdGqWJaVSCQbN25s06Ytj8f7+eefaZqur6R2fUhICI/Ha9u23YMHD7UrG11AOGyUCAUg4PACCIcOP8ToIAQgAAEIQKCFBBQ0869tl7Q5sMuGpEWJuTEPKkefaOjeM9ryHQMTlibdnxk7qoHgZ8qmxLwYvQ5rwmGbNm3atm37888/G01r2l02bdrctm3bNm3aJCUlaVdqFu7cufPiiy+2bdt2yZIljd7D5vDhP9q0acPj8Q4ePKhXD8uyS5cuc3Jy6tChwx9/HDHcargmJib2r3/9G4/HmzHDt+FDKxSKDz/sqSlpWE8DaxAOG8DBJgi0EgGEw1Yy0OgmBCAAAQhAwOoCe66X6Ca90cduaQ4pVtKap1PobjW6fD43RXN1oikhsL4ymwzOLNWEw7pLAdvcvXu3YQiGYT7++BMej9enz6d6MXLQoEE8Hs/V1bXhGrRbfXx8NPVo12gWrl69qjlTNDR0p96mBt4GBwdrZhrLy8sbKLZz504ej/f3v/89Nze3gWKGmxAODU2wBgKtTQDhsLWNOPoLAQhAAAIQsIqAkiEfh6brRr6xJx6HQ4mSfqmxSw07Bia8uSllb8bm+iKf6evnnBmr10NtOHR3d9fbZPTtkiVLeTxex44ddc8+vXr1qlPd6/bt20b3MlxZWVn5yiuvtGnT5vz587pbXV3deDzeBx98IJEYuX2ObkndZULIl19+xePxhg4dprted1mhUPTq1ZvH4w0aNMiUE1B190U41NXAMgRapwDCYescd/QaAhCAAAQgYGGBgmpZlw1Pb0XTMTChW3Dy4ezyq2U18y6adCHiB1vT1ibPMz0E1l/yFxXzzBMCNeGwbdu2ly5dMqXbaWlpPB7vb3/7W15enrb8qlWreDze999/r13T6ALDMJoLC4cOHaqdhKRpukuXLm3btk1JSWm0Br0CYWFhdVOOTvU93CI1NbVdu3Z/+9vfGp0g1auZZVmEQ0MTrIFAaxNAOGxtI47+QgACEIAABKwicKm4+qW6J1joTh52DEx4eV1ipyePttfbpPf2n9su+Sf9Xn/kM/0WpkMUtEK3k5pw2KFDh6KiIt319S2Xl5c7OTm1b99eN2L98ssvPB7v2LFj9e1ldP2KFSt5PN4777yjfaxFYmIij8fr1q2bdo3RHY2uFIlEmtuQnjp1yrAATdPvvtuDx+P98ssvhlsbXYNw2CgRCkDA4QUQDh1+iNFBCEAAAhCAQEsIhFwp0gt7HQMTvGPvZJTV7L5Raso1h29vTg29ur754XBm7Ci9DmvCobOzc0VFhd4mo2+FQqGTU5v27dvfuXNHW+DDD3u2adPm2LFj15vyWrNG/fDALl26VFVVaapauHARj8fr379/U0/71Oz+n//8h8fjBQcHaxumXYiPj9dcyhgTE6tdafoCwqHpVigJAUcVQDh01JFFvyAAAQhAAAItKuAVe0cvHPbaka49l9L15G29rYZvX16XGHsvvvk3pFmf8rtezzXh8NVXX9W9hlCvjO5bo+FQ+7xBTQBr0n+dnV/R5tJRo0ZrrgnUPaLpy+7u7jwe7/ff9fvIsuyvv/7K4/H+/e9/N3w70/qOhXBYnwzWQ6D1CCActp6xRk8hAAEIQAACVhQYFJ6hl/c+Cb3MEMKyLGFZT4PoqFdY8zbkau706F+bOXl45n6EXj8tEg5feeVVJyenzp07v9b0V69evbS5dPjw4Twe78cff9RrpIlvp02bxuPxfH1n6pXPzLzO4zm1adPmwoULeptMfItwaCIUikHAgQUQDh14cNE1CEAAAhCAQMsJfLrzsl7e67Q2weXErRy+ZPPV4pfWJeptNfq2++bU1YlzmhkOC4T39bptkXDYrVu3559//sGDB0qzXtomeXp68ni8L774Qjutqt1kyoJmenD58hW6hQkhQ4aoL4ns2vW12tpa3U16ywqFQql85m492gIIh1oKLECg1QogHLbaoUfHIQABCEAAApYU+Ne2S0bzXoeAix0DEoxuMrIy4OKa5KPNCYdrEmfRhNbrmEXC4aef9nVycjLjFqN6jQkNDeXxeB9++GF9IU2vvO5bmqbffPNNHo+3b98+3fUCgaBTp5ecnJwOHjyku15vmc/n//Wvf+vcuYvRe+EgHOpx4S0EWqEAwmErHHR0GQIQgAAEIGB5AcOZQ0326xGSOvf8g18js5xNmzz88fD1QHMfaOEb6yJVGnlyoEXC4dixY3k83pw5c5ppV1FR0a5duw4dOmhvUWN6hTdu3NBc66j7TA5CiJvbOB6P17Nnz4ar4vP5Tk5OHTp0lEqlhiURDg1NsAYCrU0A4bC1jTj6CwEIQAACELCKwA+HrhvOBL4UmJD5qIZlWYYQU+5Jo6nB+3Sqd9SQps4fep38ecuVQ3KaMeyeRcLh5s0hPB7vxRc7iMViw0M0aU2/fv15PN68efObtBfLsnPmzOHxeB07dtKd+rt//36bNm14PN7q1WsarhDhsGEfbIUABBAO8RmAAAQgAAEIQMACAt7GbjnzcmBCSY1cU/vSpFzD9Gh0TdcNSYFpqX5x45uSD3/edGnXt+EZmlvg6PXHIuEwNzf3L3/5C4/HCw0N1au/qW/XrVvP4/H+8pe/ZGdnm75vUVFRly5dnJycwsLCdPdatmw5j8fr3Lmz9p43ult1lxEOdTWwDAEIGAogHBqaYA0EIAABCEAAAk0W2Hat2GjSC7lWzJcq86tln4Tq37HGaPnHKwMu+qdeXhjvZUo+9I0dtS8zsk9o+seh6eq7oxq8LBIOWZb19Z3p5OT0xhtvlJWVGRzE+IqKiorKykq9bVKptEeP93g83rfffmviPGRNTc3HH3/M4/F69eqlO20oFAo7derE4/HWrl2rdxTDtwiHhiZYAwEI6AogHOpqYBkCEIAABCAAATMF0ktEL601cuOZl9Ymdt+U8kZwckNRMND4jt8dTD99L6qBh1t4nfxpS/rKZUnXX9uQ1DEw4fuD14223lLhsLKysnPnzpqE1vBNQTXNKC8vf//992/cuGHYqqtXr2rmIb/++utGb1taU1MzYMAAJyen9u3b69W2YMFCHo/Xtm3b/Px8w6PorUE41APBWwhAQE8A4VAPBG8hAAEIQAACEDBHoLhG3jWo3gTYZUNS+K2ypELh5Jg7TUqJXYOSxh6/tDTh6I4rG9cmz118znNB/MRVCdO3pq9el3pgcuyFfrueTkguvPDQaNMtFQ5Zlk1NTX311Vd5PN57770XEXG0vsfNFxcXL168pFOnl3g8nl6c07SQEBIREaGZ9PvnP/956NBhozcvValUhw4d7tmzl+Y01IgI/Uc4vv/++zwez9PTs9GEybIswqHRjwdWQgACWgGEQy0FFiAAAQhAAAIQMF9AxZC+O6/UF/x84+9pqq6SKd/ZnFpfsQbWdwpM6LP7ytCjN0cey/oqPPO14OSOARd1y3cKTMgoExntgAXDIcuy8fHnunXrprlraO/eH+3cufPKlSu3615Xr149dOjQiJEj27dvz+Pxnn/++alTp6pUKqOtYlk2Njb2rbfe0lT17rvv+vv7JyYmXq97JSUlrVq16t1339Vs7d69e3Jyil49+/bt12x988233nnn3UZ/3n67O4/Hw91K9RjxFgIQ0AogHGopsAABCEAAAhCAQLMEjtwu101russznoRDgbnh8HFtAQkd/J/JhNqj/G/vVaMXHGqm+3g83quvvtroLVs0/RcKhU5Obdq3b3/nzh2jInw+38VllJOTkyabtW3b9vm6V9u2bTVreDzeBx/889atW/VNLWqrra6u9vX11ZxiyuPxnJyc2tW9tJXzeE5z5swxvDRRJBK9+GIH7eFMX0A41OJjAQIQ0BNAONQDwVsIQAACEIAABMwUoAnba3u6Nq3pLry6PinkatHpB/zhkVkdAxNeWpv4331XJ526NfX09ckxN385cqPbxnpPSdXU02ltwtpLBTUKVUmN/D/7rupWrlnefb2kvnYLBIITJ07ExsYqFIr6yuiuVyqVJ0+ejIqKMoxkusVu374dEhIyevToPn0+7d69+7vvvtunz6fDhw9fvXp1YmKi7m1jdPcyulxQUBAWFubt7f3ll1/27v1Rr169v/rqqylTpoSHhxcVFRndRSQSnTx58kRTXmFhYXjOoVFMrIQABDQCCIf4JEAAAhCAAAQgYDGBxRcfGsa2p2sCLnbfnDLuZNL+60fXJc+dHj3c6+TPU6KGLIyfFHZ927KkC//dk/7S2sSn5XVuVPN6cHLRk6di7LtRqlema1BSmdik4GexrtphRbjm0A4HDU2GQIsKIBy2KDcOBgEIQAACEHBsAZFc9Xr9t6X59mBGxK2waaeGGX1AxZSoIfPPeqxMvqF3MaEmBzqvS7xe/vjp8xNOZeuFwwNZjxwb1iK9Qzi0CCMqgYADCyAcOvDgomsQgAAEIAABGwgcuvWok7FnWnjG3FiTuMhoLNRd+Xvc+DXJMbrZr3NQ0g+Hrr+2MblHSKpX7J0xx2+/su6Z2cX/7L2qoBkbdNXeDtlwOFyxYgWPx+vWrVsDd9Cxtx6jvRCAQNMEEA6b5oXSEIAABCAAAQg0LCBT0d+EZ+qmu46BCf/de3lVwjzdENjA8pzTYzZdyXxlvToBvrIu8WaFesKwQqJ4L8TIbU7fCE5OL65uuEnYqhFoOBxOnTqNx+P985//MuWpGCCFAAQcUgDh0CGHFZ2CAAQgAAEI2Figp86daV4LTo67H9VAGjTcNDVq6PeH1Pe26R6SypDHdyH98Y8bepmzY2DCjox670NjYwLuHb6BcMgwzL///R8ejzdx4iTuNRwtggAEWkgA4bCFoHEYCEAAAhCAQKsSuFoqenvT44m+sSeS67vO0DAWateEZpzoGJjQeX1inlDKsmyNQvXhtku64bBTYML8Cw9wQqnpn6v6wiFN09u2bfvrX//arl27nJwc0ytESQhAwMEEEA4dbEDRHQhAAAIQgABXBC7mC98ITukYmLAhLUIb+UxfWJkw/YdD6tNT39+a5h175+PQZx6S0SkwYXLMHQVd36MNuYLAqXbohcPU1NSBA7/4+uuve/R4T/OYxHHjxnGqwWgMBCDQwgIIhy0MjsNBAAIQgAAEWpFASY38o53pO66sMT0Takt6nfxp0cVnAqF22rBTYILfuQetyNFCXa2qqnr11c7vvPOO5hmM8fHxTnWvNm3atG/fftq06QyD+/pYyBrVQMA+BRAO7XPc0GoIQAACEICAnQhUSpTLLnhrI1+TFhYnqM8s1fvpGpR0JLscZ5OaN/6k7qXZt7q6OjEx8fz585cvXy4uLkYyNI8Ue0HAkQQQDh1pNNEXCEAAAhCAABcF5p5xbVIm1BZedPGQbjLsFJjwyx83supuXsrFfqJNEIAABOxcAOHQzgcQzYcABCAAAQhwXmBhvIc27zVpYfHFo5pw+PLaxPe3pJ1+wOd8X9FACEAAAnYsgHBox4OHpkMAAhCAAATsQmBT2uImZUJNYa+TPy9JSHxpbaJLZNbFfKFYQdtFZ9FICEAAAvYrgHBov2OHlkMAAhCAAATsQ+D0vSNmhEO/uHFZFaJSsdw+OolWQgACELB/AYRD+x9D9AACEIAABCDAbYHC6gdmhMNTd8K53S20DgIQgICjCSAcOtqIoj8QgAAEIAABrgkwhNl9bW3T8uHJwXzJI651BO2BAAQg4NgCCIeOPb7oHQQgAAEIQIATAjKVdNE5TxPz4bToYVeKL3Ki3WgEBCAAgdYkgHDYmkYbfYUABCAAAQjYTuCRuMgvblyj+XDaqaHHs/fZrpk4MgQgAIHWK4Bw2HrHHj2HAAQgAAEItLCAQFqxJnFGw/kwozSFsEwLNwyHgwAEIAABlmURDvExgAAEIAABCECg5QRoRnW5OGFL+jKfmOGTT/7kdfLnup/BKy5MjcoJq5JWtlxTcCQIQAACEHhWAOHwWQ+8gwAEIAABCECgRQRoRlVY/eB2+bW7/JtihahFjomDQAACEIBAQwIIhw3pYBsEIAABCEAAAhCAAAQgAIFWIoBw2EoGGt2EAAQgAAEIQAACEIAABCDQkADCYUM62AYBCEAAAhCAAAQgAAEIQKCVCCActpKBRjchAAEIQAACEIAABCAAAQg0JIBw2JAOtkEAAhCAAAQgYChQVVWVk5OTkpISGxt77NixI3hBAAIQgICOQERExMmTJ+Pj469evZqfn69QKAz/IeXmGoRDbo4LWgUBCEAAAhDgikBpaemJEyeWLFny66+/fvjhh+3bt6fwggAEIACBpgi8+uqr//nPfzw8PDZv3pyWlsYwHH2aK8IhV/6vF+2AAAQgAAEIcEdAIpFERER4enr26NFD+/3n/fffHzx4sK+vb1BQ0OHDh+Pj4y9fvpyVlZWDFwQgAAEI6AhkZ2dfv349JSUlOjp69+7dK1asmDRp0oABA5ydnTX/oj733HMDBw5cvnz55cuXufMvP8uyCIecGg40BgIQgAAEIGBLAZVKdeDAgcGDB/+///f/KIp68cUXhwwZsm7dutTUVLlcbsuW4dgQgAAEHEKguLj4+PHjs2fP7tevnyYoduvWbcaMGWlpaVzoH8IhF0YBbYAABCAAAQjYWODatWteXl6aU0a7d+8+a9ashIQEG7cJh4cABCDg0AKVlZX79u0bOnTon//8Z4qiPvroo40bN0qlUht2GuHQhvg4NAQgAAEIQMD2ArGxsd999x1FUc8995y7u/uFCxds3ya0AAIQgEBrEhCLxdu3b//3v/9NUVT79u3nzJlTXFxsEwCEQ5uw46AQgAAEIAAB2wvExcV9+eWXFEW98cYb/v7+1dXVtm8TWgABCECgFQukpaW5urpqTjedOXNmZWVlC2MgHLYwOA4HAQhAAAIQsL3A7du3f/31V4qi3nrrrS1btti+QWgBBCAAAQg8Ebh7966HhwdFUc8//7y/v/+T1S3xvwiHLaGMY0AAAhCAAAS4I7BkyRLNd441a9Zwp1VoCQQgAAEI6ArcvHlT81e8Xr16nTlzRneT9ZYRDq1ni5ohAAEIQAAC3BJITk7+5JNPKIoaP358WVkZtxqH1kAAAhCAgIHAiRMn/vGPf1AUNX36dIONll+BcGh5U9QIAQhAAAIQ4KDA6tWrNeeRHj9+nIPNQ5MgAAEIQKA+gdmzZ1MU1bNnz9TU1PrKWGQ9wqFFGFEJBCAAAQhAgLsCNTU1w4YNoyjKzc1NIpFwt6FoGQQgAAEI1CNw+vTpt956i6KokJCQeopYYDXCoQUQUQUEIAABCECAswKZmZkffPABRVGbNm3ibCPRMAhAAAIQaFRAKBQOHTqUoqhp06Y1Wti8AgiH5rlhLwhAAAIQgIAdCMTExLRv375Lly7nz5+3g+aiiRCAAAQg0JjAvHnzKIr65ZdfaJpurGyTtyMcNpkMO0AAAhCAAATsQiA8PJyiqD59+uTm5tpFg9FICEAAAhAwRWDbtm0URf3vf/+rqqoypbzpZRAOTbdCSQhAAAIQgIDdCOzdu5eiqP/7v/+rra21m0ajoRCAAAQgYJpAREQERVGffvppZWWlaXuYVArh0CQmFIIABCAAAQjYkUBYWBhFUd9//70dtRlNhQAEIACBJglER0f/6U9/6tevn0gkatKODRRGOGwAB5sgAAEIQAAC9icQFRVFUdTXX39tf01HiyEAAQhAoCkCmn/wv/zyy6bs1FBZhMOGdLANAhCAAAQgYF8CV65cadeuXb9+/aRSqX21HK2FAAQgAAEzBA4ePEhRlIuLixn7Gu6CcGhogjUQgAAEIAABuxQQCAQ9evR44403CgoK7LIDaDQEIAABCDRdICgoiKIoPz+/pu+XwM7kAAAgAElEQVSqvwfCob4I3kMAAhCAAATsVOCnn36iKCopKclO249mQwACEICAeQI+Pj4URe3fv9+83bV7IRxqKbAAAQhAAAIQsGOBJUuWUBS1fft2O+4Dmg4BCEAAAuYKfP31123atLl9+7a5Faj3Qzhsjh72hQAEIAABCHBC4OzZsxRFeXp6cqI1aAQEIAABCLS4QH5+focOHQYMGNCcIyMcNkcP+0IAAhCAAAQ4IfDBBx/84x//YBiGE61BIyAAAQhAwBYC4eHhFEUtW7bM7IMjHJpNhx0hAAEIQAACnBCYPXs2RVFxcXGcaA0aAQEIQAACthMYP348RVGZmZnmNQHh0Dw37AUBCEAAAhDghMDly5cpipoyZQonWoNGQAACEICATQX4fH7Hjh0HDRpkXisQDs1zw14QgAAEIAABTgh8++23L7/8slgs5kRr0AgIQAACELC1wNatWymKCgsLM6MhCIdmoGEXCEAAAhCAACcEIiIiKIoKCQnhRGvQCAhAAAIQ4IZA//7933vvPTPagnBoBhp2gQAEIAABCHBC4JNPPunZsycnmoJGQAACEIAAZwROnTpFUdTGjRub2iKEw6aKoTwEIAABCECAEwKHDh0y+8QhTnQAjYAABCAAAasJfP311926dWtq9QiHTRVDeQhAAAIQgAAnBD777DNMG3JiJNAICEAAAtwTiI2NpShqx44dTWoawmGTuFAYAhCAAAQgwAmB+Ph4M/5fnxNNRyMgAAEIQKBFBD777LPevXs36VAIh03iQmEIQAACEIAAJwRGjhz58ssvc6IpaAQEIAABCHBSYM+ePU19Ci7CISdHEo2CAAQgAAEI1C/w6NEjiqLmzJlTfxFsgQAEIAABCLCdOnUaM2aM6RAIh6ZboSQEIAABCECAEwIbNmygKCorK4sTrUEjIAABCECAqwLTp0//85//bPqzcBEOuTqSaBcEIAABCECgHoHPP/+8X79+9WzEaghAAAIQgMBjgdTUVIqi9uzZY6IIwqGJUCgGAQhAAAIQ4IRAXl4eRVH+/v6caA0aAQEIQAAC3BZ45513Bg8ebGIbEQ5NhEIxCEAAAhCAACcEQkJCKIrKycnhRGvQCAhAAAIQ4LbAjBkzeDyeSqUypZkIh6YooQwEIAABCECAKwKDBw9+7733uNIatAMCEIAABLgtcObMGYqiYmNjTWkmwqEpSigDAQhAAAIQ4IrA3//+98mTJ3OlNWgHBCAAAQhwW4Cm6eeee87EG1wjHHJ7MNE6CEAAAhCAgI7AtWvXKIo6ePCgzjosQoCDAqTuxRC27ocwLEs42Eo0CQKtROB///vf559/bkpnEQ5NUUIZCEAAAhCAACcEtm7dSlFUXl4eJ1qDRkDAmICClj4QpicU7vojZ96em157s7yj7q++XHq0THyPIbSxPbAOAhCwrsDcuXOfe+45U46BcGiKEspAAAIQgAAEOCHg4eHh7OzMiaagERAwJlBe+2BLhuvWTDfNf7dmutX9uG7JdN2S4Rr9IJBRzyLiBQEItKjAH3/8QVFURkZGo0dFOGyUCAUgAAEIQAACXBHo37//V199xZXWoB0Q0BEghLn26ETo9UlPAqEmFj7z3y0ZruG3ZwllpTr7YRECELC6wJ07dyiK2r9/f6NHQjhslAgFIAABCEAAAlwR6NChw5QpU7jSGrQDAjoC9wWpDcRCnU2uoTcmiRV8nV2xCAEIWF3gueeemz9/fqOHQThslAgFIAABCEAAApwQEAgEFEVt2LCBE61BIyCgIyBRVu247q6TAJ+ZMDRcfzZvEyG4RY2OIBYhYGWBd99918XFpdGDIBw2SoQCEIAABCAAAU4I3Lhxg6KoyMhITrQGjYDAEwFCmPi8EMME2MCabZnjRPLyJxXgfyEAAasLfPXVV6bcsBTh0OojgQNAAAIQgAAELCKgeZBxWlqaRWpDJRCwlICCluy/NaOBKGh0U/SDADzfwlJDgHog0KjA2LFj33777UaLIRw2SoQCEIAABCAAAU4IhIeHUxR1//59TrQGjYDAE4FaRdW2zHFGE2ADK7dnTlAx8id14H8hAAHrCvj4+LzwwguNHgPhsFEiFIAABCAAAQhwQkDzkMOKigpOtAaNgMBjAVIsvhWSMbaBHFjPpnE1ikooQgACLSOwePHiP/3pT40eC+GwUSIUgAAEIAABCHBCYP369RRFicViTrQGjYDAYwGSW30lJGNMPQmwgTvTjKuWl0ERAhBoGYE1a9ZQFCWXNzJdj3DYMsOBo0AAAhCAAASaKxAQEEBRlEwma25F2B8ClhQg5ZKHW8yZOXSrVVZZsiGoCwIQqF9g7dq1FEXV1tbWX0S9BeGwYR9shQAEIAABCHBFwN/f35S/+3KluWhHqxGQKIVNeo6FZo4x9LonQ+hWg4SOQsDGAuvWrUM4tPEY4PAQgAAEIAABCwogHFoQE1VZUEDJyA9mz23SaaVbMlwvFR+yYBu4XhUhLGFZ9X+fLHC9xWifowkgHDraiKI/EIAABCDQygUQDlv5B4DD3SfpJX806czSnTc8lYyCwz2yUNMYwlSIVVeLFSezZbuvSbddloZelR++qUzMo3MFRIGJUws5oxoTBBAOTUBCEQhAAAIQgID9CCAc2s9YtbqWMoQOuz1za6arifOHaSWH62bQHBeKELqitnZeXM2wsJph4TVDDtT9hKn/O/hAzS9hNcMPisceUaYXsQxxXAX0jEMCCIccGgw0BQIQgAAEINB8AYTD5huiBusJVEhyt2eObzQcbsl0jXm4XkFLrdcSm9fM8CXSDSnqTPhLWCM/P++vnXNadbVYfbopXhCwpgDCoTV1UTcEIAABCECgxQUQDlucHAc0VYCm6dOnT9+6d23PzSlb6p8/3JY5Lur+GhXTyM30TT0qJ8sx5WKxx7FGMqFeaBwapryYy6oYTnYIjXIQAYRDBxlIdAMCEIAABCCgEUA4xCeBmwI0TYeEhAwfPvzKlStihSClOHxrpqteRAzJGLPzhsd9QRpNlNzshUVaRd+tFI890rRk+DgoHpAfvKG+aU0reDFEfS6tdq6UaN62go7btosIh7b1x9EhAAEIQAACFhZAOLQwqAnVEZalCZtXyyRVKE8UK44VKWJLFdeFKr6caL/amlCNgxeRyWS///77yJEj4+LiWPUtOYlEKbpeHn0hP/Rs3pb4vC2JhXtyhZfVccCh1cyZM9SdQhxyQHnhgQPnQ8KyfAUTW6JYcVMyNFHUI0rQJZL/2jHB+6eqRqWIAm5L4ssU1UqH/ojY9F8ChEOb8uPgEIAABCAAAUsLIBxaWrSh+tTPHWDZPbmyN47yu0TwXz8m6Fr389oxQddIQZcjlYMTRHdqaHyTZVlWoVD4+vpeuHBBLBbrmmqe2+DgN57Rdphmav1OmzVnqHNd4ohDTGG1tkpHWiCE3Z0r63ZUnQa7RAq6HDP4iRS8dkzw9jH+8WIF7tFjjaFHOLSGKuqEAAQgAAEI2EwA4bDF6GtUZOUtSc+YKuPfYp98r30tUjAiUZRSqWwdJwPWy19YWDh16lSFohU8mqJeA5a+XW7SHWh0pwqNLUv9E5+ecFn/4exrSzpf+dW56s5HDQLhk18l3azYNVIw+EJ1RpXKvvrI/dYiHHJ/jNBCCEAAAhCAQBMEEA6bgNWMokUSZtC56q7GvrbqfoV9vBwp6BzBD74rbbUBkRCyatWq06dPO/Ypo418oFSMeFITb0JjLBnW/BIm+nEf/VDQyOHsZzNh2cMF8i4RfCO/Ow3+ivU4KcCfXSw7zgiHlvVEbRCAAAQgAAEbCyActsAA3KxW/SuqqqlfZF8/LhiXVqNqlROIubm5I0aMePToUQuMDmcPocp6VPPz/uaeU/okLkqDUxzjykPCslsfyN48btKEoeEv3ZvHBadKFK3yt8oqn3SEQ6uwolIIQAACEICArQQQDq0tn19Lf35GaPgl1aQ1kfzltySt8Ivsvn37/P39W/W0IcvKD96oGapz6eCTmGdeXKz1iWaVtLU/7S1Q/xWBqsdJM5Oh+pcuUvBhdNUdkSNQtIB2o4dAOGyUCAUgAAEIQAAC9iSAcGjV0ZLTbBPOJjV2RlznCP6F8tZ13R3DMB4eHnr3obHqMHGxckIkaxLMy4FG9xKP+YNI7P6BH7Uq0t3cOUPdP8f0jxVK6Vb4VxfLf9IRDi1vihohAAEIQAACNhRAOLQqfmSR4nVjkU/3e2qjy31iqyrkrehR5mfOnFm1alUrnzZkCamdE2s05pm9kojlVv20W7tyQtjAbEmjvy+mFHj9mOB4kX1rWFvbxPoRDk2EQjEIQAACEICAfQggHFpvnGpV5P3mnP/2JFV2PSb4o0DeSqY5pFLphAkTkpKSrDcu9lEzQ2q9T5qdA43s+PN+plJiH32vp5U0YfuZfYb2k98mbXTsF1ulaEV/cqnHtNmrEQ6bTYgKIAABCEAAAlwSQDi03mgcK5Srn15o8K3UjDWfnRG2kocf3rp1y83NTam0+xMgm/u5YkjtlCgjGc/sKw9/3k/49h0OY0oVXUx7cIVJv2JH+XFlreuE7eZ+Jo3tj3BoTAXrIAABCEAAAnYrgHBopaEjhJ19rdakL6kmpMfOEfyb1Y5/Cw1CyJo1ay5evNjazyllWZawkrlnLBkOh4aRWjuO3IRlf7xQbalfKE09fhm1reRvLlb6V45lWYRD69miZghAAAIQgIANBBAOrYROWPa7ixb7Ltv1mGDLPZmVmsqdaouLiydMmFBTU8OdJtmsJYRI1yZZMByKXY8QqR2HQ7GKvGvCn1GalB6HJYiYVnK6ttU+xwiHVqNFxRCAAAQgAAFbCCAcWkmdEPbD6CY/27C+r7ZdjwlmX6t17O+xhJCQkJDg4GCGwaVg6k+l/EiWxcLhkLBaX/t+lEVeLfP2sSY/9b6+XyjN+oHx1bhlaTP/AUQ4bCYgdocABCAAAQhwSwDh0ErjQVj2zROWueCwyzFB12OCqZfFjh0O5XK5p6dncXGxlUbE7qql71XW/LTfUvlQtj2dtecPUE4N/ZYlHmKhGxc/OyNEOGzm7wXCYTMBsTsEIAABCECAWwIIh1YaD8uGwy6tIBxeuHBh7dq1uNrw6QeSIbXTTlkkHIp+2EeX2ffJuupwaLm/tmgiYv/TQpU9B+anHxXbLSEc2s4eR4YABCAAAQhYQQDh0Aqo6ioJYXta9rTSDEc+rVQqlbq6umZmZlppOOy0Wvo+v2b4oebnQ+mWS3Y9bciybJ6EedtC9/7VTh4OjK/GNYfN/NVAOGwmIHaHAAQgAAEIcEsA4dBK48EQ9tsLIu3X0GYudD0m2HxXaqWmcqHa5ORkV1dXqdSR+2iOM00kqy7UDAlrVj4c+wdj59OGLMuKlJa/Ic3QBBFOKzXnY6mzD8KhDgYWIQABCEAAAvYvgHBopTFkCDvLgo+yOMK/LlRZqak2r5YQsnr16vPnz9u8JRxsAKlViKc26+RS1fUyDvarqU0iLPv9eWEz/8iiu7v6Jk8OPRvfVGHzyiMcmueGvSAAAQhAAAIcFUA4tN7AHC6Qd7HQiXB9Twsd+NqosrIyLy8v6w2E/dZMCCktLQ0LCuWPO1wz5ECT5w+HHFDE3LX3E0q1wxdVYrFfKHVKPCqILVVoK8eCeQIIh+a5YS8IQAACEIAARwUQDq03MHKavB5piZvvRwoO5csc+GndK1as2LNnD25Fo/dRJIRkZmaOGDEiKCiIUdFi75NNCIdDwmqGhtPZFeqLXx3lxRD2oxiLPR6mx0kBHpnS/I8GwmHzDVEDBCAAAQhAgEMCCIfWGwxC2GNF8tea9+TurpH8T47ml8sc9ntseXn5mDFjCgoKrDcQdlczIaSoqGjp0qVTp069ceOGJjYTsUIReatm5MHGL0EcfEDqn0jf59tdxxtuMGHZZTclXZv3C6U5s/S1Y4KjRXLHyc0Nw1lzK8KhNXVRNwQgAAEIQKDFBRAOrUouUZEfzzfrtjT/3J7mOXZUUmKiQuGAp8ARQs6dO7dq1SpMG2o/hxKJJDo6esyYMeHh4dqVjxcIIVKldEOK2COyZvhB9Ymm2p/BB2qGhotdj9T+HqfKcagJQ12ECjnzr5MWmDwcECesViIb6tKauYxwaCYcdoMABCAAAQhwUwDh0NrjUiplekQJdO+EYfpy12OCBZnihw8eeHt7z58/v6bGvh9VZ0hN0/SkSZPy8vIQDusef0KKi4unT5/u5+dXVFTUgAkRK5iiavo+X3n2vvyPm/IT2arrpUy+kKmsZR364QyEZa8JVM184OGbJwT5tQ47FW/4W2bVNQiHVuVF5RCAAAQgAIGWFkA4bAHxy3yVGfnwtWOC3y7ViOue0q1UKvft2zdixIioqChHmkI8d+6cj4+PXC5vgVHg+CFEItGePXvGjBlz6tQpU5tKWHUU1Pw40LWFht0nhDAMU1NTk5+fn5CYOHJ92Ot/FJv+Rxbdkq9FCiIL8XkzNDZzDcKhmXDYDQIQgAAEIMBNAYTDlhkXBcP2iW3C6XCvRfJnZoj1HsKmVCqnTJni7u7O5/MbmFZqmR41/yg0TS9cuDAmJqb5Vdl1DQzD3LlzZ+TIkcuXL7frjliq8ZooqFQq5XJ5ZWXltWvXNm/e7OLi8t133/3666+jRo2a/NvkrZlFZlzN++ZxQWql0lLtRD0syyIc4mMAAQhAAAIQcCgBhMMWG85HMmbjHenbxwUNPd8iUr31P3HCC4+Mf4WVSCSxsbETJ07cv38/TdMt1nhrHEgoFHp7eyuVxntqjSNysM6amprAwEBPT89Lly7Z+4CawUuevFiWlUqlRUVFZ8+e3bBhw6JFi+bMmTNhwoSpU6du3br14sWL6enp4eHho0ePHjt27N27dwlhL5Yr+58WNvTbpHPrmq7HBF/EC68JVA49w2rGCDR3F4TD5gpifwhAAAIQgACnBBAOW3I4CGGrlWRWRu3X8dU9oqpeP6aOgp0jBV0jBW8eF/SOEY5IFDV6E0VCSEVFxbx58zw9Peu+JdvlfTUIIWvWrImIiODeFChhWcLSKqJSsLRK/SgI6+QJhUJx4cKFoUOHbtq0qfXEQs1wq1QqsVhcWFh48+bNs2fP7t27d+rUqSNHjvTy8lq6dOm6deuio6MrKys1yZFhGKFQuHv3bg8Pj9OnT/v7+zPM4ysGZTQ7O0P8caywgVnErpGCz84IF9+oldn331Ja8h+qJhwL4bAJWCgKAQhAAAIQ4L4AwqFNxqiWJmVSplDCFNYyBbXq/xZJGL6CmH4zEYVCkZGR4ebmFhwcbI+Tb0VFRT///HNhYaFN/I0clDBEKVfkXRUdX8Zf+0PF6q8qVgyoXP0Vf/1PouPLFA8vE4WMJZa5iwkhhM/nz5gxY9q0aZWVldqoY6RV9r9KG/Bomi4rK0tMTFy5cuW4ceNc614eHh7BwcFZWVnl5eVVVVUSiURPgxCSl5fn4eGxatWq6upqlmX1gjRhWb6CXBaohqXU9DjG73JU0PV4VZejgi5H+e+fEEy6LL5fQwtxY1KrfZAQDq1Gi4ohAAEIQAACthBAOLSF+uNj1k1R1U1NmdUIQkhBQcG6devmzJmTnp5uVh022+no0aNLlizhwrQhkYulaYeqw2dVLOpbvuCTiiWfVSzup/5Z1PfxwpL+5Qs+Ll/cr/rwXOnlCCKvbY6aQqGIiIgYN27coUOHpFIpFwSa0x29fbVRsKam5uHDh5pZweDgYD8/v3Hjxvn4+Gzbtu3IkSPx8fG5ubk0TT85q9T47LdEItm1a5erq+v58+f1DqT39vGvEsuWVvJHeXrnC0QyhtWu1CuMtxYUQDi0ICaqggAEIAABCNheAOHQ9mPQvBYQQlJSUkaPHr1582axWNy8ylpob5qmJ0+eLBKJWuh49R2GVioeXq5Y+nnF4ieBUBML6/uvOi72L1/UV34vRX3SaRNfhJD8/PwRI0b4+vpKJJIm7s3d4jRNy2QykUhUVFSUnp4eFBTk4uIyePBgNzc3Ly8vf3//lJQUbQ7Umxisr1cMw+Tm5o4aNWrJkiX1lTG6vqSkZPTo0Y50R1+j3eTOSoRD7owFWgIBCEAAAhCwgADCoQUQOVBFRUXF9u3bJ0+efPHiRRO/f9uw1efOnVu4cKFtJ83o6kdV28c/nhusLw3Wt37hp8K93kTehCgulUqDgoI8PT3T09NlMpkN8c0+tHaWjxAilUoLCgpiYmJWrlw5Z86cGTNmTJgwYdq0abt27bp8+fLNmzcLCgqkUqnmWE0daJqmt23b5uHhkZaW1tSYl5ub6+bm1tQjmm2CHREO8RmAAAQgAAEIOJQAwqHDDCchJCEhYdq0aVu3bi0rK+NsvxQKxfTp08+cOWO7FhJl8e3KwB/MTIZPEmP5ok8V+ZmN9oJhmMuXL0+cOHH16tVVVVV2lFs0aVCpVIpEoocPH6anp586dWrXrl1TpkxxcXGZMWOGv7//5s2b4+LiNM9W0TyCopkdzMnJmTZt2pIlSzQ3pGmUV6/AvXv3pkyZ0sw26NWJtw0IIBw2gINNEIAABCAAAfsTQDi0vzFrsMVyuXzdunUjRoxIS0vj5lfkwsJCNzc3vduKNNgnC29U3E97emHhk6RnXlAsX9RXkXe1gfbV1tb6+Pi4ubnl5+fbsMsNtFB3kybd0XWv0tLSixcvLly4cNiwYcOHDx81atTEiRO3bNmSm5srFoslEolcLrfsHLVKpdqxY8fIkSMzMjJUKpVuw0xcJoTk5OQsWLCAm598E3thX8UQDu1rvNBaCEAAAhCAQCMCCIeNANnn5uvXr8+YMWPVqlWFhYWc+qJMCFm3bl1sbKytWqUsulkZ8K15UdDoXpUrv1A9um/4MaFp+sSJE97e3mFhYVVVVYYFbLtGe44owzDV1dX37t2LioraunVrYGDgzJkzx40bN3v27H379p06dSoxMbGwsFCTAzV7WbzlhJBbt24tWLAgICAgLy/P7M8GIeTKlSvBwcFm12Dxrjl8hQiHDj/E6CAEIAABCLQuAYRDRx1vlUq1ZcsWV1fXS5cuyeVyjnSztLR09OjR5eXlNmkPkYr46340mvGas7Jy9ZeMVP2UBc2LEFJSUjJr1qzJkyc/fPiQO0GFEKJSqWpraysqKu7du5ecnLx+/fpRo0b9+uuvnp6eM2fO3LBhw+XLl1UqlTY6tkDjZTLZ2bNnx44de/jw4WYejhASGxsbHh7ezHqejCT+t3EBhMPGjVACAhCAAAQgYEcCCId2NFhNbSoh5MGDBx4eHnPmzKmoqGjq7hYvTwjZt2/fihUrLHs6oqntJKTm5MrmhMD69+0rOr6MJcyDBw8UCsW2bdsmTJhw/vx5G96SVDfdSaXS/Pz8EydOLFq0aOrUqVOmTBk/fvz06dPDw8Nv3bp17969srIym9wjR5OiZ8yY4ePjU1JSYuo41l+OEBIWFhYTE4NwWD+ShbcgHFoYFNVBAAIQgAAEbCuAcGhb/5Y5+uHDh11dXSMjI20YV1iWZRhmypQptnrwvSL3SvmCj+sPeHXPNjT7EsRln9cW5Xh4es6dO3fFihW5ubktnE80aVCpVAqFwpycnAsXLhw5cmTr1q3e3t6jRo3y8/PbtGnT7t27L168qLkpjkVuHtOcT69MJjt+/Li7u/vRo0ebU4/uvoSQLVu2XLt2rYXxddvQ2pYRDlvbiKO/EIAABCDg4AIIhw4+wHXdI4SIRCJvb29PT08bPgsxOTl5xYoVtvniTpjqcN+nz7U3OwTWsyN/cd8A929HjBjh5eXVMglckwa1N4+5cOHC7Nmzv/vuu59//nn48OGTJk3avn17WVmZpoDmTFHufNRlMpmPj4+np6dQKLTg54EQsnz58oKCAgvWyR00brYE4ZCb44JWQQACEIAABMwUQDg0E84Od6NpOjo6+tdff927d2/LX4Uok8nGjx+fnJxsEzkiralY+m9rTRsu7le6qN9J36+TThy4efOmUqm0bB81OZCpewmFwjt37hw5cmT9+vUrVqzw8fEZN26cn5/fkSNH4uPj09PTS0pKNNFIs5dlW9L82miaPnnypIuLy9GjR60BNWvWrLKyMoTD5o+UiTUgHJoIhWIQgAAEIAAB+xBAOLSPcbJcK5VK5aJFi9zd3e/cudOSD1fIzMwcOXJky8yqGWqJTwdZb9pQmzklyftZQgyPbsYaQojmAYOFhYU3btw4f/58YGDgqFGjXFxcfHx8fv/995CQEM0jH7TRkeOJiBDy6NGj33//fcaMGUKh0AyTRnchhHh4eDx69KjRkihgKQGEQ0tJoh4IQAACEIAAJwQQDjkxDC3bCIVCce3atfHjxwcFBbXMvWEIIevXr4+NjW3Zjj4+GqGVlSsGaCOc9RYE21zNCIe66U4qlebl5UVERMyePXvixIkeHh6urq6+vr5Hjx598OBBYWEhn89v+Vnf5o8awzBRUVHjx4+Pioqy3h8ICCHu7u58Pr/5DUYNJgogHJoIhWIQgAAEIAAB+xBAOLSPcbJ0KwkhAoFg7dq1EydOTE9Pt3ZEfPTokYeHh8VPIzRRheYXWi8Q6tZcvuhTopA12ipNGlQqlVVVVVlZWTExMfv37w8KCpo8efLYsWMXLVq0a9eugwcPpqSkaC7J05Tn+MRgfb0mhBQXF69bt2727NlZWVn1FbPIeolEMn78+Orqp48VsUi1qKQBAYTDBnCwCQIQgAAEIGB/AgiH9jdmlmsxISQ/P3/s2LFLly6VSqWWq1i/pqCgIBs+mlyZd9WqFxxq82H5/I+UhTdYltXEOa2C5tagCoVCIpHk5+fHx8fPmDHju+++++WXX8aOHevt7b1r1y7Nsx9tfhNRbZstssAwTFpa2uDBg3fu3NkC4basrMzd3d2Gt1yyCJp9VYJwaF/jhdZCAAIQgAAEGhFAOGwEyNE3E0IqKir27NkzZcqUuLg4a3yDF4lE7u7uDx8+tJWlPFYx7FsAACAASURBVOdixZLPtBHOegvliz6VZp4ihMTExNy/f18oFGZnZ+/bt2/lypWaZwy6ubktWLDg1KlTycnJ169f1706zhrytgLXHLe8vHzJkiWzZs26fft2y/QuOzvb09PTqn/msC0pB4+OcMjBQUGTIAABCEAAAuYLIByab+dAexJCrl696uXlFRAQUFpa2oSeEZYwRCmnFVKVQqZiaP0UQAhJS0tbunSp/oYmHKN5RQmR34q3XiDUr/nMlu3btw+re40dO3bevHnLli3buXNnVlaW5nkSdn2OqIkjoVQqL1++/NtvvwUHB8tkshYb+vT0dB8fH4VCYWI7Uaz5AgiHzTdEDRCAAAQgAAEOCSAccmgwbN0UiUTyxx9/jB49OioqqtGrEAkhCqky8cjtBd8d8um/e8bne3w+2z3zv3sjN1wS8SXaPMAwzIQJE6x9sVlDci0aDvtXn9t+5syZiRMn+vj4iEQiW11m2RCIlbfJZLIlS5a4uLg8ePBA+zGw8jEfV3/69Ol58+Y1+tFtmca0kqMgHLaSgUY3IQABCECgtQggHLaWkTatn4SQjIyM+fPnr1mz5uHDh/V9ua+uqD20Mtm79w6v3qHeH4d6qRfUP94fqd9O+mDrVp8zdy+rH7iXkpIyceLE2tpa045vhVKEyLMvVCzprz/FV8/j7JtVbNGn0iuRGjTLPt7dCi6Wr5Km6YSEBE9Pz127dslkjd+Yx+ItOHz48MqVKy1eLSpsQADhsAEcbIIABCAAAQjYnwDCof2NmfVbTAjZtm3b8OHDz507p1AonpmKIWx2atH4dzZ7f1QXBT8KVQdCYz+Te+5IicxZtXL1iRMnrN/kho6geJDWQjekWfCx4kFaQ01x3G0SiSQ4OHj8+PF37typ728K1u79rl27Nm7caO2joH5dAYRDXQ0sQwACEIAABOxeAOHQ7ofQah3Iz8/38/Pz9fU9dOhQZmam+jiEvXDw1ozPdhtNg4YrJ/fcsWTCdoVCabU2mlSxqvx+xdLPmzUlaNo0Y/n83oy0NT5H4erVq7/99tvWrVtt+BgJQsjGjRsPHDhg0mcChSwkgHBoIUhUAwEIQAACEOCGAMIhN8aBo62gaXrLli0jRoxwcXERiUQPrz8yPRlqsqLnv7ad3XODMMSGPSTy2vIWuVupYMNgltiypy2PLBaLd+zYMXHixCtXrrT80XWPyDDM6tWrz5w5o7sSy9YWQDi0tjDqhwAEIAABCLSoAMJhi3Lb28EIIZGRkVOnTh0xYsThQ4d9+ps6Z6g7izjj890l9wUt3HWGYQoKCjQ3CGVZItw/3eozh4v6iWPXtZ5wSAjJzs4ePnz4xo0bbXKFod4niqbp+fPnp6am6q3HW6sKIBxalReVQwACEIAABFpaAOGwpcXt83iEkLjd1716NXKdoW4m1C579Q7d5XfO4tehaSrUfTKEXC6vrq4uKSm5dOlSZGSkr6/vyJEjAwICcnJyaH5hxaJPrZwP+yseptvn8Da51WKxeOfOnd7e3ufOnXvmktQm12SxHRiGmTlz5r179yxWIyoyQQDh0AQkFIGAvQsIo73e7jdwVrTQoCNl4UMoilreSi+2N+DACgg4hADCoUMMY0t0Ys2oY9q819SFSf/YKixv7g1LaZpWKpVSqbSqqqqsrCwvLy8rKys9PT08PHzevHnDhg0bPHjwiBEjJk+ePG3atBkzZnh5ebm7uyclJal1CKna4W7VcFi54n9EIW2JkbDpMQghDx8+HDNmzPz58+VyuU3b8szBaZqeMmVKVVXVM2vxxsoCCIdWBkb1ELCYQOo8yvm9YaHZTa9QFudLUdSgXbmGuyIcGppgDQTsXQDh0N5HsGXaz6gY74+N35XUtKC44+ye6w03VTMHyNS9WJZVKpXV1dXFxcXJycmhoaELFizw8fGZPn26j4/PpEmTRo0aNWnSpKVLlx4/fjwzMzM7OzsnJyc/P7+8vFwul2smFcvKyh49eqSdsZRePV5utcnD8oV95HeT1HfsceiXQqEICAiYOHHi9evXVSoVp/qqUqkmT57cCh8sadtRQDi0rT+ODgGTBTIDe1EUNetc0x8zJDvn50xRg0Lvpy6nmvAaEl5mcuNQEAIQ4JAAwiGHBoOzTSHsrcSC3z7cZloONJ4hd86JJ4TVJECWZWmalslkIpGooKDgypUr58+fP3HiRERExM6dOxcuXOjq6uri4jJx4sTFixcHBwdv3rw5NDT0xIkTGRkZIpGobiJQHcMIIQzDaOOfnp/+esJUbXOrWNzX8vOHi/oK93ixhNFrgCO9ZRjmxo0bfn5+/v7+upGbO31UKBSenp7caU8raQnCYSsZaHSzcYHUperg1GgiMrEYm6YNYoNC79d/9Puhgx7nteUNX3Cdu30gRVG+ceZkw3nOFDUszGjUM23mUJMqG2mhupOq3KM+gyaEG5mirJ8AWyAAAQsLIBxaGNRBq4vbnWneBYfaPLnO/URxUfGlS5c2bdrk7u7+ww8/DBo0aOjQoSNGjBg2bNiECRMWLVoUHR1dUlKiqnvRNK1SqWiatuAlbXRVacWqLy0eDh/N66Uqf2DPI0/q5jzrnfakafrIkSO//PJLYmKiBYfDsmIqlWrq1Kn6fxGw7DFQm4EAwqEBCVa0VgETU5+JxXTCofHzOTXMmshXFw91o1dZ2LAmTPGpi9aT/ViWFUZOoChqQqTh9YbqJpgUDmXn1KelDg5rPPOJU5f3pSiq3/IrTQ+xrfWDh35DwOICCIcWJ3XICqO3XfXqbc7daLThcMY3m9etXR8ZGRkXF3f27NmUlJTbt2/z+XzdsKGdV7SWISGyzGgL35lm2b9lWXHWarA16yWECGUlacUHT+cGn34YFJsbnFC4u1R8hyG09rCEkHv37s2cOXP16tVlZUb/bqwta+MFmUw2d+5chMMWHgaEwxYGx+G4K2Bi6jOx2ONw6OzsTFHUt6H1xKrc0K+0IVA3HOopyVKX9qKoXsvTzEhcuaHfUlTP5an17GpSOCwKU9+15jcj97PRa6j6rWYutO/yjHqOaGQXrIIABCwqgHBoUU6HrSwpIntyz+3apNfkhd6hIVNP0yr1NKCtv76T6ou7KxZZ6OTSpZ+J44Lt8fEVAmnR8XtLN11z2ZbptiXTVfOzNdMtJGPM7iyvEnE2YYlEIjl+/Pi4ceNiYmJsPWqN/2aVlZUtX76c++1svCd2VQLh0K6GC421poCJqc/EYo/D4bB5876lKGqg8TNL6y4jHDjLVx29qPrDYWZgP4pyNjGb6RHVHeI9nye57unJrtpQanzhmdNrryxXR9ylDZ/3+vTAGev6qe9/s72eRPy0IJYgAAGrCCAcWoXV4SqtLBZ5/sv8cDjl49DDq5K5oFJQUOC/eqX05unmzx+WL+wjuXTI7m5CQ1hytSwy9MakrZlu9f1svz7h+J1Vc+fO9fPzKysrs4vElZGRERwcbBdN5cIvgqXagHBoKUnUY/cCJqY+E4s9CYdh53apLyocaCwpZfj3UufGuLp5ufrCoSxDfaKms1d0ZcPCMmFO9KbfBvWb8iQHqovLzs1Sx7qnybMuHOo+uMLIzGFdmWfCYdI8U67GfNo+8TlfZ4py9j0nfroOSxCAQIsJIBy2GLW9H8jvqwNNnjD86PHNaX77cPutpAKbC0RERIwaNWr+/PkMw8hvxVeu+9Hc+9P05a/7SX7rrM17ZEYDblXEb8scX18sfLo+w3VL9BxiJ3fZIYScPn169+7dumcpm4GDXZoqgHDYVDGUd1gBE1OficW04bBMc5rlV4ZnlmYE9qw741Rz0qbxcChLXaqehevnFxoW7Dvhq4Hv1WU95w8G+YZna07blBWlhvl7DXqbot4e5BV8NKNI52xOw7vdmBUONQHS66TxqxaNfiDqcm9DF1sa3QsrIQABiwggHFqE0eErIQwJnR3v1dv4nUgbDY0z/r2HC0QlJSVubm6LFy+maVp9r1OlvGqXR939aUw+y7TufFThvqlc6I4ZbSgV39l0zeVpAqx/8nBrptuWDNfMR1FmHMUmu4SFhR0/fhwzhy2Mj3DYwuA4HHcFTEx9JhZ7Gg5Zzd1lDM4srTvhU/3swXrD4eNkSFHdhswKPZqZKxQ+zoO5+1ycKedBPr4T+najqG6DftsUnfN4m46vMPo3Z6qvl9fg5s4cGpld1DmM8UVNLq33YkvjO2EtBCBgEQGEQ4swtoZK7meUef7TrKdZfBx6Ofo+qfdemC2ExzDMvHnzzp49W1RUpBshlEW3xGc3VSz5TH0h4qJ+Ru5lqrlAcVHf8oV9xDGByvwMu31qBTl1P8DEZKgpduCWj4KWttAINe8wAQEBFy5c0B3Z5tWHvU0SsNdweOduTkpqMmd/LqWnPnj4oLCw4NbtWyUlxZgQN+nDaOtCJqY+E4vphMPHdwTVO7M0dakzRQ0JK2LrCYfC1JUDnSnngT5h2XozdsLso36D6mYQBy2PyTYMhRpIWdK8XpSzb1x23Y1Pn1zQ2IyZQ92TUU0YK829duo6aEJpFIEABCwogHBoQUzHrooQcsQ/pdFJQv0CvUOX/XJEKlbYHCclJcXDw6OmpsZIS+pOnpRmnhTu8araMYEfNJS/5pvKlV/w/b/hBw2tCnUX7vWWZpxUZ0KbZ1wjrTd1lYyu3dbgVKFhbtySMbZAlGnqAWxabubMmampqQiHLTwI9hcOGYaJPBax2n+FHf1sCF53Nv5MeUV5C48uDtckARNTn4nFdMPh4/j3zJmlqep7vIw7qs59hjOHqtyjU/pRzoOWJz2bC1Vl5/yHdKMo5wG+XupnXTyJfIb9rHukRN09bDTzlk9KmhcO/3BRHyzN8DANrclY14uiqCadjNpQddgGAQiYLIBwaDJVqy4ok8lUKpVCplw+NEI//j25sNDo+jlf7K+tltvcjhDi5+eXlJTUeEtoFZGKmJpKRlTB1FQSiYilVY3vZQ8lrpef2pIx1jABNrzm+L1ldnHTHTc3tytXrtjDODhUG+0vHNbU1Ghi4dr1/us2BJj7E7huw+Of9RsC1weZ+vNkL4Pjrg9Yu95f+xOwdrVhdl0TsDI6JkpY/ezXfYf6ONl3Z0xMfSYWeyYcssKj4565Z6nsvPq59I+fPWgQDstivAaNC9WbMBRmhU54m6KcB/qGq7fUNeNJ5DOEV+WGTfStu4eNkXBo/P6kz6595oY0dXcrfWaN4REN1sji1A9H7LUuw2ALVkAAAtYVQDi0rq9D1M4wzPLly4cMGeLq6pqWnB7sGWM0B+qt9Oq9Y/634XlZnPhj98WLFxcsWNDKp5WO3V3acA6sbyv33WiaHj58+O3btx3iF86eOmF/4ZDPr9TkrgcP71VV8Rv8EQiFgurqqupqoUgkrKmprqkRicU1tbU1tbViiaRWKpVIpRKZTCqTyeRymUIhVygUyrqXSqWiaZphHj+9h2EYmlYplAqZXCaR1tbUikQ11cJqAb+qsoL/6FFFacmjoqLSgsLivLzChw/z793PvZOUenHTlqDV/itW+a9YsXr5qjXLNc0OCFx98+YNnGjKwd8SE1OficWeDYePn0T/JCnJzvmps+FRzQ1IDcKhIU7uSS/10yx+CMx48reFuma4HG386bXPhkODqjNW1p3dmmewQXeFMNqLopxX6se83H0uLv6pT1qku0Pd8v3QgRRFzTqnc4ccgzJYAQEIWEEA4dAKqI5TpVwuLygomDlzppub26hRo/bv36/uG2F3+cVP/XSXV+8deoHw8dveoVP77Fw7/qRSwYk5t+rq6uHDh2Naaf8tn/riXwPrt2W5Hth/oLq6mssRUSKR/PTTT7m5eCxWS//jY4/hkG9yOFRHR6FQIBRWPYmI1ToRUSyRPBMR5XKZXC7XRkSVSvkkIjKEqB/wyjCMSqWSK+RSmaRWIq4Ri6pFwiohny+oKK8sKysvKSkrLCzJLyjKzSt88CDvblLqxdX+K9YErAxYH7Bo2eJ5i+avWvP4bNjNW4IlEklLjzaO16CAianPxGJ64ZCtPDqBoqiegeqAJTunnlPTPrew0XBYd3MX5zFhuTr/j1zXDFOu6DMIh3lHfUcufxLpNFvnNfYEw7qZz2dOi1X3Yp5zg09f1PRrWFjjAbbBccFGCECgqQIIh00Vaw3lCVE/AH3Pnj2zZs2aOnVqenp6dXX1zZs3deNB8V1B3O7MaZ/u/O3D7d69d3h/vMP7ox2Te+2Y3HP73gUX7l8r1S1sQzRCSGRk5OLFi1Uqnf9ftGGDbHfoIzkLGgiB9W0KueoWHhY+duzYHTt2yOW2P0PYqF9lZeUPP/xQWlpqdCtWWk/A8cOhZmrxyRRilUgkFIk0U4iaWcSnEbFuClH6ZApRrlSqZxHr8qFmFpFhGHVEpGla+WQKUVxbo55CFFUJhJWV/PJHFaWlj4qLSwsKivPyix7euJWx2n9F6K7th48cClgfuGjZ4pl+c+Yvmq8Jt4Hr1tx/cN96Q4uamypgYuozsZh+OGSF0b+pz7IMzGQ151v6xj2ZUWskHGqmGfVzoPnhsPLcvAHO1NsTQnNkjyOrNqbWT1Z3Hqy68dpX3ZPuh4Q1MOVoEA7LYua5rEx90m1tTViAAAQsLIBwaGFQO69OpVJlZWXt3r17+PDha9asuXXrljbjaRe0XdT8KfzmtdupJ+6c2ZV58dCtymIRy7JZWVlKpVJbzLYLAoHA3d1dJFI3rJW/0kuObMl0rS8E1rc+ImcBIYxQKAwICJg4ceL58+c5OGNRUFDw448/VlVVtfIhbvnut5Zw+GQK0chZpnUnmqqnEDUnmspk6nyoM4Wo0JlCfHyWKSFERasUCrlMJq2V1NZNIVZVqc8yraiofFRWUVJSVlRUkp9999Zq/xXrgwITki5Gn47eGrpt0bIlvnNnT/P10Zxl6h+4KiHxQsuPOo5oVMDE1GdiMYNwyApPetVdg5d6bhZFUb5Pz7ZsJBzWTe79oP+YRPPDobrzwlT1jW26DfpWfbLqvPOm5LXc0G8p5zFPzmPNCxtCObuEN+lkD82TOZq6l9GxwkoIQKAhAYTDhnRa0zaGYVJTU4cNGzZ8+PCTJ0/W1tY2elULISQkJGTVqlV6udHd3Z0jDxUghPj7+wcFBem1sDUN7NO+yunakIwx9YVAo+u3ZIy5X5WiqYKm6ZKSktGjR7u5ueXl5XGK9O7du0OGDJHJTPmK8hQES80XaEXhUDuFqJlFNJhC1L0QUap7IeKTKUQlTetdiEgrVUq5QiaVStRTiOJqYXWVQMivFJSXV5aVlhffe3hHM0mYeik5Ifli7JmYsEMHVgasnjl3ttf0qYuWLtRsjYo+0fyBRA3NFzAx9ZlYzDAcsnVX7lE9e/WiKGe/p9nQyN1Kn+1M3QPlG5yje7b8s+8MTit9vFl4zu+9unvQDPT9I0Noyok5eWEuzs4u+3JlwtTlfal+S82YA8wNG+NMUf2Wp+Hf+mdHCe8gYFEBhEOLctpfZYSQvLy87du3u7u7r1q1Ki4uTi6Xm/i9//Tp0y4uLj4+Prrly8vLhwwZ4uLicunSJZtzlJeXT5o0qbJSc9W+zZtj4wYQQo7fW2E0BNa3cm/WVAX9zJVNhJDExMTp06frTSzbtm/Xrl0bNWpUo3/OsG0jHfLorS4c1kVE4zeqMZxC1NyoRjOLqFQ+nUKsu1eN+kJEvRvViGtF1TXCuilE9Y1qcvMfaOJf+pXUy1cvXUg8Hx0bdejIoaBNwbN/n+s5xdtvvp+mQETkH7r/CjvkR437ndKkvmfv2an77vGtQU0sZiQcsrK6OUNKf7KukZlDlhVnBP7gTL09ZHn4uewyoVBcj6VYqH7pxy5j4bDsXOAw9RMxBi44mhqzaYL6LNNBXsHR2Y3+X23eUd9vu1HO7zV0H5p6Wvd4dWW0lzNFObscLWq4HLZCAALmCyAcmm9nz3sSQmQy2f3792fNmuXm5rZs2TKpVNrUbxdisdjd3X3WrFm6EhkZGX5+fitWrNBdaZNlmqYXL14cFRXV1H7ZpLUtc9Bc4ZWtGaaeWbol0zW1ONxowxiG2bNnj6ur644dO/h8vs2Fk5KSJk2aZLSpWGlVgdYZDp+5UY3BFKJYey9T7VWI2nz47FWIj88ypWlapVIq1DeqkWpuVFN3FSK/sDhfk/0uXU65fvPa+YT402djT0afCD8cvnXHtnmLF3pO8Z41d5amzB9HDuGvI1b9rDdauYmpz8RixsLh46sNKednH0HRaDhUN11Wlnk01N93wlcDB37Vr5tuaNUuO7838KuBg0L07imqEw5VsrKc6E2/Dap7UuKETToPURTmnAtbOqHf21S3b70Cw6Mz8gwyZqN8JheQxfmq4+GYsCadk2py9SgIAQiwCIet7UOgiYX79u3z8fH57bffsrKyBAKBeQiFhYXjxo0zvLywpqZm0qT/z96ZwEV1nf1/NKZpm9Y3bd835W2Sf2pq3yapTdRoCmZ7Y5v2Da2JoriggIggMKAi4gIiCIMgIm4osoiADIoKiIq4AAqyqCAoKIggIDsDs+/LPfP/zFwYLrPvC5z53E84995zz/I7Z8z9znPO83hbHBju37/v7u5Oo9H0690kfQo8HirScufh7c5EEVC3d3R4ePjy5cteXl4nTpzg8/mWUgwAUFpaumfPHks1YCrXO3XhULbKdMyRqSzWhcxRjdwuRFmsC0UTIkB3IQoEAp401gXqqKZvoBcDh/Xl98oKr+UXXMkrKMw/m3P2ZEpSBCHSd7N/0I4gNNuNm0WQD6fyt9E0fR+HQ2q+5yx7J3xYWlGLyvAT3IHm6vy0UF+nxfYfOQTnDWiz3FTndnNLw1ziy6ATU52Fgw9ABbRUAMKhlkKZIRsQAyHCp/EGh9mv6LwhIcI3bvBxkUjU2NiYm5vr7u5+5MiRJ0+eSMJSAKBf1wAAlZWVhw8fVnycy+Xi8fiuri7FW2a7AgDYs2dPWVmZ2Wq08opEItHIyMijR4/u3C2r6s5JfrxB1VLSUw3rkxrci18e4YlYGjuFLkuOjY1FN5paxCUsAKCoqOjo0aMaWwszGF2BqQ6HWEc1YyZEpeEQle9CHIt1MR4OUWJCFEgc1bDZrEHSABYOKyrv3Cy5XlhUkJObfSEvN+NsxvGTiZH7Cb6b/bfv3I7mbGio1/vfdKNPDlggVAAqABWACtiiAhAOrWHUgBhwhLS81ohjdauTG9anNHgmN3gcq1ud3xrBEdKBWE9+k3UNQZDnz5+vXr161apVFy9eFIlEhr8/AABiY2OfPHmiWBSCIJGRkYWFlvSSUF5eHhoaqtg2mSZTLfHs2bO10k9OTo4YiIfZnYl1ayQciFlliqYT69a0ku/p9MMEAIDJZHp5eS1btqyjo8PMsgMAcnJyLl26NNXG1Br6C+FQssR0DBEpNBqVTkdNiDQmU96EyOGwsb5Mx3YhyhzVjIZDlMS6kDqqGSGTsHBYXll2q7T4VmnxFSkfZhEz0zPTjyQe3Rcd5bc5ICxCEuLiwMH9r7pfWcPMgG2ACkAFoAJQARtVAMKhxQeOJaDc6DiqZqVfaVcKR8jQo50AgL6+vuPHj+Px+H379t25c4fD4ehRjtJHuFyup6cniURSepdIJB48eNDMkCBrCZVKXb9+/cOHD2VXpnhCIBCcOnXK3d0dj8djlgGDDlrdk6EbpV1J19rjil8ebhi89nzknkCkZzBDPp9fUlKCx+Pj4uK6urrMNvoIgpw8ebKsrMxsNU7x6YTtPoTDUThU46iGxRp1ZCqLdYEiIp/P4/MlsRBlGxERBGtCFFKpZBQOH9RWP26ULCtF4VDGh+mZaanpqYeOJuyNjPDbHEDYvy82Lvro8QSrDUiKnTowDRWACkAFoALWqQCEQ8uOC1tAPd+8S80CP+kt9/PNO1kCHWK4sdnsZ8+eRUREuLm5hYWFkUgko78319fX+/n5qQoe0NjYGBgYaJF9aACAmzdv7tq1y7IjayW1oz8Q+Pv7R0VFCYVCZSEoACJ1mogG6Da82QCA8+fPu7q6pqSkmGLiKbYQDVjy7NkzxVvwiqkVgHCIhUOsCRG1ItIYDNkqUyabLQmHyOGw5UyIKCJiwiFKvJgCAGh0GgqHD+tqHjfW371XKoPD22U3rhUXnr94Lj0r/VTaqYMJB0PD924O3Lo/Nio2Lvrm7RumHnhYPlQAKgAVgApMVgUgHFpwZHlC1rnmnae0ikvufvkFAREj6luLIAifz8/Ozvbx8XFxcamtrdXb2Yz6igAAGRkZhw4dUsWcQqFw48aNTKYql9nqizfoLp1O37Bhw8AA3Kwu2VB68+ZNT0/PkpISM4M6iUQ6c+aMh4dHdna2qTciAgDCwsIoFB1+PTFohsGHMQpAOJSHQ9kqU6mjGsrYRkS6bJWpoi/TMROixIoo3YWIhkNEZHBY++j+48b6uvoHDx/VSI66mvsPq6rvV5TevVV4reDsubMnk0/Exsfu2hMSEhYSGxd98FDs8IjGqAKYYYRJqABUACoAFYAKjCkA4XBMCXP/BWJQP3hVOzJcL90b5tY4VKy0lQAA1NlMZmbmunXrEhMT0RiDqshNaSE6XUTdvdTW1qp6CgAQEhLS19dnujYorRpBkMTExMOHD0OnfTQaLS0tbevWrU1NTUq1MvVF1Gh56NAhb2/v69evm26lGwAgKCgIjripB1Rp+RAOlcMhZheijA8170KUmRBFIgkfUqkU1HL4qOHh48b6hid1jx4/lCDiGBzeq757u/RG/pW8TGLG8aTjhNjoHSG7CDGRsXHR+QVwD67SGQsvQgWgAlABqIAGBSAcahDIZLd5InbiIxdNC0olWCg7jtWtYgvkAzPw+fyuri43N7e1a9dmZWUZ4oBU+74CALy8vNTkBwBkZWVdvnxZTR5T3KLT6a6urhaxWJqiO3qXSSaT16xZYw1rawEAvb29rq6unp6eZDLZFD8WIAiCx+NNUbLe+k+dByEcESQNsgAAIABJREFUqoTDibsQZYiIeqlBdyGOrjKVhUOUmhB5AsGoCZFMHkHhsKj4SvHNa9euF16+kncx/3xO7tms7DNnMlNT008lp51MSk5MSjlxIul4wtFDkfujwqPCY+OiDx+JN7XJfurMcthTqABUACowpRSAcGip4X4ydF17s6GMD9soNWiDAQAMBuPkyZOBgYFhYWE1NTVGdDajUZOOjo7IyEg12QAADx8+DA4ONucrOwBg7969ly9fNmelakSwyC0EQXJzc9evX19RUSESiSzSBsVK0cAnHh4e4eHhpnBn6uvrO5UHXVFws12BcKgeDiV3qVQylUoZC4c4YRfi2BJTyUZErCNTqQmRTyKNeitFEVHL/0bFRMbERcfGRTc0yEUzN9usgBVBBaACShRozvJ03F3KFYvFA0WhSzzzepTkgZegAtagAIRDC40CuNV5QoZ8WiaSGtY/6LvE5XGePHmSkJDg6uq6f//+gYEB878WHz16tLCwUH29HR0dq1atMiey1tfXr1u3zkTbLC00T3SrlkKhHDx4MDg4+NWrV+pHR7dyjZRbKBSmpaV5eXldunRpcHBQ21LRUJwAiGWJiU/y+fyAgAAr7O/EZk7OM/PBIYIANNSDgf8dHhmJiYuOiYtua38xQh4220GWRLwgU6hkKo1CpVFpdBqdTqMz6Awmg8lkMFlMFpvF5rDZHDaPx+XxeHw+r7vn1cH42Lj4GMwRG59w4Fji4eSUk2cy0s5mZ2QTMzPPpqekJsUnHDhwcD8WILOJmZNz0tlgr6ojcTicE9FQGBiPR2+DGkyZJrelLZ7tsPi7RMXfZri3guxwDvENYrG4I+17nB0KilYvTHXkRw7O+LxOaUN7iE44HC6y2upbDRtokAIQDg2ST9+HAUCutMVqyYTYbPvP+rivd1+1alVVVRWVSrXIC7FAIFi+fPmTJ0/U955Op69ataq1tVV9NmPdBQCEh4dP2aj3AID29nZvb++kpCRVLmSNJbWB5dBotKSkpLVr16alpQmFQtVzGIjFAGFRWPeyyCdcSLH/IMV8Rz65ll2ZjbDIYjDqnAkAMDg4GBQUpLocA9sLH1engJng8Oy1unlrEuauPmT48emq+D/9SPjTj4RPVh6cuyreEsehuavGDoUezVt96ExhjSzWBVfy4UgPLp/PEwoFqCNTAIBQJOQL+Fwuh81hMVkMGp06MNh349Z1GSImpyapGzp4z4wK6ASHAzmS12+9Phr5s4O4DDfLPrTUWL7iagiSdjoToQM42Wyqj5sn0SRYaiGUXR1NSJgQ55FHFYuloOiY1iafw+rOuaWhdjjc3PhR1oVwaHUjZJIGQTg0iayaCgUAKWyLwVKflunsmvCyO2VGiWKvqY0q77e3ty9ZsoRGk9/9KPcAACAwMPDWrVty1010WllZuXPnzqlJCAiC5OXlubu7l5aWmkhe4xYLAGhpaTly5EhgYODt27dFIlFPD+Y3dQBEtEHmrcSRhB+HQueR9n1B2reIFCE99i0i7Vs0FDKXfHQF88YxhDZIoVDi4+N9fHxKSkqM20hYmjYKmAkOXUNz3nckTJFj1a4sdJUpl8vl8SRMOLYLEfVlKpoYDlHA4/M4XDaLzWQw6TQ69VlzU1x8TGxc9MlTx7UZQpjHDAroBIfj7RnO88SNssT4RUyKmi+575jegbmmNkktwuNwuO/StH5AbWlisVhHOES51ynHaliyk+g5xxEfR6zukSz21PARNqetcYyvVZuTWRpkh8Ph7ELLlGfjlhEcg/M6hGKxuD7+e5f4GupYpahZWMffBBQsePr+skBQZQqUn2MQDscGbHL/hXBokfEFYnCz47iWQIjNVtWbY3H+KSsr03Iz4cWLF1NTU83QYCaT6eHhUVFRYZHRtGylDAZj48aN/v7+Nud+AnVn6unp6ezs7OrqOjIyIlFSJOC13Sft/SspwkHjMRg6n918d1tg4Nq1a825gNmyI25VtZsJDteFEt93JCxw2rt8T96KiCtaHIUrIuSOiU+FX1mhxeEcccV8x55Lc37c+74jYeWOTKXhEGWIiPoylZoQJYttRSKRQMDn8rioCZHOoN28XSzxSXP0kFXNlancGD3hUMwt3W2Hw82TLkRU1K8+fi4ON5dQrRxDFPNLrFU4HG5xitHY0ObhUCwWcweq04McZ+NmfR+UVjOgqOVAGcHpe9Ruxi0NtsN9rw6t6xMctMS7oFuKVSkZMpNfQmEPpwoOpaZOnGeeLDIOhEOTD4lVVADh0FLD8LA/D0t9Wqabh+9aqsGyeo8dO1ZVVSU7VZPo6+sLCQkxAxzeuHFj7969NkdHaqTT5hYA4N69e97e3levXmWxWNo8YoV5OByOv7+/i4vLzp07OWwm7VzwUNhCjVg4nmHfF2V7nZJST1th16ZCk8wKh1/5pAel103i488rD77vSHDekTHmqEbipWbMUQ3WhCiUhkOUMyEK+RITIofFZlZWVcTGRScciZ8KU9BK+qivxUaGEipWhLalOeKUb07jlkmW+6mxwkmJVFa+NglVhKBaY1u3HI73jDtQkxb0/Sy7OS7x1ztk5jzJfSkOjeosGQ47lVwnHSz19CgW1xMkpkUcYdS54HgLLJNqS1usemEwOsfmxWG2T6qBQ2o1YU1QEbo10TKdgbUaTQEIh0aTUseCqNz+k4/WacmEaLYTj9bSeFq78dCxPVpmBwBoHzYAAODj46MnHEp2nAGxCAAhIhYBMXqqrJVUKtXDw6O/v1/ZzUl7jcViXbhwYfPmzVVVVXoqbB3a8Pn8u3fv3rhx42x66vPofw+F24+DnxbGQ1KEw3CEw1BWoBixFtes1qGrmVphVjj8xi8jKL1ua9rDtQdKsMe6AyVGOdbGluh+3F4bq+Rwib0tf8TcdlFxrI29jRLvn1ceksBhcAaTica6YI2ZEEcRURrrgi8Q8IVCgVAowJgQARruViAU8Hjc6ppKCIdm+gYoVtMQPw+Hs1NY7yefsUbCCPMSMK/d0hy6E50c9amATLHYJEs6rQMOB8oILkbaSEltK4p3liJimWztK7c6ct6YhZZaFOiIz2qWH03JeQfRWbLIV8M2QnRlL26xhmzKKjDJNXQEfYsm8PBoTVKzoR2+SGY2HENlRYc01NpEp9k4HG6WU0K9sqJM0nZYqOkUgHBoOm3VlwzEoPxVWlKDu5Z8mFTvXvrqlBSS1Bds2rudnZ3btm3TkkYAAHv27Hnx4oUObZJAoFg0wGRHlTGcshjLzjKczjKWZjFW53AvNAG2UIyMeiJBywQAnDp1ikAgTKkY6AKBIDAwcPPmzQwGQwdtrTkrAPSLoSTdyXCMJBdRz3iPujO15m5OuraZGQ7PBKXX+SfVLPDKnEzH55uy5OCQwcCGQ5QEupDbhSiNdSHhQ0UTokgkvP+gGsKh5b5r6Ct1qFKHJLJWVUeqWS8qy2W8xHAR3g6Hsx9zK2Ksgi0Chz2lhDUOodhlmQ3xDjicgwJpSxaN3grC2X2EvyIjPa16Tm0gBi1xSWsay9xGdFlDKMVsjB+7Mf5XuqDUziVH05Jd6Y8CODvdjbTjVRkzhf5koPgjhVgspl6RTBlHuUXIipZD4UDpfkc7HM7u2yBiEwRDY46OBcuCcGhB8Vl88plGPy3hMOdZMBjz0GjBNmdlZR0/flx7OExNTSUSiVo1GABA4XCTHzLdLzJ+yGKsIDKWTzxWEBk/ZLFCbvKvtEhsidIPi8Xy8fEhkUhaVWH7mQAA5eXlK1asuHTpkpajYAudBpwHF3VbTapoVAy35zbetIXOTqo2Qjg0AqZ+7j0BDlcEZ9DpknCITCaKiEw2mzlmQpwQDlHpLkQAwIOH9yEcWvB7JnVEifPMV/2ijHqAVLt7zajtH8hztcONBlFQVzC3s5oY6ekwusVudEWlnGlSt9OJjkyNZL2sj7eX22xJLfK1w2G3xo31siNL4vo19N7YuWn+cmsIEjqN1Lz9sz5BjS9T0zRObanVYZLxVLJQllkdOlfiWecj36IJYD0RDgfK4iUGw9lO8eOGVrX1wZs2ogCEQwsOFIIgzZ2Pkmo9NPJh2mOvEU6XBZuKVi0UCrdv366TW8ji4uLAwEDNGCNERM+GlAChHB+ipyuITPcLoh6aSCSKiIjIzc3VXL7FtTNGAzgcTkJCgqen52SL5SgSjhxZPmYD1OyHRlXO4fh/ASHPGErDMrRVwCJweH8ymQ0XeGWOw+EqybLSFcFnaDQKnU6VIiLWhDiKiLKNiNJVpjJfpkLZKtOHtRAOtZ3BpsknNR6qZj+UkdTRI/oKrhOHTcQwbL86clwk29w8EvPSQ/HOix0ky/9wuNkOnnHVo/w63FyUHuQyxw5n95FLJLG0RTXWYsu1nLdS1Kg1Yb+ldDXvhN1x0qZK4ceJqLARriPL5aMl+MTrzVSJ41CDPigZzvLI02Q0lIY3/E6iPf6KvMJ6Lyc2bO+i1KeRkgic3Pr9Y5515OaVDA4HSuOdZ+FmOxHym+U7Y5Cc8GGrUADCoQWHgUQirV69uqWz4fRj76R6d8UlptIr7plPt9B4E366sVSbKRSKh4eHTmTS1tbm6uqqIe4FAJzUh4ylZ+VNhUrJUHbR9ULtscLlTk6jXi4tJYpZ6gUAdHR0+Pv7nzp1avL1l1NXQArXyj2pKiwcvR5uz6o4Y5YBgZWMKgDh0KiWwzE4pFIpNBqFRkP5kDa2ypQ55qhGstB0zFENb+JGRKFIJIKWQ4t/Qbm1BAecncsFZf/nRm0y6ld4Sl/BJ8CPui5VS6INyr3Ej+UfJUOc3WKveGJZ8wB11EkmtUxq7PIIwi/5SAKFawjEmg6urqRkhmWlnUT87lIF/EA9tWJXySpdzduR9h0OZ0eQ39kpFouZHdU5BBkPVysbqDEJJ/ztyPJ0iiTWj23Do96TyhhQpAUZisWo9xccXukOvwnVaD4ZyHPFqfZkq/l5SQ60PQqhTUYNoQnxoYrzCoXD2bM+muNCyK83HK21ayjMZW4FIByaW/Gx+gAANTU1YWFhEkcCAKkdKLjyIiapwf1E/Tr0SG7wKGqPfzxUPPaE5f+2t7dv375dJzMdj8dbt25dV5dKsyfgiTjHqhnLsnUjw+VEhhOR4ny2/PgFia+aSf0RCASlpaW+vr65ubmTb2slEPKHor7SQH2Ki0hVXCEnrgEC6/AQPqnnpKxzZoZDiUMa/6TJZjlcKFtWisLh9jMUygiVSkYREWNCxFoRR/kQi4hjq0yF9x/UwGWlsjlqoQS3OtIBJ+fMQ9IU1Caj2uMl2lwjwWFHjucsHG6Wc3ypHPwIB0qPeUptQ/PwKdUdTH1FQuHQNU+ueFXF6bysdLg01B6HwzkQFKILdqRL3LhiwwmiEfkm2GOlMtrtVrf9k9pSlOjrOEsCz4nyKil2o5MoWaU6OqzU5nTPWTg7R21dsEgd26jwPatYlaYr1VKvpwZxplRDBa9IzGqCPQ5nT6jnKvvRAYVDtZJqajm8bwMKQDi01CABAHbu3NnS0iJjLQQRiYAQeyCIrj/jmbA3AICcnJz8/HxZg7WpDAAQFhbW2Nio/CkA+MWt+pChzH64nChsnswbDhEEiYmJWbp06dDQkHINtRkGK84jHGgdCltgLDgcjv2HiKble4oVi2I7TYNwaATLoVI4HOND8pgJkcpgjJoQ5XyZSleZcnk8SawLqaMaPnRIYxXfIOlLtp0rEWtTQm0ydsqdQ2Jajb6CG7SslFqf4GiHc8DnNE/8uYzanBO02E6yTyzIdzFOyZJCTDM0JlE41Oiadawc3eCQKqUUnN3iY0osf+LhPE/JWtm8caMitzTU3pNwfVxvaXUTAHKsIQp/qR1FcS4f2c1yDCaqXiWJ+iO1G10U2pTmZO+UWDtev0KhEy+Mjqkmd6YTH1J5Jl1GqylshsqnpTfQNaVy7ekgutrh7FykC3FVw6HWI66+BfCu1SoA4dBSQ/Pq1StPT08qVet/WCzV0LF6AQABAQFtbW1jF7T6CwAoLi7OyspSCjaiFpKBZMhYTmRuuSpGJqf18Pnz5z4+PsnJyQKBQCu5bTAT90kxKWKRseCQFG4vHGyDbkvNNhEgHBoVDqWhLFZILYcUygh6KDUhslhorAv5XYg8nmSVac196K3UbF8BtRV1El3sMH5KpKe4uaHVGi11UpAwZFkptyHR6fvQib5ExOKBotBv7STxBuJKB4RocAuVoS/Udmz0JvUKHofDLZZzaKn6SR3gsLMIL7EZYtSTL5ZaFOjgGZzXrPI3dOlC07nYpafyRcifcwdK45wcA+Vlk2aTmoLVtUe+sInn3NJgycbPeVo4rZn4oPKz+jiJY5sJZlLlGVVeRcfCLljOrEqt3u9CqEF/T4BwqFK9SX8DwqGlhvjMmTMxMTFKkclSTVJfb19fn5ubm04bDtEC+/r6lC9GRQA7/LbOq0kxNsPRZ52yeeeeqG+8zd0ViUSXL19eu3atrYcx1KA8AOwqotHIMMKBFP45p/4KhEMNshvvtiXhcJFf9oqwAkOOr/2JC70zZSUs31Pw101Z6r3dLPI9O54/rOBvW8/LTvVILA8r+MIve9xyqAwOFUyIEkem6C5EmQmRw8HuQuTW3K+Cy0qNN8kNKolbQ1hsZ+eS0sxFV+vhHMbevNUWazAcKpbObYiXBBywx+eNeWdBDWuEWsW82l6RBuSw094nipZwSK2VNhVnt3j/mMscbVs0ng/1GeuYPm5IHL+nc4oqWSSMwzloubdQoXzUg45WvwsoPKvkAmqEnEvQ7B1VycPSS+jvFHYueeric0A4VCXf5L8O4dAiY4wgSFBQUFOTLIqORVqhW6U3btwICgoSiXQONY4GqedwOBPqA2KEztPWPakiEE68wvQpAEz+hPJt+YRGowUHB4eEhAwMDNjQzwf6SA4QVlmqUeHwr+x7GRAO9RkLvZ6xBByeGt1zuCe1Qq82jz9U9ujVP4MujJ+LxUcv1qqBw79uynrYMmHVci/J0EijV6vaNcKhGhOilA9RKyIaDpHD5XKqayohHGKH1bJpbi1hMc5u1mxJMInQW9otFhpdgqjLulIVDmlG+84sDZKQIQELWyiqaY928jKiATl0Mc1pAYfU+mNOsyT9nuWpMWagfIMw59z6sY1zmIv6JZnNaR6SFjko8YujXYkoiWn5u4DmIqUrP3Fjq1s151fIMfo7hQqHSePZdYfDGoLdnMWJBvzcMF45TFlUAQiHFpGfRCJt3brVIlXrVykA4Pjx47m5uXo8zuPxtmzZUldXJ/cs+9A9htPESIYTkU8Ho+IKoqhtRK58WzyVhCh78MDf3z8pKYnHmwJRGQBg300nRdgbjQ/D/8quJkI4NNvktyQcUhkT91Lp3unKpt4dp+7KPedGuKaKD3cnl8tlNvz05sMOLeFQhogTdyFiwyGy0HCIVdUQDg0fGSOVwGwmBoxFBfh2ApvpXsEA0Rmn3y5BqeuReXJGSwPhsCPFEYfD6WSaUw+H3BZikGTVKw432zOtxZBvN7oEVDsjrfph6MyTrm6d5Zkut3VT/WOYu2NkqO3vAphHlSWppbulNky9l6dS6+OXSELWu2RptKnqDIfoMmP9f25Q1mF4zSIKQDi0iOzx8fG6enaxSDtllQIAAgMDh4fH3DfLbmiXiI2NPXv27IS8fBH9hywd8E89NzplczLrbd1tqUgkysvLc3JywropmiDa5DsBgPPwktHIMMKBtPdz7rMyCIdmmylmhcOv/c4EpdcFjFkOjQKHC72ziu+/xOrVNUBb6K1kJ+EPu/P4ggkLJ04VNmAf1C+tCIdOQekk0qDiIduFSKGQqVSJo5oxR6ayWBejJsSq6nvQcqjfcBj3KWpTmqckqKDUKwxKiQaFC9cfDqVh9EJLJ27PMwQOUc86ujpEUQmH1GZisKPUYGi3ODCvY2I7dRwUrtQTzyzPCxrhR23BQsn+w1k4nN23QcQm7ey9CuUNXA+V+P6xW0y4p2cJE4pEQwvi7BaHKcb2mJBR1Qm1NlESsx7ngM/XRhyd4dCQGaWqzfC6RRSAcGh+2SkUyrJly168eGH+qvWukcvlbtmyRe8ljtevXycQCNgwDKJuGuOHTKPB4XIi06/QppGATCbv3Llz7969g4ODeg+TLT7Iay4zpkOafV+IhrvEtv47ge0MpHnh0HcCHI7QJi5V1121uw3dC7wyv9uWK5ro0iqjuEnReFjzrA9bw9OOke+25QKDXWEV1byUsxw6+iVWV1cqHsPDQxg+HI91IQuHyGSisS6YEA6xI2WZ9HA9MVDCBXJhJAbK4p1mq4uaoHcwdNkKVKV2G2mYh3mh9wwxx40LyW1Jc5FuXywa2744fk9tSgkcDlQTI9F1pAZh2Gi1VKmd1m6xQWY67kB1epDjbAnUBeWo9l2qtqfisQlgt4SgOUKG+qLEYm7PmEp6/7gga8+3QURtrbIQDjUNzOS9D+HQ/GNbUVHh4eGhx+Y98zdVVmNxcfGJEyf0hsOBgYGAgAChcPznQOGTAcZy3WMbqrYf0p2yLQOH0rdDRIgwyOyupqEXdf3N1T3NNT0v6vq7npIYZI5IJHl9VPMOiUa8dHV1zcnJ0Vth2UjZXEJE7h0KnWss4+FI/L8QJtnmRLDdBlsSDtfvL9qVXK54xOU8kBN056m7itl2JZf/a8dFFALxh29jH+ELRO7RExaXHjr/EJsBAPHSkPwFXpmeB4qVlnyyYIJRsaOfpjTbrlN3/7EtVz84VFxlSqejJkR6ZVUFtBxix8us6THasfvWM7Fswg7V0WZITFKSqAlOkUTtY69Ln9XfcigWdxQFOODsFnsey6vvpFKpKiiRS5V81DhTldnTlsTX624MG4dDZkd9fiJ+yUfSVaQ4uzku8dc7dC8PM7BcSeTGxXbyNI7JoSkp5HY05EljHuJwsx2D0qsHxt9YND2LuT8B5PTtlGQcBpqry/LSwvCOcyTGx4/WBKXpVdpYIEdpp3RjXZ3hsD5B4kNV6c8TGIVg0gYUgHBo5kECACQkJNy5c8fM9RpSHRrEoqSkRO9CAAC+vr58/rjPGOH9bmN5oxk1PzpmiIWI3i3U40GAAEQEXjYMRPyYu/3rzND/y9n2xZmAhaf95qfi56cGLDi97cuMkH8St32ZsX91XmfTIIIAMNE+IYVGcOTIEU9Pz/b29ilIhhLZATJ8dLmx4JCaulGMmHUa6DFzJtMjloRDReMeeuXH3XlyEs/fqGSZKPbxzzdl1TydYBjs6Kcu9Bp96t87L9FZE3YAR5+twT6umPaIuY5tQ/2LQcU8sisYOEx435GgpeVQZkVEl5hK7YdUKR/S7lWWQzjE6m+OtJDaXEYkrPnITvIeTyDWKMNCbDskMIN3nC3NXNZM1YpDDIFDSd3UllLisVC88+LF3y0exTKZwXE0Mcvhu8WLg4sUOY3bWU2Mk9AXbrYTIV9PexoKh3Z2KBJKqpz1PT6xbEAFqmL1UpYWcqmd9UU5iUFjsuc1KDZc2YNj17jUgeaa0rz0ULyzg2RR62wHz+C0ohZV6Dz2mJK/kpbkpQd52ksWokpATs9OcUuDJbLYzZGMkWdwfHx6XmlDh44N4lKpHfVleWnBng6SRaSzHDwIxDI92FsZHIqrCXY43NzQUoVNRtQGqT3ZDq9k9ihRDF6yagUgHJp5eFgs1qZNm8xcqYHVkclkJyenzk4dF5BgagUAHDhwoLm5WXZNWNdrZDj8IctsVACA+FlVz6VD9zd/fho/L9X/szT8fMl/lR74+WkBC9Lw81IDPk/LPVDVXN0tQ8SXL1/u2rUrNjbWhsJdykbQiAlh7zOjwOHQ3oX89hojNgwWpVGBSQKHC7wyF3pnMTnjP1+JxeKc289QfnvWOeE9qKOPZu9zVoZ2ShP6weHHK/WBQyklju5CRBERwqHGiWv0DNwagqO9JyGntHnCZNFYD3dAaq1y+F7J27bCw4bCoUKBWl9gVhO+/cjRN55Yoy/IoVWNRS+cZe8ZlF6ko1ZyreVWR86bZb/YMziReL1ej2ZJSHW2w+LvnPBhicTr1c16FCFrUSfRabaDk29oWn59hxq7qyy/CRPUIl+7WfaLF3sEoWDJ1ep3B6UNUgqHYm5Doud3i6XYOfqLAvpHArQehDxt16wqrRFetBYFIByaeSTy8/MPHDhgWzaix48fu7i4GNJmAMC1a9dOnTolU1vUOsxYZsxlpQyX82bYaIYgYOgVbcfis/h5EvOgUhpUd3F+WsDCtEinC1QS68GDB05OTtevXzdEWJmetp0AgJLmZbjPUmqmv7r1u7atkZW2fvLA4QKvzG2JpQjGuC8QIt8HXzhAvI/VnssXaiTDBV6ZhsDhv/1P1tfXKR5yew5llkNZgkolU6kUGo1Sce8utBxiRw2mrUgBIVdHO5gVtR02BSowRRSAcGjOgebxeJs3b757V953ujnboGtdAID8/PzU1FQDGebRo0ceHh6yQhAym+54xogOaTiRJvdRCRCQvrvU/zPdmVDBqOg3P9nr6/2tLbbklEjXmaNTfmFf81DYAkPsh0NhC4T9LTpVCjMbrsCkgsMFXplyXmcAAELRhGXKiXmPlJoK5S4aAocrtp+R8Z4eCSqVXF4B4dDwuQ1LgApABaACk02Brq4ubdaqQTg058D39fV5eHhwuXqurzdnU2V1AQDCwsJ6enpkV/RL9PX1/fDDDyQSSfY4c8Mlo8HhsmxBRadJrUZdT0mbPz+tziqoQIAaMi9I27fsQtfTIZkgUzzBrSsgRX6hJx9GfcWpvTTFBbRI9ycbHNr7nKWoDp/Y+JIkB4GqTvWDwz9Ll5UaCIcUykh5RRm0HFrk+wArhQpABaAC1qwAh8P54IMP9u7dS6fT1bQTwqEacYx+6+LFixkZGTLrmdHLN0WBAoHAy8vL8IDsQqFwzZo1jx49Gm0kEPPvvmQsPWsUPmS6XkBILFN0Hy2zobTDX49FpFrg4hb7M02VWAsnAAAgAElEQVQVr2xrSphCZwBA6/PWpACn4fDPdeXDofC/su6kmqJVsEyNCpgZDtOxcQ5VgZkeDmmwRe06pXxph0CI/DPoAjanmjSEQ41TB2aACkAFoAJQAfMrcPDgQRwON3PmTAKBwGQq3yML4dBs48Ln8728vLq6usxWo1EqKi8vDwsLM0rgDQKBUFRUNN4qBDC98o0Ch+yQm6ZyVQrEVfnPAxed0WAG1IIDVZWw1T69quD5FOdDAMDOnTsf3L/Pbbg2uGe+DnxI+Ib76LIZtpuOz1uYwigwCeFwgVdmUc1LTB9Hk4fOP1RDg3K3IBwqCgivQAWgAlABqIDFFeBwOL/61a9QN0K/+tWvYmNj2Wy2XKsgHMoJYrrTBw8ebNq0SXEITFej4SUDAOLi4jIyMgwvSiwWV1RUHDlyZJyCgJibUW+EaIdO2aL2EaO0ULGQxyUdm+acUsV1xrq+1f5Me8OAmliIig2bZFfu3LmzefNmDkcS1RwIeeRT7qSor9UhYrg9ad+X5CRXAANXWHQqWAIOk+/LkZjcqYGWwwVemcEny+RUfdk3HtlCrjqlp4bA4Q9bkltbW2RHX1+PrjsP4bJSueGDp1ABqABUACogUyAmJgaFw2nTpuFwuN/85jfx8fHoGxiaB8KhTCuTJgAAR48ezcrKMmktRi+cy+Xi8fhnz54ZpWQ+n79ly5ZxOBSLAUfI3HzVQOMh/9wTE+02pAwwt32RYSwCVF/OFvv0V4b59TbKGFmkEARBgoKC7t/HeIUEQND7jFV2ajBk7tDehaR9iyTbESO/IO37YmjPgsFdf2GWJAm6n4gRkUUaDCuVKWABONxsYjj83805PSSGrIeyhFfcDaUcqPSiIXAoF+ewvf0FhEPZKMAEVAAqABWAChioAJPJ/OUvfykLRYIi4m9/+9tjx46hEckhHBqosJaPAwD8/PzIZLKW+a0kG5lM9vLyMsqaUjTgu7+/P/a3CbFYLOqjM9bl6smHTtmsoCKEOSE8tbGkY1A4Oxdnqyc64949sK4AS87G6oj1l1NZWRkeHq6k70DiJxLwObynt5mlycySk7xnZUAg9ec0lc2s1jSikxAOCyvblCrc3kdd5JetFAUVL1oVHJbDD1QAKgAVgApABTAKeHl5yeAQa0W0s7NLSUlBTYuGuxtR+j9TeFGmQG1tLYFAkJ3aRAIA8ODBg8OHDyt5a9erAwiC7Nu3r7KyUvY0giB9fX1X8gqYesU8HNl8OeHYkd7eXmPhq6xhksCMSXX4+crj2huXCWWl4een5R2qlrVhiiTodPrSpUsbGhqmSH8nWTcnGxx6H7yhZoQu3X2uyIFKr1gVHBYUFMi9BMBTqABUACoAFZjiCqAGQ6UivP/++zgcDsKhmvcBw28hCOLv73/79m3DizJnCQCA6Ojo6upqY8GhWCzOyspKSEhAe/HkyZPly5e7ubn19PSIOshM/ysMHRAxm3vyPkLj3r9/f+XKlW5ubiQSyYjt7G4e9l9o1MAV2nmsCViQ1vN82JyjbPG68vPzd+/eLRQKLd4S2AA9FJhscDhImeD1uLlT/tv4710XldKg3EWrgsO78AMVgApABaACUAGMAhs2bJDDQpQVf/3rX8fGxkZHR0M41OOVSKdHurq6li1bNjg4qNNTFs/M5XJdXFyM6161srLS39+fz+cPDQ25uLhs2rRpz549o3Y/BOEk1jA2XNKAiD+eZW7M45e9RB1UikSikJAQPz8/PB4/MDBgFNEQETjud91/gVnNhqj9ED8/LSeqwoiUaxRBTFcIm8328vKyrcifplPDFkueVHBY1diLHYNhGmehd1b9iwn/cPeQGHIcqPTUEDhcEpDU1PREdrx61Qn3HGLHBaahAlABqABUwBAFaDSa4p5DOzu7I0eOoC9kcM+hIfJq8ywAoLi4eN++fTb3xv/48eP169cb170qiURydXXNzc11c3Orrq6m0+ly+zCRYbawoZ+xOofumMFwzhk/VhDp/zjNCrouejEMWHys8sPDw3w+v6qqysXFJTMz03CdWTTe1kXpstWeZk74zk0Z7lEXmxTbd1tPH5N+DB8yW9fBdttvVjj8ykcS59BEDmnWRV0VIUA2EggAq/ddWeCV+SU+m0yXeNGVfc6XNisFQuxFQ+BwxfYzutKgXH7orVQ2WDABFYAKQAWgAnIKhIaGomZD1Fr43nvvJScnCwQCWTYIhzIpTJQAAOzatauzs9NE5Zuu2Nzc3JiYGOOWz2QyV65cGRwcXFdXpxIJAJBYBUWI8Ek/71ITL6uef61F1E0VI9LrKjyRAABevHgRFRUVExNjkNpAfPFgFX5eqpmZEFtdDqHCuLJbZ2nDw8MeHh49PT3W2TzYKm0UmCRw+E1ADpc/YWVzfsULGeztTr6L1QJBwJJdl2R3lSYgHGIVg2moAFQAKgAVsBIFRkZGfvazn6FwOHv27MzMTEW/HRAOTT1YnZ2d/v7+trilKioq6uHDh0bURyAQ+Pn5LV++vKLCVCsnAQBpaWkrV658/vw5olcEPD5P6PVREhbVzJ+O+DGXxxn/BceIQ2A9RQEAUlNTiUSi9TQJtkQPBSYJHF6Z6KG0e4hh73MWS31l9a+w6vSPML/yJ2IzyKUhHGLlgmmoAFQAKgAVsBIFgoKCcDjcRx99lJubq+pFGcKhSQcLAHDs2LGTJ0+qtJKZtHrDCvf19cUamQ0pDABQWlq6bNmyoqKi2trahIQEkwrS1tbm4eFBIBDQeC06tbyp4pVlzYb+n6VtsU+nDk3wi6FTF2wi88uXL9evXz8yMmITrYWNVKXAZIBDv4Rb2O5J4g4l3JKDve+2nadOjJlz+EKtXB7sqY5wmBmUXheUXvfnlQnvOxLgslLscMA0VAAqABWAChhLgYGBgW+++ebKlSvqC4RwqF4fA++yWKxNmza1trYaWI4JHh/fXDNa+MTlmm1tbXv37jUKwrHZ7MOHD/v4+KAk0NfX5+XlperXCiP2FDUh3r9/X6deXE+pN7+pUK5Gv09Taq+3oR53jCiI9RQFADh06FBqaqr1NAm2RD8FbB4Ovw7IYU000+fcfobFPFk6LO2enEZrI6/K7solIBzKaQVPoQJQAagAVMDiClCpVG3aAOFQG5X0ztPZ2bl161YzgJC2LRyLKs55cJF8cu1w3Pek6L8NH3Skpm3kNZeJRdKljNI8R44cyc3N1QmrlLahu7vb3d391KlTDAYDzUCj0Tw8PHp7J/gFVPqsgRcBAB0dHZ6envv379d+WW9q8G05VLPI6cmA4kkMh2Qy2dvbWw+7roFTAj5udAVsHg7zyyf8dMfmCR18JywoxVLfnYYJi0vbeiifb8rCZpClIRwafarBAqECUAGoAFTAPApAODSpzgcOHCgpKTEcsQxtJABiRMR9dIVx9QBp78KhPZ+R9n1B2reIFOFAirCX/HffItK+L4ZC5g3v/xuz+Aj3+b1z5869ePHCkHpFItGVK1f8/PwuX76M3ewqFAoDAwNLS0sNKVz7Z9ls9tGjRzds2FBXV6fxKQDEsS75FqFBuUq3f5050ZSrse02k4HP52/dulXjogab6c/UbqiZ4fC0cb2Vbkssk/uarY8pkgGeYuL/tl+QG+6kyw2K2RZ4ZUI4lBMKnkIFoAJQAaiArSgA4dB0I0Umk1evXm0GE5mGLgAg7GsZ2jOPFO5ACpeioIQJVR/h9kN7/0qK+ZuINiiWe3PSUNP4bQ6Hc+zYsdWrV/f3949fHUudPHkyJSVl7MzkfwEA3d3dq1evPnz4sHprFUDA9m8y5TjNIqdeHydxJ0bsMLlM5qqgtrbW2dnZuCFSzNV2WI+8AhaAwy0p95XymOzij7vzsM0EQDx/Y6bsLjbxvJuMzXmupHmht/Kcsqe2HCvBPsLjixb5ZsvuyhJycPiodVB2SzGx0BvuOcSKCtNQAagAVAAqYEkFIByaSH0AwPXr17dt26b9gkbjtwQAhEmmZgVI7IRqaFDVrehvaRdCgYCna8N6e3t9fX2PHz+uKrj5w4cPjbWhUfu2DQ4OpqSkBAYG1tfXq7HlbrG3WIRDLIV6fZxEm4w+adDILo8fP9Z+4GBOa1bAGuFwgVfmruS7kRlV6OF98IYij6FXfOJvyrLtO1O5yE8J5sk9+9dNWeHplbKntp+8I5cBPV3klx1xZjzbGmnIRKU5JRchHFrzHIdtgwpABaACU0wBCIcmGnAAQGRkZFVVlYnK16ZYQe+z4fh/64OFMlwMt6dk+InIOkSiKyoqWrly5d27EwKDybWWx+P5+vqqITS5/MY6BQBcvnzZx8fnxo0bTCZTabEWd1WKIqL3n5NLiyooFIrSRtruxbKysp07d2KXGdtuX2DLxWKxlcKhSgzz0mAYtNSDY95KD0NvpfB7BRWACkAFoAKWVQDCoen09/b2tqArGoQ+OBT1tUFkiCJiuP3woSVAqNl+yOVyAwICtm7dymAw1IMfAGDbtm08nuYyTTE6LBZr/fr1GzZs4HA4iuVjzXcWTHv9OXnv7qj169dbxZ5VRZn0usLhcPz9/SsrK/V6Gj5kjQpAODQObUI4tMbZDdsEFYAKQAWmpAIQDk007GfPnk1OTjZR4RqLFXQ/GYr6yghkOMaHI4eXisgq/YsCAGpra4OCgk6fPq3KIodtMwAgKSnJbD5psFXL0jdv3ly3bt3Zs2cnADwQBy46Y0EmlFW98eMkBpnT3NxMIBD8/f1v3rypnrdl/bLmRGVlZVhYmDW3ELZNVwUgHEI41HXOwPxQAagAVAAqYNUKQDg0xfBwudx169Y9ePDAFIVrLBPwOeQTLkYjw7ElprRzwWJplAu5BvD5/Hv37q1du/bOnTtaAgwAoKSkJDQ0VK4oc54CACgUSmBg4K5du4aHh9GqAQJC/kmUEZoFE5v+kiwSImKxGADQ1NS0adOm4ODgwcHBCShrTr0MrovL5a5Zs+bFixdaThKDK4QFmEMBCIcQDs0xz2AdUAGoAFQAKmA2BSAcmkLq5ubmtWvXWmbZJADUzACtvJKOUZ+WGDkUbs+6kyYnFwAgNDTUy8trYGBA7pb606dPnzo5OanyWKP+WSPeFQgEBQUFa9asGTXNAfGRjVctyISyqvcuOYeNc4gS+LJly0JDQ6lUqs3xFQDg4sWLO3futKR/JiPOG1jUmAIWgMNtp+vwSdWWPE5W4419wGWlYzMK/oUKQAWgAlABCysA4dDoAwAAyMrKunDhgkXe4AWd9aRI4y0olQPI/X8T0cZDU9TX169duzY9PV2PnpLJ5B9++KGrq8vo+utaIACgt7d327ZtkZGRJBKJGFUhIzRLJfDzU8/tv4eFQ9SEyOVyU1JSvLy8ioqKZNZOXftrkfw8Hs/f39/yYV0s0vlJXalZ4fAL7zQUoibrfz9emQAd0ljw+yIQCPr6+urq6q5evXru3LnMzMwz1vTJzMzMzc0tLi5++PBhX1+f+rhMFpQRVg0VgArYugIQDk0xghs2bKDT6aYoWUOZAFDP+GppCdQnW7g98/ZJFFTOnDmzdu3azs5OPcgQ7cWGDRtqamo09Mhct0Ui0aVLl5ydnRN2ZfkvSLMUFqL1+s1N6WwakoNDmRI8Hm/btm3Lli0rLi7WW3xZaeZJHD9+PCkpyVZaax5NJkctZoXDP/8Y+bVP2te+6SY4znzta5rD78zXWh4+aX9aEvm+I2FJwKmnTxsVj8HBfgplRJujvKIsNi464Uj85JhkZugFl8utqamJi4vz8PD4+9///uGHH/7ud7/7zW9+8ytr+vz6179+5513Pv7442+++cbNzS02Nra0tNQyrxpmGBJYBVQAKmA5BSAcGl37u3fvWmr5nKCnaShsoT7UJ2chVH06FOEgoA9HRUVFRkb29OgQ4kJR54yMjIsXL1oPMKBudXYGRATMt3Cow+D/zWKMKPGkitWwsbHx0KFDISEhJSUTgnJj81hJuru729nZ2RqsxFYiyGRqhpng0DU0531HwhQ5/oU/UV1dqXj09/dqQ4YUygiEQy2/YwAAHo9XV1e3ffv2BQsWzJw5c9q0aThb+EybNm3mzJlz587dvHlzdXU1i8Wynv+Vaik+zAYVgApYrQIQDo07NAiC7Nu3Lzc317jFalUaAPS8vaR9DqaFw3AHzv3cnu5uwz2jdHR0EAgEa/s/mlAkDF6cZVnL4YG1BUK+SOOgIwhSV1fn7e3t6elpiAlXY0WGZAAAnD59Oj093ZBC4LNWq4CZ4PBqxbN/bT79nV+y4cdi75PznQnznQnfbjz+900nZcc3G45+tf6wxY9vPI4knM5XJMPq6koIh8b9GohEotbW1ri4uC+++GLmzJm2gIRK2jhz5syvv/46Pj6+vb0dBpA17gyBpUEFpqwCEA6NO/RMJnPDhg1sNtu4xWpTGhDyTeGkVBE1acTtYgC0aZL6PEKhcNOmTerzWOAuED+69dJ3boql+BA/L7Usp0n7jrPZ7MbGRnd39/DwcCv8+bijo2PTpk0sFkv7HsGcNqSAmeDQiIqMjIzExkXHxkW3v3yBNcQ9fdqoFMms5yKEQyNOA5FI1NDQEBQUNHv27BkzZiihLtu59Prrr//xj3/csWNHfX29QCAwokqwKKgAVGBqKgDh0LjjXlVVdejQIYtYwwCXObx/sSLLGf0K+fgqo8AhgiCBgYGvXr0y7hAYXhqXJdjjeM5ScLj7H0SRQLPZENtNAACbzT516pSzs/O5c+cYDAb2rgXTIpEoKirq7NmzFvlGWLDjU6dqCIdK1n+aiCchHBrxe/Xw4cO1a9e+/fbb06dPtx0MVNnS6dOnv/32266urlVVVUZUCRYFFYAKTE0FIBwacdwRBPH29q6vrzdimdoXJSL3ksL/anQUVCxwOPp/jQWHBw8eLCgo0L6PZsuZG1tpKTisKWzVG6VQGFu9enVlZaU1rDCiUCiurq6Gr0A227jDinRVYPLAYUdH+/PnzdZ8DA0NYE2datJwz6H6edzR0bFmzZqf//znKmHLNm/MnDlz1apVra2t6rsP70IFoAJQAfUKQDhUr49Od58/f7569WoKhaLTU0bKDHhNt4b2mtYbzSgo7v0c8IyzSvDChQtRUVF6s5CRpFNSDJvOC/uXBYyHQV9lsGg8JQ3S+hIAoKmpae/evVu2bLlz544FtQUAbN++/fbt21q3HWa0PQUmDxyqYS2buwXhUNU3CQDQ3d0dGhr6q1/9yjYBUEOr33rrrc2bN0P3X6omALwOFYAKaKMAhENtVNImDwDg3LlzBw4c0CazsfIgCNLU1NTb28vn89lVZ81jORwKWyAa6RarirSgS9+ePn3q4+NjkS2a6psJAHha2W1m42HAwtNtj8bDSKpvofq7qOfV7du3h4WFtba2WsSKWFNTs379euhoXf1I2fpdCIdaxZYwM15COFT1vWKxWGfOnPn00081MJYt3549e3ZGRgaXy1UlArwOFYAKQAXUKwDhUL0+2t8FAGzdutWcockRBAEA4PF4T0/P7du3M++kmgkO9ywQDrQZBQ75fP769evNKZr2AyoSImnBt/znmynmYcCCtHP77xnD0c94F7lcbkVFxZIlS3bt2sXj8cxpRQQA7N69u7Kycrw1MDUZFYBwCOHQZuY1AKCxsfHHH3+cfAtKsTD7xhtvrFy58tmzZ+b8F99mJgFsKFQAKqCFAhAOtRBJkoXD4tfdfHk748nN0w0VF5t7ng9L/uEd89k5NDR048aNHTt2mPpfYyD9NDc35+XlRUZGurq6EggEPz+/1tZWbm2emeAwbCFCHzIKHKII0dHRYWrdtBxluWwAAfHrC81gP8TPT41fX8hlmcTPHJvNJhKJGzZsOHfu3MjIiBmkHhgYqKio2LVrlxnqkhsyeGpmBSAcQjg085TTvzoej3fy5Mnf/e53thLMEIt82qenTZv2/vvvZ2ZmQuOh/nMFPgkVmNoKQDhUP/5CgYg6xN71XfamT5IDFkqNSAvSAhak+X+WuuGPJ26k1rPokh1ira2t7u7uq1evrq6uVl+gfncBABwOh0ajZWdnL1u2bO3atTt27KBSqQiCkEgk6co9wO94NBRmlj2H4Q5GIUOxWAwAOH/+/MWLF62WIlg0rnS4TWk/nJ8W/sN5tnQi6Tc9ND6FujPF4/ErV6588OABn8/X+IjeGQAAKSkpK1euvHnzpt6FwAdtRQEIhxAObWWuioeHh5cuXfrTn/5Ue9CS5Zw2bdprr702Tfqx/tAXb775ppubW19fn82MDWwoVAAqYE0KQDhUMxr9LykxLvm+n6oMeYeflxr8bdbd8896enrc3d0zMzON65gRRabKysqYmJiAgIB169Zdv3798ePHXC5XkaYQFkXRs6gprgwfdBQDRI1uOt16+vTp7t27FbujUyEmzUzuZ+xxzDGd/fCg2+WRPnMEnwAAtLS0xMTEBAUFlZSUmEhzAEBiYuKKFSsyMzNNOi6wcGtQAMIhhENrmIdateHx48d/+ctf9ItdMX369I/++MeFcz9973f/vez7f77/7rszZrwmQ0drS0ybNu2zzz4z0W/VWmkNM0EFoAK2rACEQxWjB55VdQd9laENEvjNTT2Cz889d8Eob9vowtGenp779+8nJCSsXbs2IiIiKSmJTCajt1Q0WAz47JGEH0xBg3JlUtI2GstyKBaLe3p61q1bZ+XrX3hsQcyafPz8VG3mg/Z58PNTD6wroA2zVY2pKa4DAMrKyrZu3bpz505dfZ4jQPyMLiobFNzq5d/q40v+28sv6ec/IAs50tCMQGoNTk9Pb2hoMMrXwRQK6FDm2LpxHR6ZYlkhHEI4tJkpn5KSYmdnpx/I/eQnP1ny979fyUwL37al7saVtEMH7OfPe+016+XD3//+90lJSZPhX2GbmV+woVCByaMAhEOlY/m04pW/ZO2otgd+flrytltKi9LyIgAAtTpevnzZ1dV15cqVvr6+r169otPp2rqaRISU015yIGeC00WMK/uNEucQVYbFYq1fv/7Zs2daCmWpbAKe8OqJhz5/STYWIvp+mpJ/+L5IaBn+4PP5TU1Na9as2bFjB4fDUf8KAcRiPiLG1zI/LRz5nyuU/1dAfjeP/G7+6PFePnlWIXnOFcq3Nyn9XAQAscCUy1bNNAGkroFEHRRWUBFj9TnGyhzG6nOs3TdFfXQzNcBGqoFwCOHQRqaqWLx169aZM2fqB4czZrz25cKF1NYnvQ336W1N9Lamskvn5nz4P2+88RP9CjT1U7/+9a99fX2Nu5bJZkYaNhQqABUwTAEIh4r6Cfmivf8+rz0Zojn95qbcOfdUsTT1V1BjYENDA5FIDA0NdXV1PX369PXr1+l0uno7odJi2VVEU/ukGQpbIOiqV1q7fhcBACEhIYWFhfo9buanmipeHd1UhJ+nvwkRPz/N55Pkg+6X2+r7jeubVA8pqFRqRkaGi4tLVlYW6s5U7l0CiMVFA/wNNYx3L428W0DWfOST/1ZCTW7l8CSQaKsfZITNO/OIseY8wymbsZw44Vh6lul+kXu6FlCho3jJ+EI4hHBoM9/z5cuXv/HGG/pR2WvTpy+c+wm9rYnb9Rw9OJ0tl9KS/vTBBzOs0n74xhtvfPfdd3L/oNvMUMGGQgWgAhZVAMKhnPwAASlBN3UlQzT/ru+yBXzp6jq5QpWd0un0np6eU6dOrVy50tvbOzIycnhY4gFVvQ1HWUnj14CQT4r60gTWQgdZmSPHVxpxTSna9AsXLiQmJhrS8XEJTJ9CEPCgqG37N5l+81LxugS6wM9PC1h4OujrrPqSDuPt2TRCh/l8/r59+5ydnSsqKnbv3s3jSXwsicViCh+EPma9V6AdFk5Exw8KyM10bb8LRuiDsYoAYuHjfvq/M5VgoRwlrjmPDDCMaEI3Vg/MXA6EQwiHZp5y+lf39ddf67rhcPr06W/85Ce//MUvfv/eu/j1bqyXzTI45HY9p7Y+CdmCf/PnP9cPOE361PTp0x0cHCAc6j9d4JNQgSmsAIRDucEf7KRutU/XDw7x81ILjz+QxbeQKxl1zikWi0tKSkJCQjZKP+Xl5a2trQKBwDhoBACnJocUbi9jOSMn9n3Bb6tR7JeBV3p6eoKDg42jgIFN0fpxLovfXN1DjCxfPzsRPz81YEEafr6EFbG4KL0ivTUvNWB+ZkHC/ecP+oQCa0QmBEFaWlp27ty5evXqCxcuACDuYovsb1Aka0cnUp/2px9eIYc0MG3LfsgvbJYsIpXjQFWnq84JG6a6O0AIhxAOtf5X09IZP//8c5147LXp099/9x2vtWv2bQ+8kHJisLEWS4Zourwg9+P/+aN1xsaYN28ehENLTzpYP1TAJhWAcIgdNgDAg2sv9CND9KltX57hcSZEq0ONge3t7eXl5TExMevWrYuOjj59+rRGBzPYhmmfRhjDwwf+YWQmjBi1HJKT3YHAJKvp/Pz8bAsO0REBAAgFou4WUnZkxXG/6ycDbhz3vX5449UDbnkb7KN3LU1JxBdnR1V0twz7b/FrbrbqfZUikejkyZMxMTGRkZGXWobe03IdqVp0fK9gJKKRLbARQBRUv6L/eFZbMlxOZDgR6cvOip4Pa//1nHw5IRxCOLSZWa0rHP7izZ+vX7l84Ekt62Uzp7NFkQy5Xc+766rcVy5//fXXdcJO82SGcGgzUxM2FCpgZQpAOMQOCAAgI6TMEDjc6nCmr42MGgkRBBGJRNnZ2atWrVq2bNmWLVv6+voEAoGpf8vjdz8eCvvM6Hw4FG4PBBysXMZKAwDCw8O7urqMVaClykFEiEggEvKFQr7wecvz1atWp6amor8O5OTk5OXl2QQAt9CF7+fpbzCUMy2+V0D2f8i0iQ2IzHUXdCDDMXMia0fxVF5cCuEQwqGl/r3VuV5d4fCt/5gZshmvlAllF1kdzTEhO37xpjWuLIVwqPMUgQ9ABaACUgUgHGInAgBg37ILhsDh5r+ebghxmKsAACAASURBVH3Y/+DBg5SUlG3btrm5uRGJxPLycjQyodnYgHnzmHEXlw6FLeA0XMNqZcQ0ACA7OzsjI8OIZVq8KABAV1dXbGzsvn37WltbX758GRYWZrYJoHf3O1miOVcpcoBn4OnvL5PPtJvE4Kx3N+UfBGLuyfua9xmOAeEEhnTKFlS/ki9wypxDOIRwaDOTXVc4nDFjxreL7Nuq7rA7Jmw1lJEhmsg9lfj79941jzFQp1ogHNrM1IQNhQpYmQIQDrEDAgAI/t8sQ+AQ/1mKxwr/gICAmJiYoaEh1GqErcJMaYBQM/GkiEXGsR9GfsG6k2zSlt+5c8dGV5aqlwVBkPPnz7u6uhYWFrq7u1t7OEcRWHaXZiAKKn38nUsj90eE6rWy4F1A5TDWX5yAfEo5UNXFFUSxELFg+y1YNYRDCIcWnH66Va0rHOJwuJ+8/vqiBZ+lxsc8Lrk+8Pght3PUVSmWDyuvXPrskznTdOI2s2SGcKjb/IC5oQJQgTEFIByOKSH5CwDY/V22IXC4eeHp6utNfCuI8waEPFruLsPth0N7PmNXZolN7F6zvb19+fLlVCoVOxyTJt3b27tlyxZnZ+f6+nqrNR4Csfh4K8cQDzRKsVB2cdU9OmKtmw9FL8mSSIaq2E/j9aVnRe2SxeRT8APhEMKhzUx7PeAQh8NNmzbtrf+Yaf/Z/B2+m5itz7gdrdyO56NH53Nu5/O26vJ//O/XVuiTBsKhzUxN2FCogJUpAOEQOyAAgMMbrxoCh1vt0zueDGLLtGQaIKzy00NhC/W3H0Z/y3taYoYu8Hi8lStXtra2mqEui1TB5/MjIyM9PT1v3LghEExwWWSR9ihWykfEi25SZSxn/EQe+Vof36rwcHT3LwD8knbGMoWQhhqZUJbBmSi416ko6VS4AuEQwqHNzHP94BA18s2YMWPxokWMp83c1jbuixc89Gh7wWt7QXvatN55xeszZpjFHKhDJRAObWZqwoZCBaxMAQiH2AEBAFw5UYufr3+I8wD709RBJrZMi6cBnz18aAkp4gvdEDHyS0q6LxCaD2NCQ0Nramqs1rBm+DiWl5dv3rx56dKl+/btEwqtbo3l2Q6u6cyGKGp+fo3CFlkeDxEEEQqFfD4/ODj42LFjbDabm/FIzw2HY3wouN02Nd3SQDiEcGj4v41mKgHCoZmEhtVABaACNq4AhEPsAEI4HAdICIfYmWGMNIRDCIfGmEfWVQaEQwiH1jUj1bTGEDj85ZtvHti+m9PYynvaxnvWxn3Wxm1u5za3cZvbOM9ebN/o/dM33tDBqGeWrNByqGYywFtQAaiAGgUgHMqJ01rbt+Xz03qvLI11KQDWt7MKCLjcJ8WUVE9SyNym3V8NR9gr2YsYbi8lw0WDIXNpF0L4L6rEiPnCtQMAbt68efr06UlsOaTT6X5+fmw2Ozs7283Nrby8XG7uWfCUj4C/FBotfIWqJal/KCQ3Us1kMgUAIAgim04cDufRo0dEIvHYsWNHjx6Ni4vz8fFZtWrV6tWrDx48OHK83FDL4S1oOVQ3f3Hqbpr33sjISGxcdGxcdPvLFxSKNaKd4a0qryiLjYtOOBJvXmmtvTa94XD69OkfffDHqqzLvEcvR4/6l7z6dl7D6HEgMOSXb75pFuLToRIIh9Y+I2H7oALWqgCEQ7mR4TD4Oxfr6bDUb15qZ6PVbDiU65jU305L/f3lzs7kEy7kE2uG4/6PFPkVKcKeFPX1SPy/KUnryCfXMW8nIhyGRRbI0en07du3y97mFZtv61cAANu2bWMwGACAFy9eBAQEJCQk0Gg0a+jXQ7Lw3bwRVVBntOv55GPPOUaMeYj1BgwAYDKZPT09zc3NT58+ffz4cW5ubmBgoLOzs5ubW2Bg4I4dO7Zt27Z///6CgoKenh4mk1lYWFhcXIyIEF7+M4P2HK4gCu68tMi3xuKTxxYth8MoHLa1t5LJw5PyuFteCuFQ8buhNxzOeG3G3z//qjWvglfdwavu4Fd38GsmHKfDDv565n/owG1myWp+OAQAUCiU2traCsynpqaGxWIpDge8YqMKiESitrY2zAhLki9evLDR7sBmK1UAwqGiLC8fD/h8kqyH8fDU1pvWzDYsFsvDw8PJyWmwvx/wWAh9SETpFY10iyh9CJ0E+FxTuyRVlBp7hcvlent7W3mwB2yDdU0DANLS0oqLi9EHmUxmamqql5dXY2OjZacNEIvPdnDfKzC55fDdAvI/SqmGwCEi/ciUHxoaKiwsDA8P9/PzCwgI8Pb2XrFihaOj4+bNm8+dO9fU1NTe3t7X1zcyMsJisUQikZzOozs/gVj4bIjhRNTfW+lyovBxv6xVUyphe3BIo9NQOIw5QJisB9rBY4lHptRc1NhZveHwJzNeX/P3pd35tfzyLqXH5Zj0t9/6T7MQnw6VmB8OEQS5c+fO3//+9//BfOzt7VtaWjSODsxgKwowmcy9e/diRliSDAkJsZX2w3ZqowCEQ6UqEaMq8J/p5pYm6KvM/pcUpaVZycUHDx4EBARERUU9ffrUSpqEbYZQKNyxY8ejR4+wFydZuqqqKigoSNYpBEEqKip8fHwyMzPZbLYcusiymTqBiMUhDSyjmQfVQ2beCEeTTxqsPVAkEvX09FRVVRUWFl66dCk3Nzc6OtrDw8PZ2Xnr1q1HjhxJTk5OTU29dOnSo0ePyGQyj8dDfZBi15RqFBAZYDDX5eoNh/QlmYDO1VjLpMxge3CIIKLEk0dRfJrE/z1wcP+t2zcm5ZzTu1P6w+HrP9no6NJ/6bHg9ivJUTLxuP2q4nD+737zWx24zSxZdYJDDoezf//+UMwnOjr67t27OgXmEolEV69e/cMf/oDt329/+9snT57oPWpT58GqqqqIiAjMCIQeP358aGjI2hSg0+k+Pj7YIcbhcJ6entbWTtgeQxSAcKhUPUQEopwuamk8xM9P2/ZlBumVVawPVNod9CIAAI/Hj7rvV5PPcreOHTuWmppqufpNXvPLly+XLl3KYDCwNQkEgvDwcGdn5+7ubovwIRCLV1XSzQOH71wcaaRO2MsKABCJRBwOh8lk0ul0KpXa1NR0+PDhDRs2LF++fN26dW5ubs7OzuvWrSMQCNXV1WQymcPhoE8ZbTIjgLX1mt5wyIm9ix3QKZW2PThEA9o2PW28fqOoqPjapDxu3r7R29sjFlveNbBVfRkMgUNvx3UD5xv513uUHEU9Tcnl7//XO3KvyxY/1QkOqVTqrFmz3sR83nnnnZiYGJ1WhEI4NGTCJyYm/ud//idmBN6cP39+c3OzIWWa4lkIh6ZQ1drKhHCoakT4HOGFuKpNc05pjGwRteJiZyPJkMVyqtpg3OtoKHaL4IeWHbl169aePXtEognwoOWzNpGNw+E4OzsrWm6FQmFNTc2mTZsSExN1+qHWKL1GgPgfpTQzwWHeyK0hSRiJx48fZ2VlHTx4MCYmZv/+/b6+vsuXL3d1dY2Kirp27VpJScm9e/eePHnS29vLZrOFQiFqTsQaFY3Sd1khoi6aftsOme4XAYsvK2eqJWwSDqfaIMH+ogroD4czXl/99dLujHpBYe/ocblXgDl6Mxv++N+zLE6Dcg3QCQ4pFMrbb7+NLeGtt96KiIhgMnWIzQXh0JDvWkJCws9+9jPsEHz44YeNjY2GlGmKZyEcmkJVaysTwqG6EQHgaWX3QbdC//mp/vPT/BekjdsSF6T5/CU55P+Ip3eW8jhmcsCorqla3Lt06VJ8fLzRjC1a1Khrlp6eHh8fHzabreuDRs8PxFIMMcEv73v27CkuLlZEdADA0NBQaGhoSEhIW1ubYgaj91FWIALEX96kmgcO3yugLNmTEBQUtHfv3pCQkNjY2IsXL7a3t9PpdIFAElRTp+Wgsi4YJcFNrdXZeLgsm3eh0QTTxCgdMkchEA7NoTKswygK6A2HM6a/Zv+nzxqOlgry+pQelOwXn/7+z9OnT8e+2Vs8DeHQKNPGbIVAODSb1LAijQpAONQokUgoGuljVBe07Pzb2XXvHV3z34d9PklO3XH71TMSh2EzFgMEQUJDQ69cuaKxvxbMAADw8vIik8mWawMA0jd9vojNEdBEiGR8jYvT5eXlR44cUVWmSCS6c+eOk5PT5cuXzSYCAsR/KzGf5bCgk8HhcBTdw5itvyor4omYXgU6xLRwyuaeuC/WtIVSZXWT4gaEw0kxjFOjE3rD4bRp0/77V29fDc0WXOwToseFsYT0lH3ules3Kz/74NNPfz8HPT75/Zw5v5/z8aw5f/rgL3/84C8f/GHOf783+z/+0+6nb/5imrkYEsKhbc1rCIe2NV6Tu7UQDrUcX4klB4gRBCBSl4foqZbPWkM2BoOxcePG7u5ua2iMqjYAAOLj4xsaGsxpN5M1hi9i1w4U5LfuO1G/7mS9a1KDm/S/7lfbDjQO3TBWk/h8/ubNm9WX1t3dHRkZGRYW9urVK/U5ZY03JAHE4mUV5tpzeGnkPtmKLe18EedgBWPpWQ0mRCciY+lZ7ulawLXivhgyJ7R+FsKh1lLBjJZWQG84xOFwb70589y2ZMGFXmFunzC3X+4Q5PbWHSgpCy8o3ZtXujevJDyvOCKvMDL/fFT+6ZjLxw4U7j9UuOPgJa/orNURyf8MjPncdfMf/7Hsvz7+9Ce/MGEADAiHlp5xutUP4VA3vWBuUyoA4dCU6lpR2b29vT4+PmYgDUP6DAC4devWqVOnzN9OGm8w9cnGUw3rlR5JDesvtISyBFRDeoc+CwDYsmULhaLBsS0A4Pz58+7u7vfu3UPXWxpetaoSgFgcUMs0z7LSdy6NjPCt200GEPNvvmCuv6h6C2I2w/WCoOrVVF5NKptLEA5lUsCEtStgEBz+fGbO1mTBeSkZnu8Xqj4E5/t5uf2M3P6hSwPtl4fqi0h3bgxfLhvJrKAcr6bFPqSHPiBvLu/2KGpyPlf+zwTipx7b3v7krz/55VvTpr+GWYk6bfprM157bca0adMwF3VLWj8cikQiFos1MjLS09Pz7NmzmpqaW7dulZSUPHjwoL29fXBwkMlkqlpmg842Ho83MDDQi/mQSCQ0SBGPxyOTyS9fvqyrqystLa2srGxtbR0cHEQdmmEnKwCAw+EMDw+/fPmyvr6+pKSkvLy8paWlv7+fwWCobwBaDoIgbDabTCb39/c/f/784cOHZWVlN2/erK2t7ejoGBgYoNPpGr0paAOHCIJQqdS+vj5Zj/v7+5lMJrodn81mk0ikzs7OBw8elJaW3r1798WLFwMDAzrt1UH7QiKRXr58+ejRo5KSktLS0paWlr6+PrQX+u05FAqFNBqtt7e3ubm5srLy+vXrFRUVLS0tAwMDDAZDqThCoXBwcFDWUzTR19fH4/GwwydLC4VCEokkl59MJmszgrJCYAJVAMLhVJgJAICSkpKUlBTzQ5eu8jY3N3t5een6lIH5SZzO0098khrclZLh2EX3jMYAEqfDwLoAAAcPHiwqKtJYDgCgo6MDj8dHRkby+XzTjR0Qi0+2cswT53B+Edn6XTdJ1ghQOMLqV6yw2/Tv0+mOZ+j/yqB/f4b+f+nsQ/eED3sA22bWk2ucZgZmgHBooIDwcfMpYAgc/sfPZ2ZvTpLAoWosRG8Jzvdzc/vpF/oH8gZbC4dqi0ilN4fzysjp9yhHamjRD+kh9YxtT5j+jUyfJubGx3TXu10/Zt1Z6Lf33c+/feu9P/zy7Xd//c4f3v1wwceLlny66Mf/94e5P/3ZL3WDwrHc1gyHHA7n+fPnV65ciY6OdnNz+/LLLz/88MNZs2a9L/188MEHn3zyydKlSyMiIkpKSkgkkqr3+7q6uuXLlztgPt7e3l1dXW1tbadPn/b09Fy4cOEHH3zw/vvvz5o1a86cOUuWLDl8+HBtbS2dTkcdF7PZ7Pr6+iNHjvx/9s4ELqb1jeMzbch+XfuWi2SJ5NqyR/a1RaSkpFSSrbIW2crOjSLCJaJFQlSKiESL9hWV9pql2Zvlnf+n5n/HMdMy1Uydmd759Mk757zneZ/n+xzT+c27bdy4cdKkSfzKY8aM0dHROXjw4Pv374X1JP+uZbPZhYWFERERZ86csbCwWLRo0fjx43lGhg8fPmrUKA0NjeXLlzs4OISEhBQWFv5/d13+9YiCKOKQTCZfuHBBW1ubH/Hq1asfPXqEx+Pj4uLOnj2rp6c3YcIEngMqKirjx49fsmTJ6dOn4+PjeRoS0WA9RQKBEBsbe/78eQMDAw0Njb/++mvYsGEqKipjxoyZP3++k5NTZGQkb3GI/+6y///byFYWdDo9Ozvb39/f3t5+/vz5Y8eOVVFR4ZkdN27c8uXLnZ2dnz17VlBQgIQDAKiqqjp06BA/Ul5BW1v76dOnNBpNwHsmkxkdHb1hwwZ+fS0trRUrVnh5eTVrxV0Bsx32LRSHHSH1AAAXF5f2Gq7ZLMLl5eWGhoZtubUPgV58LdHkPwVYf88h/2xAljOLU/+XVqKHGRAQ4OLiIqLYY7FYPj4+69evf/funYiXiO4Jv+br0pqhQbg26Dw88JWC7n5DPpK6fQA4gMvkABIDEOmAXMNlc7gcqXEfEYkEi1AcShAuNC1eAq0Rh927dPO2usB8KJI4pD4qwfuXFgWVZYRUxIZWhoVXPXqDuxFDOPep+mg8yfEr2T6FbJ1GsUinmKdRzJMp5gnEzZH5enff6xzxWmDnvnK/l9mFV3tuJh24nmR9JGDqHP2W6UPUisPCwsKrV6+uXbtWVVW1d+/eXbp0kZeXF+gjlZOT69y58x9//DF58uT9+/cnJCTU+/cvKipq1KhR8ojXvHnzbt++bWJiMnz4cGVlZeQqQVgstlOnTv3799fR0bl27RqRSCwrK7t169bSpUv79evXpUsXZGUMBqOoqNizZ8+ZM2eeO3eutLRU2IHi4uJHjx6ZmJioq6v36dOna9euioqKwoEoKSn16NFj9OjRFhYWoaGhwsKGd5+LIg6JROKePXt69erFj3jo0KH79+93c3ObN29e3759O3XqhHQAi8UqKSn98ccfc+bM8fDwKC0tbeT/VGFh4alTp+bOnduvX7/OnTsj7WAwGAUFhV69es2YMePQoUPGxsYiisPKysrbt2/r6uqqqKh07dpVQeG3znBeRnr16qWmprZ169ZXr14hhRyNRnv58qWamho/WHl5eSUlpWXLlsXHxwt0NiYnJ69du1ZZWZlfuVu3biYmJgkJCQI1GyEAT/EJQHHIRyHDBRqNZmxsXFRUhP4YmUymubl5XFxcm7ka/v0qX/uJUoj64dlK39LS0szNzZGfgY0bBAAQCARzc/N9+/Y1NJ6icQtNnq1mgkGPqyQtDoc9wX2sYEJ11WQ6pKgCFIdSlKyO7mprxKFyJ+Wj6x1FEYc1j0rIj0urAkrzg8uTn1e8e1X57HXV/Wi8xwfi6c/VhxJJu/9ThlvSKabpFNNUypZkytZEsuUnovXbih1hJXtelh18WeX6Au8WjDv7qMzRPWq8xkK53wadCjyZ1/8WteIwODh44sSJAjKm/hgwGHl5+T/++MPExCQ7O1v4Do6MjPzrr7+Q144YMWLKlCk9e/YU0Db8OjxBoq6ufvny5bNnz44bN65Tp078s8IFeXn5AQMGnDlzRnhXjzdv3mhra3fu3FlAVQobwWAwWCy2e/fu2tra0dHRwjqTy+WKKA537drVvfuvzmRlZeWJEycOHTpUQUGh3nZ5B+Xl5UeOHOnl5dXQZlkFBQVOTk6DBg1q3I6iomL//v1VVVUF2qq355BEIrm5uU2cOFFYagpcLicn161btwULFgQHB/Mn0gAAqqurb9++jYy3dgJwr14ODg7IJ9ri4mJHR8fevXsjzU6dOjUkJKQhKS58L8EjSAJQHCJpyGo5ISFh27Zt0vJ/xN3d3d/fv94PT7EniFRT4ZXY+GhSwb7E2ym2lJomZgw27ieDwTA1NUV+sjVen3eWQCDcvn3b3t6+ob8sohhpqA7gch2SyEMk3Hmo8RxfweA05AM8Lo0EoDiUxqx1UJ9bIw4VFRRX/b2k+t9vjQ8rrR1T6ldC9C8tDSzLeVr+ObQyIrwq4A3uVgz+wieiSwLJIZlsk0axyKCYZlKNM6mbMqib0qmbUynmX8nbEsjWn8g7Y6r3viUeiCC4hBJOhuDPBuEuPqowt7uh3LUX8sFXlDJqxWFWVpa6urqAoMJisXJ1r3pFXZcuXezt7YW/UhUWh/Ly8gKW62UlLy/fv3//oUOH1ntW+OCoUaNCQkKQ4x65XG5hYeH69esF1FTjgSgpKS1fvrzeNdlbJg6FXW3kiJqaWr07ZRUWFgqLq0bsCJ8SFodEIvHUqVMqKioC6ZCTk1OoewlnSl5eXktLCzlKCgDAYDD27t0rL4+ckYsZMmTIzZs3eV+WU6nUW7duCaRyyJAhXl5eJBKpg37YtTpsKA5bjRDtBgAADx8+PH36NNod/c+/mJgYd3f3thGHH4t8RektFKhTQs76z9mW/AsAcHV1TU5Obm6MAIDExERzc3Nvb2+xf+hRWUAtRJIjS4NwrinSM6a0JYntiNdAcdgRsy6lMbdGHGKx2CF9Br485Ne4OKzxK6E8Lq0MKC14Upb6rOLdq6qQSNy9uqVoTn4h7f9KtkulbMugmGZRjbJpG7JpG7KoGzOoxmkU05TazsPtn8k7PpJ2v6t2jCIcCSMcf17beXghoOqUZ9qgwar1qibhx3T+EdSKQxaLdfjw4V69auVup06dBg4cOG7cuLlz565evXrFihVaWlojRowQ2A4ei8WqqKjcv39f4K+msDjkh6+kpNSnT59hda/evXsrKSnxTwkXeP2Tw4YNGz58+J9//ilcWVFR0dLSsrKyEnnzs9lsX1/f0aNH83oj+/XrN2bMGC0trZUrV65atWrOnDl//fVXt27dBBLXu3fvK1euCM+ibKU4xGKxXbp0GTBggErdq0+fPgKCClPXDevk5CSwPg2NRvPx8RkxYoQAFnl5+T59+owePXrChAm8iZQ9evQQiIV/iYA4pNPpd+7cGTt2LFIZKigoDB8+fPny5dbW1nv37t26dau2tvbgwYORfnbq1MnAwCA3NxfJOSsra/ny5UgRLicnN3ny5Pfv31Op1ODg4JkzZyLP/vnnn05OTs39Ah7ZIixDcSjz9wBPisTGxkpLpHQ6vcnNHsQSC+CCx5mHBYRfk289E00TSp+2xoFWrg+Ex+OvXbu2bdu2jIwMgT+UrfKKy7X/QpbcsjQzXhGoLDiktDUpQuO1UByiMSvQp3oJtEYcYjCYrp2UXQz2NSIOeUvREB+XlgSV5Tyt+BxaGRZR5fe2drahe1ztgNJdqWTLWmVIM8qhGebS1ufS1ufQNmRSjdKpJmkUs2TKtniyzSeyfUz1vrfEQxGEY6H4U0/x5wKrLj8oG6e+QE6+sXGD/Md0fgG14pDL5X769ElbW3vixImmpqY3btyIjo5OS0vLqXt9/fr1wYMH69ev56lHfjiKioobNmwgEonI5DYkDvv166enp3fq1Ck/P78HDx64uLjo6OgIjE7kWcZisb1799bR0XF1dX3w4MGjR49Onz6tq6sroE4xGIympubHjx8FRF15ebmZmZmGhoaRkdGFCxciIyOTk5N5gaSnp4eEhFhYWAwcOBCpqRQUFKZNm1ZRUYEMpMXDSnlR8EaNbt261cPDIzAwMCAg4MSJEwsXLhQOefDgwXl5efxHBwBAZmamgYFB586d+agxGEz37t1nzZrl6uoaHh6emJiYkJDw4sULBweHcePGIbUc/xIBcfjly5eVK1cix+sqKirOmjXL29s7JSWlqKiotLS0oKAgPj7e3d1dTU2NbweDwfTp08fZ2Rk5UZDJZIaEhIwfPx6JUVFRceXKlY8ePVq3bl23bt34FpSVlY2MjDIzMwUyJUAbvm2cABSHjfORgbMAABsbG/4obvRHBADYuXNnGwyCZXOY99P2NKkGhSqYvi242UqMhYWF1tbW/M/n5lrjycsdO3Y8ePBAjF2IJTTO5Od4icw8DMQ9zGdIwTqlzc1Eh68PxWGHvwWkB0ArxaGyUue9q6wbEYe13YaPSir9S388qZ1tGB1W+aR2kVLCxdjqowmkvcnk7emULVk0o1z6+jy6/je6fh7dIJdumEWr7TxM53UeUnidh3uiifsjiS4vCSee1Y4svfy4ctosfQWFxvq++A/H/AKaxSEej3/48OHjx4+/f/9OoVCQSgAAQKVSY2Jili1bxo+FV5g+fXp6ejryjqtXHCooKFhbWyclJREIBDqdTqPRKioqnj17NnfuXAGDGAymS5cu+vr67969w+PxNBqNTqfj8fjPnz+vWLFCoHLfvn0fP36MdJW33ml4eLifn192dnZ1dTWLxUL+XWcwGLxZPQJSc8CAAZ8+fUIG0hpxKCcnN3z48HPnzhUUFJBIJAaDQafTcTjcu3fvFi1ahOy7w2AwcnJyT58+5T8RMpnMBw8eqKr+1i+toKCwaNGikJCQyspKZM3i4mIPDw+BSZ48SkhxWFNT888///Tv3x+p5SZPnhwQEEAkEpGajcPh/Pz58+TJk3379uXTxmKx06ZN+/HjB5IPiUQ6efKksrIyvxoGg+ncufO0adN69+7Nb6hTp05z5859+vSpwABgpClYFoUAFIeiUJLqOuXl5QcPHkR+XqE8HADAmTNn3r9/L2k/68ThXiHtJzjJUKiC6duCW630jUgkmpqaNr5yWJNNUKnUnTt3WllZCfw9avLCRip8qGCqBIt/cOnGmGrYadgIduk9BcWh9Oauw3kuUXHI9CuhPSrBP/7/IqWfXla+jKjyja7d2/DEF5LTV7JtGsU8k7oph/Z/ZfifODTIoW/IohplUDenUcy+UixrOw9Ju99XO0URj4QRXJ/j3YNxFwMq/56lJ6+giHwybrKMZnEIAGDXvRp6NKFSqZ6ensixghgMZvTo0S9f2ixJ+QAAIABJREFUvkTeuPWKwwkTJgivZkkikc6dO9e1a1ckNzk5OXV1deHJhEwm8+3bt3/++SeysoKCwtWrV/liie9G44EwGIw3b94MGTIEaapnz5537tzhW+AVWjystFevXo6OjgJ9qlwul8Ph3L9/X7jz8MqVK3Q6ndcomUy2sbERWMplzJgxfn5+AjKYV7+iosLNzQ0ZC6+MFIelpaWmpqbIobldu3Y9fvx4vV/5AwCys7P19fWRNgcOHOjr6yvAp7i4WLiHEyl9sVisqqrqjRs3hFEImIJvmyQAxWGTiKS9go+Pj/BAfTQHBQDw9/d3d3eXtJOAC/yzXIS0XxPi0DNpc3L5q7qNDlruIIvF2rt3b3h4eMtN1F3JZrNfv36tq6srrhSzAPdKFm1IoDhXLl0WSaTAAaWtzDRaL4fiEK2ZgX4JEWilOOys2Ml68ZZ6ew5rN773KyE9LikLLMsNrvgSWvk6rMr/Dc4rhnC6bmPDHalkQWX4DdF5mE3bmFm7Ms2WFMrWBPL2OLLdh7qRpeGEYy/wp5/iTt79pjJyMhb725ocyIfpestoFoe85DCZTDKZjMPhysrKvn37xhuNyfudnZ3t7e0tIFqGDh3q5+eHTGy94vDw4cPCK74AAEJDQwWW2ezcuTNvX0SkTV65vLxcuKfRzc2tXoXDZrMpFAqBQCgpKcnLyxMIJCwsbMyYMcgcdevW7cKFCwKNtkwcYrHYMWPGxMfHC1jjvS0tLR00aBCyaQwG4+zszJ92iMPhFixYgBRyXbp0MTc3b2g/MTab/e3bt5EjRwrYRIrD9PT0mTNnIkefDhs27PLly0gsyHJycvL+/fsVFX9999G1a9d69/tKT08X8BbpRs+ePV1dXYuKipCdk/VigQebJADFYZOIpLoCm83eunVrTEyMdEXx6dMnMzMz4W/oxB5FQulTz6TmrVZ6Pcm8nPKt9Z74+Ph4eno29LWp6PYBAGQy+fDhw7t3787Pzxf9wkZqnkihDBbTyqXzwghVNbDXsBHY0n0KikPpzl+H8r6V4lBRXnG55iLq/QJhfVjjV0J9VFLlX1rwpDzlWUX0q8qnkbjb7wnnP1UfrptquC2DapJNM+SNJuXJwrrfenUjS2tnHmbVzjysXbY0iWJVtyzN3mjigdcE5+dVzg++G9l7dlHuiXwOFqWMZnHIYrEKCgpevnx56tQpCwuLtWvXLl68eNHvL01NTYGJcAMHDhTocBMWh1gsFrkdAvIO//jx44wZM5DounXr5ubmJrwIKpfLJRKJmzdvRlbGYDDHjx/nyyqeZQ6HU15eHh0dffHixR07dujq6uro6PwexyItLa0ePXogTYlRHCopKS1cuFBYDPPcY7FYEydORDaNwWAcHBz4IRcWFk6YMIE/LBODwfTt2/fEiRP8CkiAvDKRSDQxMRGwiRSHcXFxw4YNQ9rs3r27hoaGABbk2/HjxyPFpKKi4rZt2wRQ8wbxvnr1avLkycjKPE+UlZVNTEzgVEPhfLXsCBSHLeMmLVeVlZXp6uqWlJRIi8M8PysqKtavX19WViZpt5kc+vUks2Z1Ht5J3UFniWF55MzMzP3797deHPIQ1dTUREZGmpqaBgUFtd4mk8P1L6APCWpt/+HsMDweKkNJ38Ttah+Kw3bFDxtvDoFWikMsFjt64MgvbhEC4pA3oJTgX1ocVJYVUvEptDL09f8HlLrGk/Ykk7dnUEyzaRty6QZC4vDXzMPs2pmHJmlUs6+1y9LYfiLteUc88Jq4+37GElPngSoTsHJyAo/jTb5FrThksVixsbEODg5Tp06td/f5hkIbMGCAj48PMuf1isOGtnv6/PnznDlzkMZ79Ojh6elZb0cTiUSysrJCVhYWh2w2Ozs7293dfd68eYMGDerWrZuwaBGwwHsrRnHYtWtXPT29htYeAABMnz5dwAekOMzMzBToTR08ePCVK1fq7SDlkadQKIcPHxawiRSHMTExf/zxh0CFZr2Vl5fftGlTvYqXQqEcOXJEYA4nBoMZMWJEUFCQhHaCRt5yHaQMxaFsJzopKcnCwqLejz40B87hcCwsLDIyMtrAyZif90QXh56JJl/LX4jFKzabvX379tYLOb4zAIDc3NyDBw+6ubm1fg1nwOW+KK5ZHEls2fo0w4JwZzPg6qT85MhsAYpDmU2t7AXWSnGIwWC6de66bdFm/O0cvj7krVBaXbtCaXlucHn8i9qNDf3e4j0/EE99qXb8SrZOo2zJom7MRUw1RPQc6n+j8zsPa0eWplG3JFMsEnjTDokHIolbzof2G67WAmWIwWDQKQ4BAAkJCStXruzdu7eIUoqvK0QUhw2NlapXHN64caPeW10UcZidnW1raztgwACBuZF8hxsqiFccGhgYtFgcpqenC4jDIUOGeHh4NCIOyWTywYMHBUKThDjE4+vZURqPxzs4OAh0KWMwmJ49e7q7u8PZhvXezC04CMVhC6BJyyUAgICAAOFpvVLhv6enZ0REhBi1U0NR09kUr8Qm5hny1eOLvHOtnG3IdwMAcOzYMXENBOWb5W28ZGBgILzmNr+O6AUGh7sniTL6SdUQEUeZBuH+eopbGIYvo3PgWFLROUtvTSgOpTd3Hc7z1otDDAbTr8efd2z/odzLZ/mV8KYakh+XVgSWfQ8u//q84m1YVVAU/mYM8Vzd3hV2qRQzgUVofleGtT2HdSvTrM+hbczii0OKdd2aNAciiZtOB/XoOxiDxQo8i4vyFp3isKqqyszMDLlKChaL7dmz56RJk5YtW7YW8Zo7dy5yiwIMBoMqcUgikY4ePdq/f39kLjp37qympqajo7NmzRp+KAsXLhRY2wY94vDHjx8Cw0r79Onj4uJCJpMb+oDA4XCGhobIqDEYDFIcfv78WUVFBTmstFu3btOnT+cDabKgq6t7+fJl/qo5fE/YbPatW7cGDBiANM73ZMyYMUFBQY3IWr4dWGiSABSHTSKS3goAgIMHD5aWlraBxBIvJQDA169fz5492zaek2oqmtzTwjPJ9HHmIQoTJ65IedL92rVrYo8RAJCenu7k5HT8+HEcDtdK+4DL/UHh+H6jz40gDHpc+f+NEINwtXKR9/MENzQYNzigatSTqkuZtM9VTCbUheK6S1BvB4pD1KcIOvgfAbGIQywWO330lHBnf/K9H4z/9q4oeFKe+qwi5mXls9e4u+/wF2OrjyWQ9qaQLTOpJjn1TDX8vybkC8U8ukHdtMPaNWmSKRaJ5Fpx+K6251DGxCEAICIiYvTo0fwHegwG079//71794aFheXk5BQiXv7+/ioqKsiaqBKH8fHxCxYsQLqnrKxsYGAQFBSUkZFRUFDAD+Xjx48Ca9ugRxzi8fhFixYhNyRUUlIyMjIqLi7+7//Nb/8ymcyUlJRhw4YhAxcQh8IL0vTq1cvZ2Tk3N5fPpMmCcLchi8V69erV2LFjkSuUIt2Ql5dfsWJFTEwMHFz6W85a9AaKwxZhk46LaDSapaWl8JcvUuE9kUhszU6AzYoRAFCG+/kozdkzsf7Faby/bo3Mv84GzGaZbbJyXFyciYlJvetFN3ltkxVoNNr58+dtbW2Tk5Nbv+UPqOswLaNzbn6jb4slbXhL1I+q/TF8QzR+V300lZpJYjE4XLiTYZN5kbEKUBzKWEJlORyxiEMMBiMvJzdLbfrD3d4V975VPi4pfFKeHlLxMbQyNALnG433+Eg8/oXkmEy2TqeYZlNrpxryRWBDBQFxWDestG7OIWGze0jvgSoy03MIAPD09BToRpszZ47wzhM8GTl8+HDk0z+qxOGzZ88Edm8fPXp0QECAwJ9bAEBeXp6AjESPOCSRSNbW1gJTBMeNG+fn5ye8Jg1/W0JkUnhlZM9hWVmZubk5UnDKycmtWbMmPj6+pqam3o8YNpuNx+PJZHJDX2ZzOJyvX78uWLAAOYJXXl5eWVkZqRX/+OMPOzu77OzshuzU2zo8KEwAikNhJjJz5OPHjwcOHJCQ9pA0JZ6ybYOldAAAmZmZZmZmZAqZQC95kXfuwme9qwmbPJM2X00wuvTF4G3BDXJNFeByxB5ySUnJqlWrJBcjACAnJ0dXV/f06dNidB5wuWzAZXFqf9iAC7sJxchW6kxBcSh1Keu4DotLHNbuJI6VG/bnEEeDva8vR6cFl30KrXwVgfN7g/eMIZ7+XL0/ibwjjWKeRTXKodW/CA1CJerl0fVz6bxhpcbpVLPk2gVpdnwk7Y0mHowgWF6OHDR6Mhbb7NVoWj/nsGfPnk5OTj9//sSL8KJQKLytC589eyawz0H//v2Tk5N5tx0AwM3NDTmmFIPB6Ovr5+TkCNyXFArl4sWLSIGBtmGlDx48GDp0KFImTZ48OSoqSiAQGo324sULga429IhDJpN57969MWPGIAdqKioqLliwICAgoLKykq91mUzmjx8/zp07J9CdKywOa2pqrly50q9fP6TN7t27m5mZxcXFCShADodTXV0dHR197NixmzdvEggEAYC8t0VFRVZWVgL3w4QJEwwNDZENYbHYwYMHnzhxorq6ul478KCIBKA4FBGU1FUDAFy6dOnWrdZu195egbPZ7CNHjrx69UrSDkRERKxfv57/tRcAgMmhU5h4MrOKyiKwOTWSkz9sNtvY2LihDYrEFTiJRPLy8rKxsYmNjYXfpomLKrTDIwDFIbwTpIaAGMUh74FYUV5xzt+LnvumhYVXPX6LvxFDOFM71ZC8M5VikUkxzm5wERrksFLkgjQmaRSzrxSrL7X7HDq8ITqHEfbcSho7Y7mcfPN2OOS518o5h506dZo3b97+/fuPNPU6fvw4b/cINpvdpDj08PDo06cPUlNpaGhERETwp4rxdmd6/vy5cL5Q1XMYGBg4atQoZCD9+/f38PBAbsBAo9EiIiJ0dHSQm/jVrmwkvn0Ou3bt2poFabhcbm5u7saNGwXW/5STkxs3bpyzs3N4eHhS3evJkyfm5uZIJYaMnf8Ixfs4SE5OXrt2LXL7RAwGo6iouGTJkqtXr378+DE9PT07OzsjI+Pt27eHDx8eOXKkkpKSqqqqr6+v8KBQBoNx7tw5gQmovXv3DggIyMvLMzIy6tq1K98ZLBarpqb28OHDhnoppeYDq10dheKwXfFLsHEGg2Fvb5+YmCjBNiRs+ubNm5cvX5a0nnn9+rWpqempU6ck3VC9tG7cuCGWzSfqNc4/CAD48uWLmZnZnTt3kH+5+BVgARJoGQEoDlvGDV7VDgSExQb/gbLFBfUJM+7dT/aPxN18T7j4qdolgbwnhWKZQdmcRd2QS2tsQGkeTTebtC4dzxeHRhlUk1TK1iSK9WfyrphqpyiiyyvCsYDiuWtsFRQ7tcDDVopD0Vvs1q2blZUVjUZrUhxyudzXr18LaColJaXly5dfvnz55cuXUVFRgYGBhw4dUldXF17LFFXiMD4+ft68ecjOMQwGo6GhcebMmRcvXkRFRb18+dLNzW369OkCGglt4pBGo/3777/jxo0TiAWDwWCx2B49eowcOXLEiBHCUSDvEAFxyOVynz9/PmHCBOSYT159RUXFAQMGaGhozJo1S0ND448//uC3Ky8vr6Gh8erVK+TTGAAgLCxMXV0d2VzPnj13795dXl7OZrMjIiLmz58v4N68efNiYmLaYLPsdvgga5MmoThsE8zt0AiRSLSwsJDqr06+fPni4ODAH9QgCYhVVVXbtm0rLCwUHl0vieaEbRYUFLi6uiI/CYXriOtIVVXV2bNnd+3a9e3bN3HZhHY6OAEoDjv4DSBN4UtCHI5Vn3H1UcrNd/jzsdXH4kn7ksnb0ymmWdT1qfhlkakrPuStTa3SzSbp5VL1cqm62eS1afhVXwoXhyXOvvNs8smrUy/erhtTSt+QRePtY8Hf5PDga4LrC7xbUOXi9U6KSp2RT8YiltEpDisrK/X19QUe5XkiRFVVddKkSYMGDeKdla97IYNFlTisrq52dHTs3bs3X9vwXFVWVh4xYsSkSZP++usvXnecnJycgNBFVc8hl8stKio6fPjwoEGDhLUckj+/jJz4xzsoLA5pNNq1a9dUVVUFYucbqbfQvXt3CwsL/nfYHA6npKRkyZIlyMqdOnXS1dWNj4/nPTmRSKTr16+PGjUKmYjOnTtbWVnl5ua2zdOVNH0OiuYrFIeicZKyWgCArKwsV1dXKfP7d3epVKqlpSV/sMnvJ8Xwjk6nOzo6+vr6tuOnB4fDsbKykqgARpLicDgRERFmZmaPHz9us0aRDsCyjBGA4lDGEirL4UhCHKpOnHk6MPV8LPFoPNkhmWyTXrt3hVEObcXbTBX9zf3nLR62zugvY6tRW+1Hb7UfabJ9uJ7JwEUr/9CcrjxkeKc/+48ytTHIpRtm03jdhuZJlO2fyfYfqh3fEI+EEU49w5/zr1hq4ChL4pDL5UZHR8+cObNTp07Ip3nk0z9vCKKamprABu6oEodcLvfr16+GhoY9e/ZsJBAFBYX+/ftraWkhA0SbOOTpw2PHjo0YMUJgBCzSbV5e+vTpM2fOHIHjwuKQy+VSKBRfX98pU6Z07dq1SdkpJyfXtWvXKVOmPHz4kLeOIgAgPz9/8+bNSC2KxWI1NTUjIiKQay2WlJTY29v36NED6dWgQYNOnTpVWloqyx9qEosNikOJoW1PwwAALy+vly9ftqPsaX38AIC9e/dKblPTly9f2tnZte+CPQAABweHtLS01uMS3QKVSj18+LCxsXF5eblU3yGihwxrSogAFIcSAgvNip+AJMThX5NmHnia5hJfve8r2SaNYl63q6FhHl0n9Etv9b9rH1Wxclh5eayCAlZBsbYg92tpGblOnYeuWm+QRd6QSTVOp5gmUyzjybYfSXuiibxuwzPBuIt+5cv1ZU0cslisN2/eGBgY9OvXD/ncz3uyl5OT69Gjx5w5c7y9vbdv34583EebOGSz2dnZ2ZaWloMHDxboC+WNyezataumpubp06cFdo1HoTjkcrkkEunff/9dunTpn3/+KSwR5eXle/TooaGhce3atYcPHyLzIrCVBfK/LoPBSEpKcnJyGjt2bLdu3YTTXbv8b92io8OGDTM1NX337h1/ziGBQHB1dRXwpHfv3h4eHgLbMPL6Q5YuXYqsLCcnp6qqevfuXaSMRPoGy40QgOKwETjSe4rNZpubm2dlZUlvCFwuFwBw69at8PBwSUSRmppqZmbW0F4+kmixXpsAAA8PDx8fn3rPSu4gg8EICQmxtrYODAyEw/Ilx1nmLUNxKPMplp0AJSEOh6hPtXmStCeJZJNG2ZpJNf5vV8P5AW96jp0o8AAt+BaL7T5SdeGD10bp5M0plK2JZOs48q731U6RBOeXhFMh+Av+VR6+5av1nJSUugheK8L7Zg0rJZFI2tra6i16TZ069ciRI3Q6nc1mR0VFLVu2DGlm/vz5GRkZwrdRWVmZl5fXkiVLVFVVhw8fPrTuNXLkSC0tLVdX1/z8fDwe7+bmhjSlra399OlTpKm4uDiB5tTV1WNjY5F1+OW0tLQtW7YgDc6YMePRo0f8CsgClUp1dXVFVlZXV/f09BQey0ShUB4/fqyvrz927FgVFRVeIH/99dfEiRN37NiRnJxcXV19584dpKkZM2bcv38f2RyXy/X19Z06dSqy2sqVK9PT05HVKBTKmTNnZsyYwa82bdq0nTt3NjQxBgCwadMmfmVe4dy5c/xxm0jjvDIej/f19V2zZo2qqioynOnTpx84cCArK4vJZL59+1bApouLi7Ap5JGMjIwTJ04sXrx43LhxKioqQ+pew4cPHz16tJaWloODQ0REBHIeFIvFioyMXLhwoUBD1tbWDfUYhIeHL1++fCLipaGhsXnz5ry8PKQnsCwKASgORaEkdXV+/PixYcMGHE5sO7a3CwEAQGxs7JEjR8Teu8VisZycnIKDg9slLoFGw8PDHRwc2qUDs7i42NbW9sCBAxUVFQJewbeQgCgEoDgUhRKsgwoCkhCHfUaONbgdZpVSbZZJNc6m8Xc1nOXzpPvIMU0qOKy8wuAFK5Y/er8lodryM9nuA2lfFOFQGP74c/y5INw/fpU37lVs2+bRu9eAJk0JV2iWOGzHDOXn58fGxkZGRkZFRWVkZAirr3b0TfSmmUxmcXHx58+fo6KiIiMjExMTG9Iwottsx5q8cOLi4iLrXomJiWLZHILFYv38+fPLly8Rda+YmJjc3NyGlG07hg+bhuJQJu+BsLAwe3t7Dkf8W/O1Ma6cnJyNGzciv04SiwMX614o4VNaWrp161axfPC2AA6dTn/x4oWJiUlwcLDYRXgL/IGXSBcBKA6lK18d2ltJiMPug4cv+ufh5rTqTTk0Q8R+91PPeSsP+W0Dd2Hxxjui0EVZVXfLxpB024+kvW+Ju4O+7/s33T0Yd/lx1fX7FT53Ktxd343+a0pDlzdyXFrEYYe+KWHwkAAqCUBxiMq0tMopAICnp2dgYGCrrKDjYgKBoK+vL97VNePi4oyMjCS39XxzyQEAbGxsioqKmnuhuOoDANLS0g4cOHD+/PmfP3+Kyyy00xEIQHHYEbIsIzFKQhx2+bP/TLfrGzKqDfPoiN0LaRMcXDv98Wcjyu3XKSy2a99Bi11v27/F74/AbzkfumSz8wmf7Gu+tcrw3q3yO1e+T9NYjsX+mqz469pGS1AcysiNC8OABNqcABSHbY5c4g0CAHbv3k0gECTekuQbAABYW1tHRkaKqykOh2NqalpQUCAug623AwC4ceNGZGRk+3bccTgcLy8vIyOjrKys9vWk9UihhTYjAMVhm6GGDbWWgCTEoVKPXpNdLuplVut/o69OKtXLpeh/o+tmVqus3yKnpNSodvt1UkGp01SjXbufFx0JxW3Y79Pzj4Fr1h/0uvXzX5/yhzfKH/1TNHeqnhxW/tcFopWgOGztHQOvhwQ6KgEoDmUv8zQabefOnTLzfH/37t179+6JJRwmk3nq1KmrV6+KxZoY75z4+Phjx461u1ccDiclJcXCwuLChQtiH8orRlzQFHoIQHGInlxAT5ogIAlxqNCt+6SD7rqZ1Xp5tMkn/ln6Jl0vl6odHPPn31oYLFY0EYeRV1SauNR4n/+3Y09Kl5ocwcrJ9e49wEDv4L/XCgI8y3zP5kwZt6iRzRIaagWKwyZuCHgaEoAEGiAAxWEDYKT48OvXr8+fP9/uSkMsBAEAeXl5Li4uYgknNjbW2tqav06yWDwUi5HCwkITExOU6DEmk/nPP/+YmJgkJiaKBbtYEEEj6CQAxSE68wK9qoeARMRh124TD5zWzSSuSigeutpw9u0Q3czqKe5eysNGNKTZhI/LKyr9vcL8oN/3I3cyVSfNr6uA7d69z+WjMU88yk7YBQzuN1L4qiaPQHFYz00AD0ECkIAIBKA4FAGSNFUBABw8eFBgtWdpCkDIVw6Hs337dqHDzT5QUFBgamqak5PT7CslfwGFQjEzMxNYs1ryzTbYApvNzsjIsLCwuHTpEovFarAePNHhCUBx2OFvAekBIAlxqNS7z+QTHrpZpFm3nvwxZcb0K/fWZRAmu17uItpqNDyBp9Sl2xIzF9dHhZaHHnXp2pOv+k7sCgy5Urpd72S3Lr8O8s82WYDiUHruTegpJIAuAlAcoisfrfaGTCZv2rSp3l2FWm27fQwAABwdHVu5UAoAwMXFRVzDU8UOIi8vb9u2bWZmZlVVVejprKuqqjp37tzOnTuTk5PFHjI0KBsEoDiUjTx2iCgkIQ67qYys7S3MIY8wsuyqMnraxTvr0psnDrFycn2Hjtni/OjE3bzxmjrIwahHrX2fXSq1XHusW5ceTUpB4QpQHHaI2xoGCQlIgAAUhxKA2p4m8/LyNm7cKEvbmvO2iW/N4qsAgICAAHGNTZVEdquqqrZt22ZlZYUeZcgP88uXLxs3brx16xZKRr3yHYMFNBCA4hANWYA+iERg7ty5LZi5Jyy6fh3BYvvOmLv0TfqKj996jFXv3H9gnTjEN6vnUKFTlymLNu278lHf4pxSp66/jGMwJ20fv7hUYqN3qrtyb+RxUcry8vIzZsxAyX5NIqUHVoIEIAHUEIDiEDWpEIMjAID379+7ubmhUGO0JryQkJADBw60OKjs7Gx9ff38/PzW+CDZazngx/fv586eBWwOFwDJttVM6wCAoqKiCxcuODg4ZGZmtjgLzWwWVpcOAlAcSkeeoJdcLnft2rWKioqiKCsR6ygPGa7udHJ1UtkU9+uKvfp0Hf6XltfjdRnEiYfPdh4wSBQjCkqdVMbPNHa8ve2w/6Dh45GXYLHYy3tfhV4s2b7ueAuGlSorK69evRqKQ3jnQwKQQAsIQHHYAmhovuTChQvx8fFo9rAFvmVkZGzZsoVCobTgWgqF4ujoGBUV1YJr2+ASQGexUkqZ73/Qb3zGn46kecTWRH5jJZYAAq0NWhe9CTabHRAQYG1tHR4eTqVSRb8Q1pRtAlAcynZ+ZSo6R0fHHj1aMj4Tqdn4ZTlFpSmnPZfH5CyOSB60eI1S7z6qlnuWvklfl44bvdVeoVt3fs2GClg5uQF/jTc56udyJ3uz/fVuPX7bF7Fntz//dY5/fq7QeMm+zkrKDRlp6HifPn1sbW3hl3kydQfDYCCBtiIAxWFbkW6jdrZt24bH49uosbZqhsFgGBkZtWDaIYfDuXDhwsmTJ9lsdls524x2al5kkYwfkfQfkHTvk/R8//+je5+k70s28qNd/9wMW21StbKy0sLCYteuXXQ6vU0ahI2gnQAUh2jPEPSPT+D+/fsDBgxoSE0197i8cleNYxf/Pus9euvOzv0GDl1tuOh53LpMovaT931nzsfINb1nvZy8fH+VcWvtLm7Y4TF7sVnnLt34PnTp1NVk6b5g9+8PjiXrTDVUkG92h6eKioqHhwcUh/zswwIkAAmITgCKQ9FZob9mTk6Ora2t7D24AwCcnJxSUlKam4Lk5OQdO3bA+IJsAAAgAElEQVRUVFQ090JJ12cXECn7QknrEJqQLw75Bd375K1BzIQiSTvTLPssFuvJkydbtmwJDg6GQ5aahU4mK0NxKJNplc2gEhMTx4wZI65ph1h5eeUhw5SHDFPs2RuDxQ5eum78HucJ+08OWW1Ye0SEFxaLVezctXe/YX/0Hda9x59ycr+2ue/apafBwh0Wq10MF9oN6z8ai21aaiIblJOTmzp16ocPH2QzkTAqSAASkDABKA4lDLhNzfv6+srehEMewcDAQD8/v2Z9DYrD4QwNDVG40iY7u7J67b1fXYV8NVhfoXrNPebb71x0zUPklpaW2tnZHTt2TPa6qdv0f6z0NwbFofTnsMNEgMfjTUxMlJWbPUQTqbsaKsspKskpdZJTVMIiNF5DlZs8LoeVU5RXUpRXUpBXbIGaVVZWNjExKS4u7jC5hYFCApCAOAlAcShOmu1qi81mHzt27OXLl+3qhaQa//79e7PWpAEAnD9//urVq2gbUAroLLJ5AEn3v0Gk9QlCQd240Y+VWyUpsi21S6FQ/Pz8TExM3rx50yzR3tIG4XVoJADFIRqzAn2qlwCTyXzw4IGKikoL5FaTcg49FbBYrIqKire3N42Grpnr9SYFHoQEIAEUEoDiEIVJacSlhlayBIDLYDCsra1ROISykXBEP1VVVWVubs5gMES8JCIiYu/evWjbwB0wWOSdz36bYSiKONTzJRk+BAQ0TvPLzMy0t7e/cOFCVRXq5KuItwqs1hoCUBy2hh68tq0J5OTk6OnpderUCT1aTuyedOrUSVdXNyUlBX5p19a3F2wPEpAVAlAcSkUmAQCAA7iAG3kv5eyWp3vn3N2lddt+us/uWbcPLXtw51BUUS6OQibb2++S1T8HNBrNxsYmLS1NlHwVFBRs2LAhPT1dlMptWYcV95Ok35w+Q4R0ZPinom2XCx46JpN569atDRs2JCQkyOrt15Y3iXS1BcWhdOWro3tbU1Nz+/btkSNHil2SocfgyJEj7969CxeV7uj3OowfEmgFASgOWwGvTS4F3MKMikenP7is8rOZ7G072XvHlJsCP7aa3jYaN+zmejhtPhvlm8pictrEszZtBABw/Phxf3//Jltls9mHDx8OCQlBnVABgHo8SnDIKEL+NX6KvD0YbTMP+blgs9mxsbF79uzx9PQkEon847Ag8wSgOJT5FMtagEVFRYcOHerdW6Q1Y9Aj+UT0pFevXo6OjmVlZbKWNhgPJAAJtCEBKA7bEHbzmgIcUF5QfX1PuPXE67ZT6tGEAhJxR10dW03vXVq3E8K/MRlo3LyheQj+qw3oZDa+6LnfnRd+t5lleWxcIaAS6+1GAwDcvXv30KFDNTU1/12Nln8BndXE8qSNCsXqNf+yv+HQEkx9flCp1EOHDm3fvv3bt29wIdP6CMngMSgOZTCpMh9Sfn6+lZVV7969ZWnyoZycXJ8+fYyNjfPy8mQ+gzBASAASkCgBKA4lirc1xkNvJOyZfWeHpmA/oZAmrKeC3d+3Tm8IrCyqbmiOYmsca7trAWAVpRPuWFdd0q08tbDCdU6F66wK19mVJxdUXViDv2lRk/WuTiL+WsqzqKhoy5Yt6PzalPmliLRG1EVK6+lF1PWl+35tO/gtaonD4SQkJGzevPnSpUtoWwqoRQHBi5ogAMVhE4DgaXQSSE1NXb9+fd++feVE2JBQxF67dqwmJyfXr18/MzOzuLg4dAKHXkECkIAUEYDiEIXJopFrru18ZaNxQxQd2HAd771z736N/IG60ZWiEAegJjsGf8uy3HlaxdGZDf2UO0+ruqxPTw3n9SISCARLS8s3b96I0kLb12E8SW/eIqUCHYn6vlTXyLZ3uwUtlpeXnzlzZv/+/XBNhBbQk65LoDiUrnxBb/9PgM1mf/361c7OTkVFRUFBoR11XeublpOTGzx48O7du1NTU9G2CBu84SABSEAaCUBxiLasUasZu7RuNyz56uknbKhy7VxETe+MmJ9S1n/I4ZBDLzQuC5Fysdx5OuG2NYfJuHnzpoODA2oHNDJ8v7Z4NZrajkR9X6rTK7Tdrg35AwCIjIzU09N7+vQpajPSkPPwuOgEoDgUnRWsiS4CAICioiJPT08tLS0JbX7YeuHXpAVlZWVNTU13d/efP39K5TfB6LopoDeQACRQSwCKQ1TdB2wW54xJsK2mKDMMRVWJtpO9P4fmSos+5FCJxHu7KlxmIOWfCOUZuBvmLvv3onljJ0Zodks2seD3H+r7Ut2jUXW7NunMz58/jx49un///uLiYvjc0iQuaawAxaE0Zg36/IsAg8GIi4vbu3fvtGnTBg4cqKysrKioKC8vj87piFgsVk5OTlFRsUuXLn379p01a5aLi0tubi7sMPyVUViCBCCBVhOA4rDVCMVmgMlgX7J83lA3YIuP22re3K11u6KwWmyOSswQYDGqg1wqjjZXGdaOOy0/OpN42wow0bgZIA8YK7OCtPrfeiYT8uVf44V19xnPMiXGXlKGORxOYGCgsbHxq1evmEympJqBdtuJABSH7QQeNitWAmQy+cOHD15eXra2tosWLZowYcKgQYN69uzZHU2vHj169OvXT01NbdmyZdbW1levXk1OThZ981+xAoPGIAFIQJYJQHGIkuwCAD48yWqxAmz8QlvNm4dXPqQSRd1Bvn2YAEAOu9z8PsPfZiQS7tjUu4pp+0Qk0CobkDb6tVgcVq+5B1CeQYF4/3sLACgtLXWse+FwONiF+B8YWfgXikNZyCKMgUeAxWKVlpYmJSW9efPm2bNnAQEB/ih7PX369PXr1ykpKaWlpfDLNnjfQgKQgIQIQHEoIbDNNYsrIe2dfadxjdfKsxF3ktH8XM4mlle66YgwgvQ3NShY/5hWTW5sc+G3UX0A6Dc+t1gcUg6EoVf3ikCQRqPdvXvX0tIyMjISzfehCKHAKr8IQHH4iwUsQQKQACQACUACMkAAikM0JBEArs+BqFZqvyYv3z7xOqmKioZ46/EBcIj/2gkqvYbXKW2kJt57Kxdw6mkCBYfYWRUtFofMyG8oiKC1LhQXF5uZmTk6OpLJ5NbagtejgAAUhyhIAnQBEoAEIAFIABIQHwEoDsXHsuWWaqhMR+17Taq71ld47P4BnZ02rIrv5UemNCL5RD9V7jyVWYDW/QA5gO4VR1p3v3kSUdeXsj8MMNgtv8PQdGV1dbWfn5+NjU14eDhcyBRNmWmJL1ActoQavAYSgAQgAUgAEkAtASgO2z81gPvuUVqrdzUUafHS43r+gPNry/j2j/0/D2hxjyuOaYmuABuvWR1wBL0jMAGgHgpvljikWAUDcs1/qGThXwBAXFzczp07fXx8KisrGwmpmMb5XMX8UMH8VMnMI7PZgIvG27eRAGT9FBSHsp5hGB8kAAlAApBAByMAxWG7JxwAsGumeDY2bLJr0UbjBr6MjL7na1C3SGmjkwmbMcR0Bu7aJsBCr5oClBrynhcibmtB3vSIU0Fp97tUEg5QKJRz586ZmZkVFBQIdGgDwC2gsldGEsY+xY0Ixg0Prv2t+hQ3L4zwvpIJ9aEk0tEym1ActowbvAoSgAQgAUgAEkApASgO2z0xpd/wlhO8mtR1Yqlgq+kddPFTu4cs6AAA+BvmjXcGNuts1YW1gE4SbAVN7wGNybiXSDJ8SNL3bbAXUfc+7cpHTiVap4mKgycA4P379+bm5t7e3lTq/yNlA65bOnVEMG7Ik3p+hj3B2cSRKxgonVYqDirSZAOKQ2nKFvQVEoAEIAFIABJokgAUh00iknSFuBe5dn+LNChULPpwz5w7Ar00kg6Qbx8AwOFwmEwmg8GgUqkEAsHV1bWkpITBoFddWNMs+dd45Ur3JRwKnt8uSgsAgCoq9XA4afNjkpFfbUfi2nu1vzc8JJs8pux8xv6OQ+/gWLEyZTKZx44ds7a2Li4uruFw7T6ThwTVIwuRWnF1FJHGhj2IYk1Di4xBcdgibPAiSAASgAQgAUgArQSgOGzfzAAAXv+bIhbVJ6IRC7VrdEoLh1yCuheHw+HJS95b/m8ul8tms6uqqnJzc2NjY8PCwoKCgnx8fP75558LFy64ubkdP37cxcXlwIEDe/bssbGx2bJli6Gh4caNG8Nfv646t6Jxvdess5VuOhxyVftmVvTWAYnBzq1iJRaz4gpZ8UXsrEoOnoa+ob+iB9SSmkwmMyYmJiUl5XoOrUllOOQJbugTnP67agDlYUtgi/MaKA7FSRPaggQgAUgAEoAE2p0AFIftmwIAQOCFWBF1nViqbRvnWfmzWiBqXp9eTU1NdXV1eXl5fn5+Tk5Oenp6YmJiXFxcbGzshw8f3r9/HxERERgYeOvWrYsXLx49enTXrl07duzYvn371q1brays7Ozs9u3bt3///oMHDx46dMjZ2fn48eNubm6XLl3y9vZ++PBhSEjIu3fvUlNT8/Lyfv78WVFRcfz48ZSUFMBh464YNEv+NV658uxyDpUgECPa3wJQ20/YgeUOAIBQw5n4HI/sIWysHFQVWcpEe1pl3T8oDmU9wzA+SAASgAQggQ5GAIrD9k044IAHx9+JRfWJaMR6ovcdz4fXr18/ceKEk5OTvb39tm3bTE1NjY2NN27cqK+vv3bt2hV1r9WrV+vp6RkbG+/cudPV1dXT09Pf3z86OjouLi41NfXHjx+VlZUkEonBYNTU1PB+M5lMFovFrntx6l7IfkVh1Gw2b3sGQLhn37jea9bZqiv6oIYm3Bw8gnICZzOoonQb8hWjfTwFTj1s35xCcdi+/GHrkAAkAAlAApCAmAlAcShmoM00BzjAt63F4Y3rl+76+voGBASEhoa+fv363bt3X758SU9P//HjR2lpaWVlJYFAoFAoDAaDvw0dX+NJZr4iIIdfaZb8a7wy/pYll8NqZipg9XYmwALcheEEvvATpTAlFA8HlrZv2qA4bF/+sHVIABKABCABSEDMBKA4FDPQZpoDHBB4/pOInX5iqWY53rOikChhsddMClwuIzWiwkVMW1m4zKREejXbA3hBexPA14C/RR9TylvINLCqBnYdtmvioDhsV/ywcUgAEoAEIAFIQNwEoDgUN9Hm2QOAG34nWSyqT0QjW8dcpZEYzfNS8rUBnVx+ZGrj/YEini13mcGhEiXvMmxBzAQqGECzmeJwsH8VmQX7DsWciGaZg+KwWbhgZUgAEoAEIAFIAO0EoDhs9wzFPc+x+/uWiNKu9dX2zLqNzkVPaJ8DK1xmiKgAG6lGfnWpIy/r0u73c4sdILPAjBfNG1aq8gQH97NoMXCxXAjFoVgwQiOQACQACUACkABaCEBx2O6ZKMrGWU3war3qE8mC5k0/tw/tHnK9DgB2Dc5jQyOqT6RTx2axcUX12ocH0U9g7Vvi0Po2vm9o/uGySCIHdhy2a16hOGxX/LBxSAASgAQgAUhA3ASgOBQ30WbbYzHZO6e3Uc+hjcaNsnwiavfQq8lPal3noRYj822zEwAvQA2B12U1gwNxDUlBgeNDn+AuZtKgNmzf7EFx2L78YeuQACQACUACkICYCUBxKGagLTAHuGE+X20ne4vU9TflZmuquaz247BRvIIHAIz0qIpjs0XqJDz6+wI2LjMob2/CAaUtuAHRcwkA3HXR1QIisKG3I4Kqckm8rVDQE0GH8wSKww6XchgwJAAJQAKQgGwTgOIQDfmlVDP2zb3bGtUnyrV2f9+8fywatd2G/08Eh1Pz7XPF0Rl1P7/LPwE1+PtbWuIzLhtuX4GG27lVPiQTWIP9qxoShPzjw57gYiqYsNuwVazFcTEUh+KgCG1AApAAJAAJQAKoIQDFIRpSwWGDG3sjRBF4raljM9m79DseDfE26QMz/yvBx6rCeXrTXYjO03FXjRgZb7gAxT2iTQYMKyAIRJbVaL7A83WgcGH4E9z1HBqcbYhg1m5FKA7bDT1sGBKABCABSAASkAQBKA4lQbUFNit/VltPutEa7df4tbaa3k89PktmC/sWhCvCJRwOPTWi4uT8iuNzayciIhcyrX07vcJ1TsWJudRPj7hspgjmYBVpIlBI5Wi9IqgE/z7/MAg3LBg3KQQfWwX7DNGSTSgO0ZIJ6AckAAlAApAAJCAWAmfPnsVgMHQ6XSzWoJEWEwAARNz9uuPvVk0pbEQfOi28V42jtdi99rkQAFBDY+Yn0eL8SS/OEm7b4K6bEm5ZkYJPUj/cr/kWB2gkOMmwfVIj+VZpbPC+gnkxk7b5I2l5FNHgffWxVOqr4hp8DRxMKnn6Irdw/vx5DAZDoVAavwLT+Gl4FhKABCABSAASgARQQuDixYsYDIZMJqPEn47sBp1Sc3pjkK2m+Fem2TXzdlacNG/wULszI6gdOMrh1P4GAGrCDvI/BQAuB3DZdb/rboIOErfUhOnu7o7BYBgMRuMeQ3HYOB94FhJALwFQ90Kvf9AzSAASEDcBLy8vDAZTUVEhbsPQXksIMKjMY+seN9IB2IJTNpO93z5KQ/s6NC2hBa+BBCCBdiZw9OhROTm5Jp2A4rBJRLCC7BGo/T4L1M6Gl75vNAHgMlns0nL85+SskKhPAWEfIz5+zcgrJFNp9c9OYcHl4GTvBoYRdVwCDx48wGAwubm5HRcByiIvyq46uvqRraZ4xpfaT/d56Z3IYcOReChLM3QHEpAJArt37+7Vq1eToUBx2CQiWEF2CAAAGBR8VcHH4oyHRZk+FT/uln33ryx6TyWX1mlFVEcKAKioIjyNjDvj8+yoZ8jxW2Gn/33jdi/66M2Ig9eeO18L8Q54k5FbyGLDfYRQnUfoHCTQGgJhYWEYDCY2NrY1RuC14iVAJzNPGAS0Xh/aT/eJvJ8iXt+gNUgAEoAE+AQ2b948atQo/tuGClAcNkQGHpc1AgBwKlM+xZ7cknTNsOiDHTH/IL3yKLncpSzXKS3WIT8njMNBr6yiM2rex2cc8wy+EfLlTXr5l3zS24zSp+/T7z2P9Ql6d/NJ7I2QpHOPPh/yfOUf9olKg4tVyNrdC+OBBHgEkpOTMRhMUFAQBIIqAtTqmieX46w1rrdgHOkOzZu2k70PLPb9kVIOR5OiKq3QGUhAxgjo6OjMnj27yaCgOGwSEawgIwTIRYWvN2tHmcyNObD8lMP8q8eXFCTZEwsPkoqPVHzfHxe9/fPne2wOGgdhUqk0L7/wq0FxP6qoRDrzU1KG+4lz5nob1mjrLNNetGTBwlXaOqbrDF0OHffyi7wc8OWMz4tqUhNLUclIUmEYkEAHI4DD4TAYzKVLlzpY3NIQLuDmxJecNwuxmdyMJWpsJnsfWfEw+Eocqwbu+ycNWYY+QgLSTGDMmDEbN25sMgIoDptEBCvIAgEOhxP9PPiCofZzW23XLdOGD+4/YtjA++dXZsdYV+Q4VuY4ZiXvDHhqnJT2CqDsm9uS8qprfq8j4n9U05jZeT/On3AzWLpyxaLF69at3bjB0Gij4eo1a7QXLZk9d8H82fPXr1zr7Hz6ekD0veC3NNh/KAt3LowBEhAk0KdPHzs7O8Gj8D06CLBZnPJ84tnNT7eN9bSbetNW01twOVPN2oM7/r5pM9nbbtrND4EZDBqr/hnj6IgIegEJQAIyQ0BRUfHw4cNNhgPFYZOIYAWpJwAAeBX2aq3u2hVrVj7x3OR3TXeKusp0zeFZcXaUkiOUcmdC4aFvWbtfRG25eHtTYWkOegLO/VFy8d/wpO+VZDrjbdR7640myxYsMjExPnfW/WXo87S0lNzcnM9xsd7e101Mt8yaq601e/6yBYv22e2+fi848v1nuKYBelIJPYEExEVAS0tLR0dHXNagHYkQANyqYtKXV7lPr3y+fTDq7OZgV93HLqv8ThkGXrN79fDk+yjf1O8p5TV0Vu2mD/AFCUACkIDkCWRlZWEwmHv37jXZFBSHTSKCFaSeQFlZme563VVrVxmbm8a8ssEVHijKcSSUHKkhHKOWO+PzD5Sk7s5OtguOMj1zd+1NfxcOBxXDe3LzSy7ci8jH0Wg1zEC/AP0Fi5YtWXrgwP70tNTar5kRzxQAgOrq6kMH989doDN7rraO1pyDu/fe9wtscp9TqU8tDAAS6HgErKysBgwY0PHilsqIefsNcTiA89/r/1sQQU0olfmETkMCUkzA398fg8EkJiY2GQMUh00ighWkmwCHw7n0z6XFyxdvNDXaZmN57/KGjBiborS9FXlOFbmOxel78j7Y5MbZfPps6fPC8NTdNU6XVsVnRLfv4FIAuD9LKzyDPv6oJJMoVB8Pr3Xaiw30DXx8blVVVTaUDxqN5up6TGfZ6tlzF6ybp33R7eTr1+FwtFJDuOBxSEBKCfC2OszPz5dS/6HbkAAkAAlAAm1PYP/+/YqKiqI8FkJx2PbZgS22KQEWm2W/x37R0kVrDdauW69rabo89Lpe9EOjuKemX1+ap7/elhWzPSF+e2CUsUeQ7sm7qw5eW+7qtYVEJbSpl783Vomvvuz39ls5GYcnel+5umr+QmMj48DAAAajiWVIi4uLDI02LVqyfKHW3B0bN/jd9aLTab/bhu+kiQCHA2g0OpPJlCanoa8SJpCQkIDBYB4+fCjhdqB5SAASgAQgAdkhsGDBglmzZokSDxSHolCCdaSYAJvNtrPfOXfBnDnz5yzQWWC+3eL8gTUB51e+vKEb+2Rz8nurT7GWQVHG3i/0rwStc3+w+uitlfs9lr/8cK+9drZgMlm+Lz5kl1HIFOrta9eXzZhltMnkxYvnogx2BRxw586dTWbbFyxYpD9vwe1/TldVljeUPCqVWlj4s/ZVVJRfUMhg1DRUU5aOAwBqamp+/ixOTPwaEvL8n2ue171vvQh9+fVrCoFAYLPZiOG6v+JmsVhFRUU/i4p//iwuKCik0dpCcpNIJLcz55csX7Nlq1Vqaroo3/b98hiWZJpAr169bG1tZTpEGBwkAAlAApCA2Aiw2WxFRUUnJydRLEJxKAolWEeKCXA4HDd3t0WLF82eO3vO/DnLVi/TXb9ij8O8S5dW+NzRuxe4/s6z9Tee619/oef1TM8jeN05vzUn7qxyvr4qKTua2+YrlwIA3sdnhCcV0muYgfcf6C5YpKtvGBoaymKJ1HcEAEhMjLfc6bh06YrVs+e67rUt+J5bb/IA4D55+kxzmpbG3zMnTZmhMXVmQkKSzMsPBqMm5NkLQyOTSZrT1SZojhmvoTpukuq4SWPGa6hNmKw1V3vnboes7BxhDt+/50+bOXfSlBmTNKf/PX121Ju3wnXq5dzigwCA8xcvj1JTHzlmwig19YWLV7BYaNxnpcUBwgtbQ2DdunVjx45tjQV4LSQACUACkEDHIRAWFobBYEJDQ0UJGYpDUSjBOlJMAACQlp5+2u10RmbG9ZvXD7scdjzssNhYc+MurV2nFrlcX37eb41niN7NlwY+YbU/N1/qX3uqe85v7aVHm3MKv7Tx5EManf4oMhFPpka/eWO2et3ypcv/vXePwWCImAAAwPfv382371y9Tn/dAm27TevTk+PrvRYA7qPHAaPHTuT9jFSd8Cnui6QFT72etNnB7z9+bNpsPma8Bj9q4cIoNfWpM+f8c9WTTPlto8i8vG/jJk7h1R+lph4WHiFpVhwOx2yr1Sg1dV6jEzSmksnkNmMFG0I5gWvXrmEwmMzMTJT7Cd2DBCABSAASQAOBPXv2KCkpiThLBYpDNKQM+iBZAhwOJz29dlQe78Vms49fcVphMcX04Ny9FxefvrfKM0Tv7uv1QXGbX6ZufZW2NSTRLChuS0Cs+b+vt+X8jGVz2qjHBgDw9mP856yCr0lJh6xtF2nNcT56rKZGVGXI5XIBAN++f7fZucdgg7Hh4sVb1qxMT2lwWapHjwP56mjE6PGyLQ4TEpJmzlkw+j+txQ98lJo6X4DxD44cM+H4STekJs9FiMORYyaERbyWtDgEADgfPc7zbZSa+sw5C2pqOsS4X8l+FsiK9R8/fmAwmDNnzshKQDAOSAASgAQgAQkSUFVVXbdunYgNQHEoIihYTeoJAFC7mDgvjCp8ue72OYa7tezcF524s9LrmX5o0raYH7YfC3Z8KrSLLbCL+bHjba5teLr104TtMel3WGyRRnW2khGTyfS48zgpLfPa5ctrtOasW2eQmprSLJsAgKTkFFe3c5ZW1psWL920emX+97yGLPgHBI0eqzF6bG3f1F+qsiwO8QTi/EXLkCJw1Fh1tQkaq9YZ7HHYv3uf05Llq0ePVR+l9v9+1NFjJ45SUz97/hJfASJ7DkeOUQ8Lf13v1MSGULfseFlZub6hseo4Dc2pWiHPQvnOtMwavErGCMyaNUtLS0vGgoLhQAKQACQACYidQGxsLAaDuXPnjoiWoTgUERSsJlMEWGzmfnfrddbTrE9ou/qs8HpmGBK/LSrL5v33HbH5dvFFuz4X2sfk73j3zfZNrs2rVOtXCW5EcoN7SLQeDQCATKXFp2Te9gu8/9Bv3zbLRdNm2u52Ss/+zmDUiK4KOByO/4vXgU+fuzo7r1+gbaK/FldV0ZB7HUQcstnsPfv2I5XhWHXNo8dPZmRm0el0dt2LSqUmp6Rus7JFVpuuNbe0tIxHrx5x2BBWsR6n0+nFJaU4PF70e0Cs7UNj6CVw6dIlDAaTmpqKXhehZ5AAJAAJQAIoILBr1y45OTkSiSSiL1AciggKVpMxAiDk9ePl5lPMD887cmP5hYd6j96Zv0jaHpVlG51r9/77jph8u/c/dsT82PH+h230N9vIbJvgTw7l+B9ip8ABoKwSHxL15dzd0OOe/hc9rjo67TddtWbZPO1NNge3OJw7cvHu208pZIpIy2MWFJd5B0YlpySfOHhw1czZe+2tmQ2PRWy9OAQAUKnUouKirOyctLT0b9++V1ZW1juiHQBAo9Eo1P+/+CMkGQxGcUlJZlZ2enrmz59FNFoTe3VwOBwikZifX5CenllUXEKlUnmqiQMAlUartV73m1Uw8hsAACAASURBVM1m8zOVn18wQWMqf8joWHXNi5c9hBd34a1iarNzF7/mKDX1vY4HeKZ+F4cT6noOawcpk8nk/ILCtPSMvLxvOBye3zXNb12gAACg0+ilpaU5uXmpaem5eXll5eWMmvr1P5PJ5AeFXB+VwWD8B5LGH/taU8MsLS2rTUR6Rn5BIZVKg3pSAL6MvS0rK8NgMCIuPSdjscNwIAFIABKABEQn0LdvX2NjY9HrQ3EoOitYU6YI/CjMW2b2t9G+WU6Xl7jeXO39zDgo1iokYXtEmm1Upk1Ujs2bXJvoPJvoPNu3eTZv82qPhHzZg6suFSMFNpv9Ni7tiNfzNyk/S3HE9x8/7t63z9R0i978BRvWrbPae/TUFZ9LNx7scfU4etm3vKqJrRc5ANwN+RCb+i0xMXGnkbHOrNlvI8Ma8bY14hAAQCKRbvrcXrpizTh1Td44TNVxk9QnT9tqaf3xU5yA+mIwGEYmZjrLVtX9rHQ96cZmsxMSk9ZvMB6rrlk3nlN97ARNXf2NsXGfkdKO7z8AoKoKd/7ilclTZ44ZrzFqjPpYdc1FS1c+eRrCZrO/f89fuUZPZ+lKnWUrtZcs//jxE+9C3sy9kWMm8CWf7Y5djUi4kpJSdYSSnDJdi/dNm7A4ZDAYj/0D5mov5jmjOm6S5rRZp93PNvTNHE8eP/IPXKdvOE5dU3XcpFFq6qrjJo2bOGXDps2hr8Jrft/MEABw0+eOzvJVOstqgzIxs+BhYbFYe/Y5La49Xntqx649NTU1aekZJlu2jp/49yi12gGxY8ZPXrFaN/LNm3pJ8pHCgrQT2LBhQ//+/aU9Cug/JAAJQAKQgOQI3L17F4PBhIeHi94EFIeis4I1ZYoAlU7Vt9ZeZzPN9pT24WvL3Hx0/w0zf/B2a2Cs5bMEqxdfrV4mW4WnbX+dYf06Y/vrjO3hadvD0ra/Sz/D4jRjhZhGkJHI1DshH0I+5lZWU/PzC+7evbN9+3aDjZvW669fO3uetanJeiPTk+7nU9Izv2TkX7wbeuDM7dwfPxsyyGZzXkTH+0Uk4ojVd71urJo9z8rCnE5vrCOuxeKQwwHvYz4uXraKp3D4uquuULu+y/iJU2x37qmqwvG9pVJpM+csGFW3OOooNXXrHfae173VJ08bhZBtPIWpPnnqDW8fYVXz8eMn7cXLeXX4LY4aO3HcxClmFlYfPsaO/U+jjlAdH/ry/6qYSCROnDyNX19tgkZi4le+V8IFAIDrSTf+5EPVcRO/f6/tLkaKw1Fq6kFPntrZ7x09rlaJ8Y3zCouWrEzLEFxDsnaLkaTk1esM6iNWa2SsuubmLRbl5b/GAAMATrqd4a2XM0pNfc4CHZ7eZjKZeuuNeO2OUlNfo7v+1u1/NafNEvCkNguT/nZzPyeg0oVDhkekl0BERAQGg/H29pbeEKDnkAAkAAlAAhIlMGvWLE1NzWY1AcVhs3DByrJDgM1m2x4xXmnxt7nz/AMey5wuLL30wNDzifGdV6YP3pj7f9j65JNFyJdtLxIsQxNrf14kWj5PsHyeYJX47Rab3Vp9WFhS6RX4/ktuOYlKjXkXvdvOXlffcI2ewZIVq1etWr1m9tx9lmazZmmtXrXG7czF9OzczBLiP4/eOZ37t7C4nk3t2RzOp+TsK35vS3HExPhE85VrlixYGP6qiSVM/tfeeQdFkaZ/vOtq666ubv/buqrduts7VwYYwpAEkZzDkHMGyQIGwAAqBlbXgLq6ggkxoLKioCA5iSAKigmRHBQBQQRBBiYwoXt+NdPYjgRRhN/J8ExR+Nr9vk8/z6enxvn6vP08sxaHjx7XKKtpSn5cvmWyONmwaTOhTJhMpqauES6fSGSKibkV5b1mm7BQUkZBXlH1SU0tJvJee/Xqlaau4YRao8RCEpkSsnqdjLwybv8XKbmCwnFx+KyufqmUHHFdazunTwtmPp/f29ubn1+Ul1+Ym1eQk1dAown26E8Qh9b2zrhNYRmbj/QhiUxx9/IdHqaJuM/v7X1tSrUhHMYl7oRCqSQyxdHFY3BwXFET4lBwITJFR58Qh1xnNy/cFIlM0dYzEtyL96r7vVd4ZR1BZvJu1T1RT2AsZgQ0NTWVlZXFLCgIBwgAASAABOaEQGFhIYIgp0+f/iJrIA6/CBdMFh8CGIbtOx5jtlLZa4vu+iPm6/Ya7jhmfSDZKeGq6+ksz0uF3ldLfa/f9rtxxz+7MiC7MiCr0v9GZUBmpX9WZUBzVzaGfXiq7YugYBi/o/tNQlpF1xBrdHT02pUrHo6uQaHrAgP89+z+1djcwtTcwkpbd5O/9+bo6PC1YV6+Qb8fPd7b3/+8n7H3XMmxlLwJWTUMw6prW/ecLegZGO7s6okJW6u/Qvvg/t+4H29TnOzk7MQhl8sNXBUmqtP0jc3Xb4zeHLPDzsmV/F6hScookOWU7t+vxq/LZDK19cbFoUAaCcuBkuWV9Y3NLawdNLQNpGQVCWFDIlPWRW4kHpljscacXT1Jwqqq7+coLtfQtbJxNDChygnbD4oKrSWSssWF49sn7lbeE5VkJ0592ecjAU1UHBLZS8Vl6uaWdsZmlooq6u8dE6gyEplyOTWN8J+HouHrN4m6oaFjuDZyY8z2WFcPHzzhiS/Hc5L4QlwcSkjjyvODOORyuS7u3qLWJAWVV5X1DE0tbRw0dY1ESUrKKPgGrJrwhiGCgoEYEEhNTUUQ5PLly2IQC4QABIAAEAACc0vA3Nx8yZIlX2oTxOGXEoP54kPg8o1z+q4UpwjNoF2G4XFGAVE6MUcs9ibaHr3omHTN9c9cj2vFXpk3vbNu+WSX+WSV+WTe8sko9c646Z1Z6tvZe4fPF01ufRYWQR/Crr7zeU96hlg0Oisp/pifj/+6iMhDB/Z1dXaOjIxY2doZmpib6uj5WVpGhoe3trQUFxVHbNlVXHabOcYure+PTcyrrqn/IDx4vJLKmkMXijpev+0ffLd/23ZTbd3gQN/+/vEym59wa3bisLOrW+G9FiKRKRu3xAwODnG5gqKfTCbz5Okk0rieUZCQlt+8dTv+gN9EcUimKKioFxQW02gjDAajf2DgzJlkUZlkYm5FpPhqampFHxoUNJk4fKSv7w2DwaSNjFRW3RMkFYWpM/z3EknZEuHeegzDcvMLiVNSsopFxTc/AeQTpyaLQxsHlxcvOuh0+ujoaEtrq4Ozu6hgC1wVRlij0WjqWnqEG0Gha3pfv+YKkTGZzLz8QlkFwUObuKokVDGGYXv3H5hRHJLIFFmFZalX0oZpNAaDMTg4dDXtuqxQMOM21TR03g3N8LQq4SoMFiIBNTU1SB4uxBsHPgMBIAAE5pVAXl4egiAJCQlfehUQh19KDOaLD4HH9dW6zvKWgaqe0Tqhewzd1qkGbNKM3me0/7jFsfM2F9KdruW6Zhe45ha65Re7F5S45xe75Ra7Zxd7ZBd55JeEDg5N20JwOkav+t6ez3vyaog1MDSccOD30MCwiMj1Vy5fYjAYfD4fRdGE+KMmZhZ6ugb2WtpbozYf+P0Ig8HIzi04fu7PweHht0xuYl7T8ZQcHk/QsHGUzkwvqPwjpfh5T39P75u47bFUPYMgf9+uzpfTOSB6fHbisK6+wdHFw9HV08nV08c3cGBggC/S8o/BZOoamhJSx2tlAL6zdII4XColl5J6hZC4fD6fx+N5+vgTCUllNc2Bgbd8Ph/DsFOnz+APK+JmY3bEEiU68QkNjU2q6tr4WUkZBYE4LBJkDjEMu3AxhTguLadU/eCBKIHPH08QhzoGJo1NzcRyDMM6O7uWa35QgFQrOyK6oaEhD28/R1cBNDsHl7qGRmIhn89nMplmlra4sCSRKXaOrngp1/fiEC+lM23mcKmU3MnEJNHcIIfDDQgKJZSqtJxSS2ur6BVhLGYErl27hiDIyZMnxSwuCAcIAAEgAAS+hoCWlhaZTJ6FBRCHs4AGS8SEwDvakMVKLRNvZYc1K/y26QfH6tr6U4I3qG/do38owex0smXaNbucHKe8HMfCXMeSAsebBU43i5xLCp2LC11yshxLizdxOJ/VYQLnNTQ8ejrzbu8w693IyKkj8QG+ARGRkYUFeYSK4PP5Q4Nvff0DTcwtDVZoha30i9m1P+5wfPer3nMp6U3PX3JRNK9m4EByyTBt5EXX68Pns+P/LO4dePeio3N3dIypjq6/r3dDfe1n3p7ZiUMURdnC15jwN4ZhKIryeDwOh8Nms+l0hou7NyEOnd28OVwuLoFEt5WqrtAepdMn+Hky8QyRISQkDYZhfgGrCKkjp6ja2dU1YSGKoqvXrSfmiIrD5I/F4f3quRGHhw4fFb1ruBANWR1O+KBrYEq06xA2yRDAGWOzx8bGUOGLx+NxuVw2mz1Kp/v4BeILSWQK1coOT5l+pjiUVVhGNGMksGRkZhMkJaTly29XEKdgIJYEqFTqjz/+ODo6KpbRQVBAAAgAASDwpQROnTqFIEhKSsqXLuTz+SAOZwENlogJARRDYw9HaTvImfstc9ugtTrOxC1C1dpbNjRSbfuv2oePGF46R72WYpGdallw1arshvWdbNs7WYKf21m2pddt8lOtnz1IxjBBEm/GF4qimbeetPTR2Tz00ulzwT5BwUGB1ferJrRVwDDs8p9/rgwM0zM0sdTRj4qM2vv7scA1GzbvOnDr3mM2l/ekmxl/9X7MwcTw35LSiu/300ZrahvXB4YY6+oH+Hq2t31Bjmh24hCPFMMwDofT3f0qKyc37uDvUVu2haxe6+7tZ+voSuxpJJEpLu7ekzOHJDLFw9t3QuB8Pj83v4CQNNJySvUNDXw+n8vlWtk6EqJLU9eQxZpYDQjDsIzMLGKOqDjMK/hoW2lhccmMd2rKCaKZQxKZciM7d7I43L1nP16kh0SmCP38qFQshmFcLq+/f6Cw5OahI0e3bNsZtibCy8ffztGVaMMoFIf2ny8OSWSKoakFsf+W8PxJzVOChoS0fPHN0gneEjNhIB4EqqurEQRZt26deIQDUQABIAAEgMDXEBgcHPznP/9JpVJnZwTE4ey4wSpxIIBh2ONn1Ro2srrO8lYBy3y36gXH6jmEKFl7kkPWKG/bqn54v87ZowZXTxllnjEuuGh69wr1XrplVSr18TWrO5ep5ZfMCs9R+1/NnKnDMP7jhrabTzs5KFpeVhEeEBoeHnH3drnobkACKINB33/wkE/wWhMTqrWRadT66H0HD4dGRN0oLhvjcNsG2efznkbuPFT0oLG5o+vq5TQfe2dzI8MtURu6uzq/SAPMWhyOjIwknT1v7+yupqEj6M0gLS+67ZPYxikpo+DqMUXmkESmBIWumexqcUkpsVZKVqleuP2SwWBo6xsTx63tnaaE9uDhI2k5JXwaIQ75fP6EgjRHE05Mvi5B/hMDUXEoQaYUlUx8dhHDsD8Sjo8nAGUUNHUMRTUbh8tNu3bd1cNHXUuPLKdEKDciLnwgEIfWDl8kDq1sHYkUJeF/XX0DUZZGKA5vzS5qwiAMvn0CUVFRX9rJ6tsPCjwEAkAACACBWRDw9/dHEKSmpmYWayFzODtosEp8CLDGWBHbg5dbSuu7yNuFqPlt0w3aoWsfomTlSQ4Okt+2UWXvNrWE3zTOxmlmJ+iVJBmWnTG6ddqgOtmkIEGv7JRBZZJRRWoElz3D5lIOl3vl5hMai/dm8N3WNZFhoetSU5Inp84IrO/evdu6faeLt5+VrYMN1TIsbO3a8IgrOUUsLu/l8NjV4sd74uLOJV+JCF5jrqNvY2V59MjBEdpHvRMIU58YzE4cjoyMRAhrbxIKZ7wXn4yClIwCodDwkqQuHj6Tt5WSyJTgsKnE4c1bhKSZThzaO7pNKQ4fP6khLi0qDuvqGkRbWVjYjEuvT2B58+ZNWfntsrLysrLbt8or8K16ouKQNI04PPpeHErKKIhmDtls9q7de0XruOINMHCAQrfHK7XOQhxa2zlNFof1DQ3S8uMSVCAOS0EcfuKGi88pOTk5eXn5T3ywiE+oEAkQAAJAAAhMQ+Dy5csIguzevXua8zMfhszhzIxghngTGGWMOAaYalhJG3soOK1TD9iuG7RT13H1MlNXKT9fmQ2h8rHrFY9sVT3/6/IbBzQz4zTvHNOrOKqbFad5ftuygv2aadvVWu+lfxrR886uJx39XBTLu3l3fcTmuL27iQaA0y1EUd65s2d19A2s7Z2s7V2s7ByvFVeMoVj7W0Z6Xqm3nZWehra5mam3h0vV3QoUnU1fjVmIQwzDEo6f+iALhTU2bR1cY3ftOX3mXEbmjVvlty2s7cfzYDIK04vDtZNzWSU3b0m/b2gh/T5zOGFbqZ6R2WQthGFYXkER4ZWoOBwZGZFTXEYk6KRkFZ8+fTYdc/zRwd179i+VkieRKfge17Y2QdmhtvbnxHZZQeaw+KZIFR6BPQzDphOHd+5UiSpDCWl5MwvbmO2xJxKT0q9lFJWU2ju64s7PShw6TwZS39Ao6PpIFrTBAHH4idstZqdKSkoQBAkJCRGzuCAcIAAEgAAQ+EwCnZ2dP/zwg76+/mfOn3IaiMMpscDBxUWgua3BOdhc045s6q3otHp5wHb94FgD5zWqRm7Sdi6S63zJO0Pl94UrnN6kfH7LsuTNy/J3rSjdq5G5XS15vdKlSMXsfQ48Lns6ZCiKptwoHmSw3zHG4k9eWBsW1lD/bLI0mrycx+M9b28/ceKEs7OLsalpRcNLHoY9ae+7cP6Mj4fzluiNxUX5g4ODn2NqsnE+nz87cWjj4ELsgdQzNK15WstisYQ1VjAMw3g8noPLeFMH0vTicFXY54pDDMP8g0II4SevpNrXN7FLB4qiUZtjiDmi4hDDsN179pOk8ZqfCpIylLC1EVPmHnFEHS87lVQ1CDGpoqY5LEzJfiQOpQXbSj9THPJ4PP+gUMn3TRolpORKbt5iMBkoykNRFH9009PHb/bi0B7E4ZTv7kV6MDY2FkGQpKSkRRo/hA0EgAAQWNwEzMzM/va3vzUIqzbMmgSIw1mjg4ViReB5Z5vPOnstOxljDwWHEDX/bYZBOwxc1qrpOUsb2y4NdJbYslJqu590XIjcmQilpNWUxFD5zI3KVyKVkoLlzgRR6osvYujUlWnodPqptEIOD3vxhnY8MTn+0F42e2JJlelQCvQWho2OjiZduto7yuaiWEbh7fj9O5qbGjgcDn52urUzHp+FOORwOLoGHzpV7Pz1twlX6XvzZtlyrXGp8wlxuPoLxOHpM+cJ4Scpo5Bw/OQEddf7uk9T50OrQ1FxyOfzOzu7KMrLCQtkeeWjCSc4HM4Ez/l8Pp1OXxW2lphJIlPWhG/Ac7yi20olphGH8QnHiVYcxLZSOoOhb2xOqE1zK7sJSePhYZq2vsk4sS9/5tAaxOHkG7m4j9ja2iIIcvfu3cWNAaIHAkAACCw6AuvXr0cQ5OLFi18ZOYjDrwQIy8WHAGuMuWlXqKYt2cBV3jpAxSdKb9Wvxm7hKwxcZdSov9hbLgmxWRLlIrHLS/pssNyZQNk/3CXTQygXA2RPekgdd5Puf14n2vGP4NLXP5BWXMFD+XXdw5euZFTdLuHzMeLs5wxedvekFN7jYdirtyO7du7aE7NhSm3zOaZE54iKQwlpuYq7Vcz3LwaT+eGHwWQwmCwWC09z6Ym0MVy9NhJ/pBDfVzk2NhYcspqoOPqpzOGM4lBQrVTQDxDDsNpndUul5Qh9JSWreD3jBovFwvtndHW9EmxkFW6hxOdMEIcoioZHbhItmSMlq7hl285Xr3rYbDbejJ7FGnvxosPZzfuD82TKMnUtvNcin8+ftThk0BmGJlTCeXVNvZGRESLryGQy98cdJM7OZlspiEPR9zSM+fzBwUFpaeklS5Z0TWr6AniAABAAAkBAXAnEx8cjCLJly5avDxDE4dczBAviQ4A2Mmzlra9uIaXrKEtdqey9SS94p5HLWnUjDzl166WaJv9xNvl3hNV/t9kvTfKSPucmdcKRdMFV6qKz5EmbXzKi3bhjH3UvwLl0dXcXVz5AUf7DTlry1cy2FkGHhs9/cTicpLTi5/10Nod74WKat71tyoUzs95KSlwX4/PT0q9LyijiOx5JZIq+kRnVym78x9KWKvwxt7Q1oVqbmlu7uHuNjtJRFLVzcCXEjAxFOXz9pgePHre1t+fmFtg4OAsNKuATBOLQ/UNBGi09o/HjZErwlNVKRQrSEM8c8vn8sTH2yoBg0YSeLEXF0sYhbG3ESv/g5Zq6guI304tDPp8/MPDWlGotOkdSRkFluZaji0fY2siwNRE29s5KyzRI5HHPcYNxBw8TnD8Sh5/1zKERXnSUx0ODw9YQl5aQlvcLDKm4c/fFi47SsnK/gFUETPyiVOsva2VhbT9FQZq6hkYyFKQh3uuLb/Dw4cO///3vGhoaTOYMtbIWHxuIGAgAASAghgSuXLmCIIi7u/ucxAbicE4wghExIYCiqN96ZyUjSWVjkra9rKWvin+MgU+UrmOYmomnvIaNpIrJEkPzJd5m/4ky/88Jm6XJNhKJ1CVnqUvOmy1JNPrPiztFk0F0dHbm3SzjotiDjpFjl3JaW5smz5nuCJvNySiqrKjv4aDYwyfPfG0dArw83g4MTDf/849jGJZ6NZ1IuInqIlG5QoxVV2gP02gYhp1OOkdIHVzPyFBU5JXUBD0tyBSyvLKcoiqxytnNi8Ph8vl8BpOpqftBHAaGhBG6i/C5qLiEsEz0OcTPvunvNzChEmfx60pIC8rG4GMXD29p+Q+tLIoKiwmz+KD6wUMjU0tRC7iTgsIzZOKJxPeylkyJ2RHLZH6Q+gJx+L6wDYlMKZ6qlUV8wgnCvqaO4diYYPMwhvHvVlbJUFQIJiQyRVpOiaKsJi3saSElq0gQI5Ep5pZ2RCuLPfsPEAFq6xvj+1E5HK6Tqxdx3NLGYXJBmmd19YQn0Odwwjthkfw1JycHQRBzc/NFEi+ECQSAABBYtARyc3MRBDE2Np4rAiAO54ok2BETAlsPrNFxkFcxlVTQk9CwlPVcryPQh9E6jqFqhm5yahYSmnYkLXtJI8ul/sY/HzX57yXj/57V/zlR59+J2v/K3bCSx534MFtPT0/CyVMcHlrbzfg9ufj23crJumhKdlwur/xebXpZA4uLPn/ZtSFglbmBYVbmtc9cPqVN4iCGYZevpBESgpAuwgFFmE4c/43PUV2hTROWZmEwmUEhaz6eP66ppOUU9+w74OHtS5h1IsQhg6mhY4CvIpEpU4rDwqISkrRA7EkKW2LUf/w4dWNjk5mFDdGvgnBATlHVy8dfVID9IimbX1BIREoMent7nV29RHUaYURkQFm2XCvu4OEJKRc8cyiU0BRBK4viKfocilYr1XgvDvl8PofD2bBps6B8qDA00d/SckrevoGeK/1xYkJxaDtRHJIpkmQKIQ7ZHI6Dsxsx38LGfrI4rJ0gDktK5+Q9Q5CEwYIgkJKSgiCIlZXVgvAWnAQCQAAIAIFZEMjLy/vLX/6yYsUK/EvaLCxMXgLicDITOLKoCRxK3GHiqWzgqqhlJ2fvbxK6w8Fvq37gDkO3CE1TL0VVqoSqxdIVNks17UgaNpLaFhKBRv89p/PzxRX/Oqv242m1f927dgzDPqpMQ6fTI9ZHDtNZPTTO0bT7R86k4zmlT1NGUbT4bs21snoWF+sbeLtr02YTLZ2dMdEs1tzsExNkDq9cXSolJ5QZFJKMQIGIakJ8TJKhkATtECiEOOTz+TQa7dDhoyrLNfEOh3jXvhU6BjdycplMpou74Mk9Elmw1dPR2R1/PJLBYKhp6BKSJnDVFJnDwqKSXyRlScI9olIyCnV19aKIMAwbHh6+dj3T0dVDU9dQVV3bwNg8KGT1rbJyNpt97361lOx45vAXSdmioomZQ9wUg8G4eavMa6W/sKGiQOYRLQdJZMqy5dqbore2trbxeB/dQcEzh8+f44k+STJlqZTclJnDo/HHl0oKeJLIFE0dAxbrQ9mhsbGx8xcuqWvpjxMT7F+lKKmuOJ10lkajefsGSkjL4YGbUq0/iMN9B/AmjSRRcchm2zi44M9GSpApFtZTicNn9UKSAk+WSsoWFZeAOBR9Ly2ecXJyMoIgpqamdDp98UQNkQIBIAAEFgmB69evIwiirq7e398/hyGDOJxDmGBKHAhcyT5v4qlk6qVs4qX0x7m9t6ry3CK0vaP13CI0LXyVjyfHpeVcPHYuLnpPqE+4HdVTQ91S0tj8l1220mfV/52s/ON5A9KT+iwe+iF/iKJo3P69j2qfMbloVnXX1iNXHtY2f7oiDZM1dr2oKruyhcbivn7Tvy9mB9XAMGxVwJu+13OIeGRkpKmppaGxacJP4+QjTU2tbe2izbV5PF5Xd/etstsZN7KysnOqHzzs63uDK5Du7le4hcbGpq6ubrz4Coph7e3P8Qs1NjX1vp4iEDqDQfjT3NwyNjbeHWR0dLS1ta2lta2lpbWlpXVkZHRwcKjvTf8wjcYWFh3FMOz4yURceeKd/erqp32wE8MwFovV0NhUeqs8LT0jMelsYtK59OsZt8pv9/a+nlBKlKDNZrObW1obGpsaG5sam5pHp/qq/XZwsLGpWTCnqam9/bkoLj6fz+Px+t68Kb9dkZmVnXkju7LqfverHh6Ph2FYT09vY5PgLjQ2NXe87CSEXH//wAeDz1/gxzEM6+zqHifc1NQpIDzx3cRms5uax+9sY1Mznc4gAoHBYiOAd0NWV1fv6OhYbLFDvEAACAABMSaQmJiIIIient7Q0NDchgnicG55grUFT+B5Z6vNSj09Z3nX1cZ9A695PF7INieHMHWbIDVzH5VHdVVszhhP0M+PNzbGevvu7cOnVb8eiqZ6K2zcqrfHXeGEqcT5y273GtLYnA9PrDU2NOz//dDg0FAPjR1/9c7uhCtdr/omf6fHi3P2v32Xmnsn9347nc17+bLzt81bHMc8/QAACXlJREFUzA0MAv1Xtre2TLnka4jjzTA+5/cXXUXUILEQwwSlR/EXcXDCYPIcDMPKyyvkFVXlldTkldSUlqmn/JlKZzAELQKFLy6X297+XM/IjNiuuVxTd+jduwmWv/6v7y8o+HM6a8Sc6SZMd3y6hcTxCRcljk9vcGba062F42JGIC8v7/vvv//555/LysrELDQIBwgAASCwOAls27YNQRAHB4fp/lP7a7CAOPwaerBWHAhM+J7N4/HWR0Q6+VoU3MrCv5FnFv1JXals5K7gu96GNjrM4XIwTJDwEXZ+RzEMZTLp3qH2lr5KsSdtDiQ7XygJuFASmHfvCJc3nvvicrmhq1enpKay2Oz6V6NxycWb9p2ta+ngcQV2cIjCRhHcR7VNvyfn328b4PGwpqaWqNDVBrr6Ph4uDfXPxIH1rGLo6emd8Kihh7dv5o3sJ09rb1fciTt4mKK8nFCGkjIK23buIqjO6oKwCAiIG4EnT57IyckhCHL8+HFxiw3iAQJAAAgsJgLDw8POzs4IgoSHh89T3CAO5wksmF0ABDAMo9FopaWlF5KT71Tcbm5u7uzsLLt1y9XZMfHUqfq6ura2VoFm43Lijx/W0Fe8/6iSy+NweVwU46KoIHeF60MURfsH+uz9jKwDlINi9GJP2R1L9zyT4//6bStB4enTpy7unimX/6SNjLa9Hj2T8yj69z/3n0pPz6+4fb+2rKomNac8IaXwcsnTlwN0OoNRfvPmKu+V5iYmIUF+Lc2Ni1ntoCialZ1LlPTEdaC0nJKMggpZXllKpMoLiUwxs7B50fGSwA4DIAAEcAI0Gs3JyQlBED8/PwYDdhrD+wIIAAEgsPAIFBYWSkhIzPf/9IE4XHjvDPB4rgi8ePHi119/NTMzpZqbWVpQHexsHR3s7WxsbKwsLalUJ0f7VUFBVVWVV1Ive7i5LldT3bhhQ2Xl3Zyc7GfPnuJN4XHNhqvE5vb6NTErAzYbB27T25VoezZ35eWbm7r6mvA5KIqmpqZSrWwOHfmjra19iD72tHMw405T0o17x6+Wn82+V1Dd1vZ6ZIQ51trSmpiQ4Ghta2FuHrN546vurrmKd+HawTDsz8tXtfWMid4bQok4XtoUl4syFGUPb7/WtvaFGyZ4DgTmm8C+ffsQBJGQkMjKyprva4F9IAAEgAAQmEMC0dHRCIIoKipWVlbOodnJpkAcTmYCRxYLgYGBARpt+OCBA54eHnq6uj5eXulpaQ0NDbt27bK2sjY2NDQ00Pf3812zOszawkJtmYqWpqaRgaG2hoaPt3d2drZoNk+4NxVlc8Y6ulvTC47HHPHZnxSQVrbpdNbaN4OdOFAej5d6OVXP0NjVc2XS2bNNLc2D74ZpDOYokzXKYA68HXj8+HHC0Xgfdw8DQ2NbG8v4I4foo6OL5WbMFCeGYa/7+vbuP2hgTKUoqclQlMnyyjIUFVmFZQoq6m6ePhk3siY3dZjJKpwHAouOwJ07d1RVVREECQgI6OvrW3TxQ8BAAAgAgYVGIDs7W15efl63kooiAXEoSgPGi5FAT0/PQH//y5cv6XQ6hmGjo6OPHj3u7OwsLChobm7+7bffbKytggIDampqBvr7370bqq2tHRwcnNCOQrjJFENRHoryuFwua4zBZNHH2IxR5iCXJ+gCj7+4XG51dbWnl7emrr6lnYOPX+Ca8PWRG6PC1q7z8PahWlrr6RsZGhmFhQRW36+acIn3Nhb1nzweb2Rk9GVnZ0Nj06NHj5/WPmtpbevtfc1isSZUB13UmCB4IDATgdjYWARBvv/++wMHDsw0F84DASAABIDA/4ZAXV2dq6srgiBKSkqFhVP0cJ4Pt0AczgdVsLnwCIimAQnveTxebk7uubNnX758OeUEYiZeaFQ4Z1Ipy/clZ4jJQ0NDGRmZa9eFW1hZa+vqa2nrauvq6xkYOjg6bY/ZWlSY/24eim0SVxeDAV5DCA9EOBaDmCAEIPD/TaChoQGvakAikU6ePPn/fXm4HhAAAkAACExPoLW1NSQkBEGQf/zjH3FxcdNPnPszIA7nnilYFCcCM2rCmYPl8SbPwR9THB4ebm9ve1BdXVPzuKvzJZ0+CumvyazgCBAAAvNHoKioyMjICEGQX3755eDBgzQabf6uBZaBABAAAkBgRgL379/39fVFhK8NGzYMDAzMuGRuJ4A4nFueYA0IAAEgAASAwAIjkJ+fb2FhgSDIX//616CgoPLy8gUWALgLBIAAEFjgBOh0elJSkq6uLr7nPyoq6tWrV/+TmEAc/k+ww0WBABAAAkAACHxbBB49ehQWFvb9998jCCIlJRUVFVVRUfFtuQjeAAEgAATEi8Dbt28vXbrk7Oz83XffIQiioqISHx//v204BOJQvN5iEA0QAAJAAAgAga8gwOFwLl26ZGdnh29q+uGHHxwdHY8cOXLv3j0oCPwVXGEpEAACQGCcQE9PT1ZWVnR0tIaGBv5Ju2TJksjIyKqqqm+BEYjDb+EugA9AAAgAASAABL4tAnQ6/dq1a6tWrZKWlsa/viAIIicn5+DgsHHjxqNHj6alpZWWlj58+LC+vr4ZXkAACAABICBCoKmpqba2tqqqKj8/Pzk5ee/evatWrTI0NPzpp5/wT9TvvvvOwMBg9+7d1dXV39SnP4jDb+p2gDNAAAgAASAABL45Aj09PTdu3IiNjXV2dlZQUMC3nhKKEQZAAAgAASAwI4GffvpJR0cnODj42LFjVVVVvKkKFn4Ln/4gDr+FuwA+AAEgAASAABBYSAQGBwcbGxvv3r2bn5+fkZGRBi8gAASAABAQIZCenp6VlVVSUvLw4cOOjo4F1LwaxOFC+scYfAUCQAAIAAEgAASAABAAAkAACMwTARCH8wQWzAIBIAAEgAAQAAJAAAgAASAABBYSARCHC+luga9AAAgAASAABIAAEAACQAAIAIF5IgDicJ7AglkgAASAABAAAkAACAABIAAEgMBCIgDicCHdLfAVCAABIAAEgAAQAAJAAAgAASAwTwRAHM4TWDALBIAAEAACQAAIAAEgAASAABBYSARAHC6kuwW+AgEgAASAABAAAkAACAABIAAE5okAiMN5AgtmgQAQAAJAAAgAASAABIAAEAACC4kAiMOFdLfAVyAABIAAEAACQAAIAAEgAASAwDwRAHE4T2DBLBAAAkAACAABIAAEgAAQAAJAYCERAHG4kO4W+AoEgAAQAAJAAAgAASAABIAAEJgnAv8HKW4JX60/sfwAAAAASUVORK5CYII=;" vertex="1" parent="1">
                    <mxGeometry x="-21" y="139" width="717.34" height="255" as="geometry"/>
                </mxCell>
                <mxCell id="3" value="~~~とはなんですか？" style="text;strokeColor=#999999;fillColor=none;align=left;verticalAlign=middle;rounded=0;fontSize=17;html=1;whiteSpace=wrap;" vertex="1" parent="1">
                    <mxGeometry x="-38" y="512" width="202" height="37" as="geometry"/>
                </mxCell>
                <mxCell id="5" value="&lt;span style=&quot;color: rgb(0, 0, 0); font-family: Helvetica; font-size: 17px; font-style: normal; font-variant-ligatures: normal; font-variant-caps: normal; font-weight: 400; letter-spacing: normal; orphans: 2; text-align: left; text-indent: 0px; text-transform: none; widows: 2; word-spacing: 0px; -webkit-text-stroke-width: 0px; background-color: rgb(255, 255, 255); text-decoration-thickness: initial; text-decoration-style: initial; text-decoration-color: initial; float: none; display: inline !important;&quot;&gt;ユーザメッセージ&lt;/span&gt;" style="text;whiteSpace=wrap;html=1;fontSize=17;" vertex="1" parent="1">
                    <mxGeometry x="-38.001281020220745" y="482.0042177088121" width="164" height="42" as="geometry"/>
                </mxCell>
                <mxCell id="8" value="" style="shape=image;verticalLabelPosition=bottom;labelBackgroundColor=default;verticalAlign=top;aspect=fixed;imageAspect=0;image=data:image/png,iVBORw0KGgoAAAANSUhEUgAAAggAAAElCAYAAACBJhoWAAAAAXNSR0IArs4c6QAAIABJREFUeF7svWd0JNeZJXjDpgUSSHhb3rMcySJFbySRoqSW1C3T6h21tN09Pe1mes2P3bO/98f+2T1nZ3bPmp7eNtNG0sgO1ZIoiqI3VcUyLLIMywFVcAXvkS7cnu9FBJiVlQAyE5lAAvgeTx6wgIhn7gvg3fjM/STHcRxwYwQYAUaAEWAEGAFGIAsBiQkCPw+MACPACDACjAAjkIsAEwR+JhgBRoARYAQYAUbgHgSYIPBDwQgwAowAI8AIMAJMEPgZYAQYAUaAEWAEGIGVEWALwsoY8RWMACPACDACjMCWQ4AJwpbbcl4wI8AIMAKMACOwMgJMEFbGiK9gBBgBRoARYAS2HAJMELbclvOCGQFGgBFgBBiBlRFggrAyRnwFI8AIMAKMACOw5RBggrDltpwXzAgwAowAI8AIrIwAE4SVMeIrGAFGgBFgBBiBLYcAE4Qtt+W8YEaAEWAEGAFGYGUEmCCsjBFfwQgwAowAI8AIbDkEmCBsuS3nBTMCjAAjwAgwAisjwARhZYz4CkaAEWAEGAFGYMshwARhy205L5gRYAQYAUaAEVgZASYIK2PEVzACjAAjwAgwAlsOASYIW27LecGMACPACDACjMDKCDBBWBkjvoIRYAQYAUaAEdhyCDBB2HJbzgtmBBgBRoARYARWRoAJwsoY8RWMACPACDACjMCWQ4AJwpbbcl4wI8AIMAKMACOwMgJMEFbGiK9gBKoCAcdxYNkObNuG7QD0b9Ekyf3I9FWuirmWOgmJlgN3KbQSsaRSO+P7GAFGYFUIMEFYFXx8MyOwNggQFchkTMwnM5hbSCOdMWHYFmwiBooCR9eAYADQtLWZUAVGkSFBlYCABIQUIKrICMqA4pGFCgzJXTICjMAyCDBB4MeDEdgACJC1YHYhjeGJWQyOzWJ2LoUEkQRZgh3U4UQjQKwWCIc3wGryT1GVJAQlIKZKaNIltGgS4poMnUjChl0VT5wR2LgIMEHYuHvHM9/kCJDVgNwJd6YT6B2excDoLO6MTGN4bBbziTSShglTkuDoKpxwCCCS0BADmhuBaBjQquhYpcX4H9+P4PsOHEByXJcCWQ9qVBkNqoQWHdgelLErKKNZlQRR0NjfsMmfel5eNSHABKGadoPnwgh4CNBZalo2MqaJ96+P4uVz/bh2ewIT47NYmE0gY9mw4MCiC+nQVGWIE7S5Hjh2AOhsdV0OIj6hCmC1cwgCsQF/Xt7PiCSQi4GcJEEFqFMlHArJeDamYH9IRr0K1ChSVSynChDlKTACFUeACULFIeYBGIHiEbAdB3OJNKbmkvj1B/34wVs3cbl3HHPTC7DTGTgS4JD1QJgZLADepyUGPHIM2LUNqKsBAkFAroLARd96QNGVfvShD4tYA0VdEmdw3CBFACFZwsGwjM/VKXgg4loStgeYIBT/NPEdjEBpCDBBKA03vosRqCgChmmjd2gSV/sn8Jvzffj1+QH0Ds8gmUgBjv2JZYAYAh2ulglYGSAWAu7bCezoANrbgJYWIKBXdK4Fdy5IArGAHKvGovvBy8qgDsma4Dho0SUcjCi4PyLjs7UKnq6VOR6hYMD5QkZgdQgwQVgdfnw3I1B2BBw4SKVNnLw0iDc+uI23Lw7ict8UxmdTMIgIyGSTz2pEEGwTMDKum6GlFmhvBvbuAg7sByg+gQ7ljdB8EuGRBhUOwqqMQ2EZf9Co4FsNCnRZEhaGDbKijYA6z5ERyIsAEwR+MBiBKkPAdy+8fLoXP3vnOk5dHcHwbAoLaQMWEQThTshuRBBs14pAjnyK9GuqA44cBB44BtRGNxZB8NwNwtrgAJosYX9IwrcbVXy7SUVUkRDgzIYqe2p5OpsRASYIm3FXeU0bFgF6cTZMC1PzSfzkzWv47itXcL53AknyItg2HLIUCJKQZY6n1YrD1LMkZBJAfRS4/zDwxENAXaw64hBW2hU/FkEYSFxyIAiCBOwJSPhGo4pvNqlo1GTUKpzRsBKc/HNGYLUIMEFYLYJ8PyNQRgRIKZHEkIYm5/CT16/h+69cwaWBKVgkhESKQRR/QASBvopPDlEwDWBhBogGgeMHgcceBJoagEAAUNQyznQVXXmWgXt68N0L2R4UikWAg20BGS/UKfhyXMGOoIL2gIRQFcRergIFvpURqHoEmCBU/RbxBLcKAq71wMbYdBI3h6bwi3eu48U3ruLq8KwQQ3J1DSQ3a0FYEoylCUJYBw7sBB46CrS1ADW1QDBYHVBSbqYfmJiPJeRwHlp1mwY8EpXxXEzFsaiMvWGyInAUQnVsKM9isyLABGGz7iyva8MhQGqJKcPCjYFpfHB9BK+fv43Xz9zCrYkE7KAGqIobS0DxBrYBkLWArAjZjb6XmHOFBCiT4eg+oLsTaGwCotH1wSTnwBdZF36cQQEzonoM9Yobh/BIVMGnYwpORGU0sGpSAejxJYxA6QgwQSgdO76TESgrAhScOJ80cPrKEF4924dz10dw4eYYRubTcFQVUGQ3dH85gkDuh1TCddC3xYE9XcCuHUBnJ1BfX9b5FtRZlsbB4vW+WySXOCzRIS05IJPssoQDERm/F1fwQkxBu84WhIL2gC9iBEpEgAlCicDxbYxAORHwZZUn51J46WQvfvjGVdwcnkX/5ALmMhYcEjuiV2lqfhwCuRmILGRbEejfmTSgOEBNAGhvAPbvAfbuBlpbyjnlu/sSh32eE/+uwMPShxfFKmVgW1DGv25S8dV6FTsCbnEnpgml48p3MgLLIcAEgZ8PRqAKECBHgWGaGJtO4D+/dhV/94uLGJ5NYjZjIy3klLNPQi+tUVgSKBaB0h49VwO9nYt/W65eQm0QOHoQOHYI6Oqs3EqFXLIXW5A7ylLfL2E2nbqE7zSp+Epcxe6gjKjixm4ySSgBTL6FEVgBASYI/IgwAlWAAKUwJjMGhibm8Q+/uoS/evFDzKSpWqMCWwTj5TkCHQpWtAAz41oS/CZIAgknpcg2Dxy/D3jwCLCz230NL7do0qKVYAmfQYGuhBW3wXHQprrpjp+vV3AgrKBJk0CeBt+4smIffAEjwAgUjAAThIKh4gsZgcohkDZMTM2ncXtkBt995TL+9hcXMW/asDVKb1wqn88jAmb6boJA0yTikE66dZKP7AWOHQR2drnloCndsRSSkE8S2YekiKDDklG0HTQpwAv1Kp6pU3AkomBPSEKElBXZhFAyrHwjI7AUAkwQ+NlgBKoAgdlEBv1jc7jaP4kX376OH71xDQuWA0fzghPzztEnCJl7NRGIIJD0MhGE3Z3A/h3A9k6guQkIhooXTsrWKMjVXqC5lctKsNxe2A7qZOChqIIHa2Q8XKPg0VpFVH2kWARujAAjUF4EmCCUF0/ujREoGgE6W0enErjYO44Pb47i1fN94pOk+EPSPliuGiMRAXIn0FdfPElYEGyXIEg20NEI7GgDtnUAO3cCtTWAQswhT1vUJ8hVavSuXQtLwZLzchCGg50hGftCCp6OKfhKgyoKOnHGY9GPHd/ACKyIABOEFSHiCxiByiJAL+R9IzN468IA3rs8hLM3RvBB7wQyFPNH7oXlCIJPCkQtBsMr/ZxFEChYkWSXW+PAtjbg6BGgMQ5Q2mS+tlgHIR958EjDWlgLcof3LBhU4bFWk9Ghy/hcvYI/blHRHZBFqAU3RoARKC8CTBDKiyf3xggUjQAFKH7cN4EX374pLAc3hmcwMJWEBQkOOddXcrCLGgwUrEgEwXDH91MhyboQUNwy0J2twBOPusqKFNuw1Ju6IAnrwQJyJpQ7Bb+0tSShXgW+GFfx33Xo2BWUEVZIkpkbI8AIlBMBJgjlRJP7YgSKRMC2bWQsCx9cH8U//foyfnn6Fkbn0ligDEbqayVyIMiARxCsjFfIKbt4E2U6ZKgkItDeBDz/LNDZDgT0/IGKfqxBkeso6+U+MSCiclfz0ihtICYDz8VV/GmHjr0hWYgohdmKUNZt4M4YASYI/AwwAuuEAEkrZ0wLC6mMUE/8h5ddgjCT8bIXigm8E7EIZEGgeISsQgd+NoNkAS2NwPPPANs6gXAQUMmKsIR2wVpiks9Y4ZODXEuGl1JZKwNPxDR8u03FoYiCtgBZFSTWQ1jLfeOxNj0CTBA2/RbzAqsVAcuyMZ/KYHx6Hu9cHMAPX7+O1y4MYJ50jnR6wy9i5r4VQRAEshoI5SL3ayblCic1xIAnH3aDFetjQIRqM9A1RYxT7kvziSj5hGEpN4cNRCTggRoZX4lronjTnrCMjpBcFGTlXgr3xwhsNgSYIGy2HeX1bBgEyHowPp3Azf5xvHGhD6+cG8D710eRoAObXAClNGFJ8FwN4vB13GwGYgG1Ybd407Z2Nw6hpdlNT/RVEEsZbzX3uPrSJaVIBmUJe3QJT0RlPFSr4ERMwYGowgRhNfvB9zICOQgwQeBHghFYJwSSGRP9I7M4f3UIvznXJ8jBxwPTSNHBqS8RRLjSXBeVFU1P+tgjCKS6SCWgd3UC3e2uquL2bWtLEHLjG1YR70BpjQ2KhH1BGU/WKXg+ruKRmAIOQ1jpAeGfMwKFI8AEoXCs+EpGoKwILKQMXOufxJvnb+NXZ27j2p1Z9E8sgN73RWnnUhplL5CyItVjECmQHkEg14MuA20NQHebW8DpwL61Iwg+GShTXQYiAiSx3KhJ+HSdiq83qXi+XuW6DKU8M3wPI7AEAkwQ+NFgBNYBAQpQnFlI46OeMfz83Rv4+elbGJk3MJnIULRAYdkL+ea9WOmRCIIXi0Dpj/T/JJoUDQBdbcCRg8DxI26Nh1W8yd8zBb+q41JZkvdkJpQOvuQAURl4JuYShBfiCqKqBF3mYMXSUeU7GYFPEGCCwE8DI7AOCJi2jYnZJE5fuYN//vVl/OxULzKyClNW4IjMglVEDvriSaSBIMgBWRI8xUWyLnQ0AyeOAY+eAKQyG+VFsKSXZllpXG0HEUfCwzUyvhBX8dkGFe1BGbUaKytWGnruf2sgwARha+wzr7KKELBtR6Q2Do7P4uTlIfzgtWv41bl+2LoOh1IPKXshL0HwlQxXEjHyCIYgCFSnwQtWpP/PJIHWRuDoAeDh+4Fg0BVNWk6tsVDsfPdBOS0Sy41tOwg5wPGIjKdjKj4dV7EnIqM5ICFQiH5Eoevi6xiBLYoAE4QtuvG87PVDwLRsjE0v4ObAJE5eHsTP3uvFm5eGgUDgk/TGvCl+3kFfiHVBuBqMLAtCVgloSnfcvxM4ehCorwOi0aWll5eCaSlXQZliDFbcHU8PIeg42B9SROGmZ+oVHIup6A5KCIkS2dwYAUZgNQgwQVgNenwvI1ACAhnDQu/QFD64PozTH9/B6xcGca53AtB9grDE4SYOX0/fIF/5RN//T3MSpv5sCwIRBtMlDbURoLsV2N0NdHUCTY0uMclti4aKPBaLtXIj5MPXt1DYgO446NJl7A8reDym4NONKvZHZNRweccSnky+hRG4GwEmCPxEMAJrjEAibeDD66N460Ifzl4fwfmecVwbmXdN/cLFsMzbr7As5Dmw/e8vWhc8a4Nf7ZHIAf2M/h3WgHiNW+Vx3z6guxMIhe5GYTk3wVpZCZazXngERXGAGkVCkybhoVoV/6pNw8MxRUgvc2MEGIHVIcAEYXX48d2MQFEI0Lk7n8zg3Y8G8ctTPTh/YxQ3RuYwNJNyyQGVYV6OIIjRliAI2eWe/evIFbAowUz5EY5blyGiA/UR4PhRYPdOIBrJTxDuGWqdpZk91wIsd2KUyUDGgpAs4XiNgj/p0vF0vVsCuszhl0XtM1/MCGwGBJggbIZd5DVsCATcl3Ib0wtpvHz6Nn785g1c6JnAyHwKMxnTJQdyqfoHdHB72gfZaNDbPhGE7FLQdHJS6cOoDnzqQVcPoaYmB0M/3mGdoPUNJffUa8qaV9bPiCQcjir4004dz8ZVtAdkhOTi1KrXaaU8LCNQtQgwQajareGJbTYEbMeBYZkYn0nip2/14J9fuY6LfdNIODZMP6huRevBUqh4dReIJOQSBCoBLQiCJ5wkajV4wklPfsrVRKitKU8mw2o2LZsMkOVjqTiHPAYU4jv7wzK+3aHjqXoV20OyEFFiK8JqNoTv3eoIMEHY6k8Ar3/NEMgYJuaSaQyMzeGn7/Thh2/dwtWhGRj+G/2qZpKV4XBXnIJXClqQAu9D2gj0oXEfvR84tBdoqAfCYZckrJRFuap55rl50VqQNbBPDgqZiwOQesSukIwvN+t4rM4NVNwVloX7gRsjwAiUhgAThNJw47sYgaIRWEhmMDw5h+sDU/jlmSG8dH4EPWPzMEk7US7kJFxpSO+kFZaCLKElP/vBL+RkEEHIuA78Y/uBvdvdwk1NTa6bQ6grlmM+K83X+zlNlSwG/pB3ZWMU0IdDXMdBR0DGM3UqHoopOF6r4sGYItSluTECjEBpCDBBKA03vosRKBqBqbkUrvVP4MLNMbx6cRTvXZ/C4HQSFh3cJINcluZZDO7RSvBcEEbKtR6Qy4Fs+Hu63NoMHe3Ajm1uuqNTQYKQj3dkuxNK5CVEEOKKjMNRGcejKh6vV/BCs4YgE4SyPFXcydZEgAnC1tx3XvU6IDA0sYD3rtzBmx8N4dT1cdwYXcBUIgO7EOGjgudbAEHwXQ1kfm+uAZrqgG1dwJH7gCClO1aAIPhuBGEpyGEBd1kOCl7oXRfSUgJU4VGTcCCs4PNNKv64U0eUBZNKA5TvYgRElhBVjeHGCDACFUWA6iv0Ds/h5XMD+OWZfly4PYnx+RQShllma75HEHx7/eKvd5YFgQgCNTpVgxJQGwJ2bQceeQiIULrjKhz3yx32wlJQuTRJmrUOBztDCr7crOG/6Q4gTtISMgcrVvTh5s43LQJMEDbt1vLCqgUBkbpv27g2NIMXT/Xjpyf78PHAFBJGBoZllz8m0FdbXFReJCTyEARRFCoNBFRg7y7g6SfdbAalxPxAX1xpCS0nV92xgrviBStuC8r4XFzDn3bpaAtKqPUqPFZwZO6aEdiUCDBB2JTbyouqJgQsx0basHC5bwo/fq8fP3q3HzeHp2HDglORE9M7ocWBnCXNTP9P1RzJguCTh+S8GyC5bzfw2WeBeB2gqW656WIMCb7loMj0xLLuk0cQOjQZT9Ur+Fa7jp1hBW0BCRFOZygr1NzZ1kCACcLW2Gde5ToikEqbGJ5ewAc9E/jF2Tt46fww+sfnAJlM/ZV6pc6SWl50N3hSy34MAgUqJhfcAMkd3cATD7mZDKSqGNBXVnTMTk/Mdi2shRQzjZdLYCibwXHQrMl4sFbBl5tUHK5RsCfK0svr+Pjz0BsYASYIG3jzeOobA4HZhTSuDU7h9NUxvHZxDG9/PI7h6cTaEAShrpgVZuTXY/BLQaeTbrpjRwtw/ADQ1grE4y5JyC0BfY+qoZ+emBNXUOmopuw0yGxhKY8g1CsSDkYUPNvgpjzeH1PQGuB0ho3x28KzrCYEmCBU027wXDYlAqScePbqMN6+NIxTNyZx/vYMxudSgOyb/yux7OzS0DmZA4t6CBnAyLiCSVQCelcn0NUBdLQB9fWeJkJW6Yd82Qe+hkEllrBUn9kEIceMIDkOorKEziDVZlDx6QZVVHikuARujAAjUBwCTBCKw4uvZgSKRmBwbA6vnLmNVy8M4OLgLG6MJzGbMr2Tt5Kv2/6bvSec5B/wgiB4Ykl+imVYB+oiwO7tbvGm1hY3FoGa8IQs4QpZKiCxaJRKuOEuouDCSV4Hv3gTCSd9vU3F77boOBBVigqpKGE2fAsjsOkQYIKw6baUF1QtCFi2A8tycPPONH7yxjX8+lw/eqdSGE2YSJo5pv9KTlpUeSSy4Fks6Cu5GKgegx+wSAKKGoC9u4H79gNd7YBGokl08FLsQv4ikpWc9op9LxPrQF6TmCrhd1s1fKtNx9FaBSFFYunlFUHlCxiBTxBggsBPAyNQIQQocyGZsXDl9iT++dcf4+Wz/RhNmph3JJh+aWbxVp8nYyD37XhVc/RdDB5J8KWY/aJNFpEVIgsGsH8PcOQQsL3LVVUUqZDrTA6WwmIp44s336gEfKlZw9daNdwfU9EUkBGkgpmrwpJvZgS2DgJMELbOXvNK1xABOqMWUgam5zP4sGcCf//Sx/j1uQHMmjZsXYVDr7j+mz3NK19KYVlJgqg1fXdJaBqfajKQ9DLFImSSwIE9wNFDblYDqSqWXF2yjGBT6mQxjS63HJDk06cbNXyuUcWDdarIZqilCo/FpG8WMy5fywhsMgSYIGyyDeXlVAcCJFA6PpNC/9gcPrg5gR+8dQvvXBnFvGnBEfWQvNdccQCTBSHfey2Z9j33QDmWdQ9BcFxdBEEQ0gBlNOzqAvbvdqWXKVBRD65tGeh8pKgQfpB7je0gKEk4HpVxolbFI/UKnmjS0BLgCo/leJS4j62BABOErbHPvMo1RsB2HAyMzuFy3yTO3pjASx8M41zPFJKGAYd0BwRBIG5AqoVynkPYEznKtjL4ayjVsuATBOE28D5WlgWBCEJHM7CzE+juAFrbgCgpK3rBimuBYbHWAprTEi4QXQJ2BCTsC8p4PK7iK+06tocVaOxjWIud5DE2AQJMEDbBJvISqg8BIghX+ibx7qVhvH9jHKduTOHayALSpumqJwqCkGU9oP8Vh2O2ZoFPIvxT0FunHzhYdBmV3NRHslCYbsAiWREyaSBeA7TE3VTH3TuAeAOgaZXTc7qL9HhukGK204crj5WBaE2DArRqEp6Oq/ij7UHsi3IJ6GLg5Wu3NgJMELb2/vPqK4QAZTCcvjqCF0/ewslrY7gxlsDInAHDf3O/yw9O1RM9lcPsyo6S4lkXcpzmviWgVPfDXa4GjzQIN0MKCGpAJAC0NQHHDgFtbYAeKG+RJZ/YFOI6yLc/BQZNipRHBwjDEVoI/+OeMI7UKlwCukLPPHe7+RBggrD59pRXtM4ImKaNpGHh9Y+G8f03b+LUtTGMLhiYpwDFJd/6s1wK/vx914M4EP1TMdvCkGVZWDx0C5Bu9lMeSWVRNMe1IlAcAokekJBASxPw8DGgu9MNVizwUL4L+rwEwPtmIeRguWsKuZ8mYwOa4+DJuIL/dkcI99cpqNdkBDibYZ1/S3j4jYAAE4SNsEs8xw2DAHkJUhkLM4kMfv3BEP7p9R68f30C86YJci4se675JMD3PojgRd+64AcrkhqQ75rwvooz3hdDWgVBoIBFikmgvpoagEceBLZ3A+FwadkM9yw2l9yssK1LgVUoORAEwRFWhIdjCv6oKyAIQkdQRp3OwYob5peKJ7puCDBBWDfoeeDNiIBpOZhLZjAyncTL54fw3Tdv43zvFDKOl71QyqKF+yGHIGRbF0TQoX8NxTdkEYfcV3rfxSEIRbYFwVNXzKRclcWGOuChY8CObUBNDaBShcciovtWW7CpFItFPmyJINjAkRoFv9P6SbpjR0hGgPMdS3ka+Z4thAAThC202bzUyiOQMW2MTifQc2cGr1wYxs9ODwl5ZZNs3ZTeWFLzgws9dwBZFvzDzS/p7Gc7EDeQRR7lvSNlxx4IwuEThCyNBMpkIJIQiwBH9gPbO93iTeGoSxKWan5mRTFv9/5yir2nGAwJdtvBzqCMJ+oVnKhXxedArYKwwoIIxUDJ1249BJggbL095xVXEIFkxkTv8CzOXx/D65dG8OaVCfSMJmBSamMRL+CFTZHiFnzxIz/jgciDlzqZmw6ZHQi5KL+c86pOYklEEqg2gyje1Aa0tAANjUAg6E5rqdiCQg763GsKuacwMPJfZTuiJlaTKmFfWMan4go+06zj4biKWoq14MYIMAJLIsAEgR8ORqCMCMynMrjYO4nffDCAtz8ew8WBedyZTcPyKwmVcSz3sM6qsSC+4RGEu37mH+rZ6o1+fYYsGWa6hwIV6aPLQHMMaGsBujqBzk43FmHJAz2n5POyloasH64BQSBuFpGBJk3CI3WuHsJnmjTUk1ACN0aAEWCCwM8AI1BpBChDYXohg1NXhvGTd3px8uYEBmcymE4JB0PlWm5mhIhByGNd8EmDn5IgjAeiXrOXJUFJDF6VR5nyA3WgKQ7sogqPu4GaSGnZDP7KyxVXUCiSNB5ZWGxAhQNNkvBIXMU3O3T8VquGJl0GexkKBZOv24oIsAVhK+46r7nsCNA5lDEsjM0k8foHg/in31zD+b5pzNlAis7fso9YQIeiRLM/uDcD8b2s2VDBpnsIguGmO9LpSQRh707g4F6gttar6rjCasqRnljA8u65RBCQnDRKP1jSIydUk+Fr7Rp+q1VHV0gWcQhMEkoBm+/ZCggwQdgKu8xrrDgCbvaCgcGxObxybgD/8PJVEZxo6SosteToxDLM2z8wvRNSVHDMsmf42Qz+wSosCCZkx4JCWgHNccj7d0K6bx+smhoYVPRxOTnkdSUHWaWps5HzLReOg/tqFbzQrOP5Zg37axQ06G6FR26MACNwLwJMEPipYARWiQCdP4ZpYXQ6JbIXXj03iO+9fhNXh+eBoAoQQagKdzeZ26m0c1YswmKtB8/NYFuQTAO6ZKM2KCPaEkfwwE7Ih/ZiJhTFZMpGwlqCBfjfrrS5ZClXxWIKZ55ASs+SsCcq47F6Dc82ari/XkV3WEYNByuu8jeAb9+sCDBB2Kw7y+taMwTo7ElR9sLILK70TeHNj0bwL+8Pomd8AaIyUNXYsLOKNC1mNPinuSf1bFuQLQu1uoQdcR0dnY1o2L8N+t6duKmEcWnWwkh6hYiKShMEL64g7wYvpb/guR9IJOm+GgWPxVU81agLi0I8UBXsbc2eVx6IESgUASYIhSLF1zECSyBAwYnzSQPnbozi7LUxnL4xibevTmJoJuWmNpY9vXGVW3FPLQdfaIkKN1lQbBstUR0P74hh/65mdO7ugNbdgfczOl4dN3AzQWJMq5xDIbfnIxpC98EvbFVIJ1nXOA7qFAkdARkP1Kn4UpuORxtVtAWrbYPO13SyAAAgAElEQVSKXBdfzghUCAEmCBUClrvdOgiQT35yPo1XzvfjtQ+H8FH/DD4eTmAqYVQfORDbks+S4FV2NIkgWNjWEMHnHujCAwfa0dndBCleh1dnZbw4nMbleU/TQWRLVKBlxQzc07sfiFiilSIAICpBWBH+VXcAz7Xq2BZmglCBXeQuNwECTBA2wSbyEtYPAXqhNW1ST0ziR+/04Jdn+nFtZB7D8wYSRkWTG8uwaC8mQQQueh/DhGpb2NNai28+ewCPHulEZ1sdjGAQP5+w8d3BND6c9TIcyk0Qsg99341QdEnrFWBxANmysTci4w+3B/HFtgD2RBXhBSr3csqwQdwFI7CuCDBBWFf4efCNjgBlL5B64sD4Ar77Rg/+5cwAbo8vYN60kFku2r8qFp5NELxiT4YJzTJxsLMOf/xbR/HksW60NkYxLyn48ZiFfxpM4/wcpUaW0XqQz2KwSkvBkvB62gg7wzK+2RnACy069tXKiKkSdK7NUBVPJU+iehBgglA9e8Ez2YAIJDMWpubT6Bmewz+83oufnxnE8EwCtgw4ZTxDKwONTxA+qQSpWBZCsHBsexz/9nfux9PHtqEhFsKE6eAnowa+e8fAuRkLKcuBWaKZ/561ZFsLytXncoA5DroCMl5o0fBMo4bDMTebIapK5aQ9ldky7pURWEMEmCCsIdg81OZDgJQTBycWcKV/Bj98pw+vXRzG6HzaLcxU9QSBgv0o7dHLYDBNxHQJzWEV9+9qxH/9wmE8fLADdTVBzBgO3pgw8NKIgbMzJnpSDiZNBw7Z5QtdZ7aQUfaj4CsergU5oHEdBy26hEfjKh6p10QJ6CMxFY0BueClbL4nmVfECNyLABMEfioYgVUgMDyVxLXBGVzomcTPzw6KDIapZGbjEARfktk0RBXHrroAdjVHcGJvM77yxD4c3tWMmnAAC6aDy9Mmzo4beH/GxJuzNm6mHThkli8kxm+RBCxRs2GtyIEgCEC9ChyKKjgWU/GpuIonm1R0BJXFIpmreCT4VkZg0yDABGHTbCUvZD0Q6B2ew5nrYzh5dRRvfzyOK0NzmEv7QXzZKobrMbsCxxSRliaQTuNQZw0e3NmAh/c346lj3djRWodQUBPxFMMLNnpmTZyeMvH9UQMfJBzYuQRBLHkJEiBUngss6lTg1Iu6bJGEOAhLEOmNeyMKnmxU8ZU2HbuiMjSqhMmNEWAEBAJMEPhBYARKRIDOust9U3jtw0G8/tEdXOibweBsBklSGhQHDfn4swohlThOxW+jg9OyKR0Dn9oTx7P3teDRA804sqsJLXVh6JoCWtKc6WAkaePUlIm/6kvjvWkTNoX/+8F92YGF+bIPllJArPgCs6pZevyFxBNDioSuoIxnmhR8p0sXqY+6IkNhkrAWO8JjbAAEmCBsgE3iKVYfAqR9YNoOzt8Yxy/fv43fXBjCtbEEpjIODDoI/UMmtzhS7lJ8eeD1XiIxANPGs4db8MUHO/D4gRbsbK9FLByAqsiivFPGBiYNB6emDPz73jTenPSqVPov3T4BoKDDtXQZ3IPpUmB+Mi8Km6BPa0DCM40K/nCbLtwNEVVBQGErwno/jjx+dSDABKE69oFnsYEQEBZ5y0YiY+L0lRG8+O4t/Pr8AAbmTSQVBbaUc8Asm8tfJVYGIjKmjc8/0IGvPboNTxxsQVt9BKGAClmSxHlP5/6s5eDUtIX/tTeF18ZNt3BTNhlYTxeCsA4sw0xyf+Q4aFJlPN6o4FvdAaGuGA8oXJthA/0u8lQriwAThMriy71vQgRIWjmRNjE+k8bbF+/gxXd68eoHQ5ggeYBQACjmDVRIB3tphvmwKrdQUJ4x6E1alR0EJQtfeqgb33h8Jx470Iq6SABKDtlZsIBzsxb+z9spvDZhYiFjI2k462owWFzSUlkSeXF1GU9clUQWw5c7gnioQcW2sIIWrs2wCX9reUmlIMAEoRTU+J4tjQCJI03Op3BjaA7vXBrBqx8M4uTVcUyTmV5XiycIvvTxUu6HCpMERZYQD0roqlHw3PFOvHBiO47vbkY0qEHKkRek+MvrCxZeHMrgzQlD/H9fyoG5bk+EHwjqTaBQ14YgZg5qFQl7owqeadbxSIOGIzEFu6Jc/3ndtpMHrioEmCBU1XbwZDYCAhnTxtDkAs5cn8C7V0Zx6uq4qL8wRwRBlT8J2it4MUul/pE+gSfXXEGSoCsSumMa7u8I4cn72vH44S7s7W5AiMhOTiP16JGkhTNjBt6ZMPD2jIVz8zYydDAXqodQMC4rXOhnTGRfVhRBAKgMA1V4vL9ewxONKh5v1HCkTl3zpZQLEu6HESgnAkwQyokm97UlEEgZFq7fmcMvzg7i3atjuDowg76JBJLkj1eU8h2Uwp+fkwVR7qBGBwipMg62RfD8wQY8tK9FaB90NtdAV+99kxbZDBkbt+YsnJww8LMxE69OmkjRvCpVzCAfEfCftEIJwT3WGTezQZccxBQJJL38dJOGz7dposIjZTKwruKW+HXmRS6DABMEfjwYgSIRWEibONc7hb/+TQ/euz6GsZkE5lIGLNJWJoJQqSYUD7OsCqsdR0QeAlFNxcO74/j209txqLseXc01iNcEoVIKY07zsxko5ZHSHf+xL40XRzJIEHOoGEGoXFaERJzOdlAvO3i2WcPvdet4vlWDpiic7rja54vv3/AIMEHY8FvIC1hLBCj+YDqRwenrE/i/X76O0zcmMJPKwLBsN3uhUoekWKQX0Ji3CFQJokxC/wCoDah46mAL/t0X9mJPRwwNtUFEKHshT/Eij1MgZQOnpwz8bV8GPx7OYEHkdlagFRN4WMrwAgMHNXDwVKOKrxNBaNNQq6kIqiy9XAqkfM/mQYAJwubZS17JGiAgshdm0zh5bRz/z0vXcbZ3EguWBZtSAStKDrzFiViEnMN4UaCoSFEmeum3gFhQw/PH2vE/ff0+bGuOCnJA2gdLLYeGo0JNp6dN/PVAGj+8Y2Ah48AhKwK1UmIRlnIjVIh3LD4qHkGIwhGSy1/q1PHpVh1tQRUxTWLp5TX4neIhqhcBJgjVuzc8sypEYHQmJUo7U9bC3716UwQnpuiQoeDEUg7Gcq2x2HRJEnt0gIgmo6UmgOePd+B/+OphtDdEoCgre9/JiPHRnIXv38ngZ8MZDCVszBkOjJXWs+SBXzk3wl1kIB+5soEwHBytVYSb4YkmHQfrVLSFFZDiIjdGYKsiwARhq+48r7skBK4NzeLawDROXZvAT0/249rIPDLEDLR1JgiL9Q9yrQt08HquCX/FZDmwAYrV39GgYndTCE8dacd3njuExlgIlPa4UqNRbi9YeJeyGcYNnJy2cCNli0yOZS0ped0jK41Whp8L3whZWHL68gwyQQnYFZTwYI2Mh+o1PN0ZxO56FXoBWJRhdtwFI1CVCDBBqMpt4UlVKwKnro7h7M0JnLk5idcvjmBgKuW+Na+3BWFJwLLjFrzT0XYJQlCS8MC2CI52R/Dw/lZ84ZHdiEWDBREEGm48aePajImPpkz8bNzA6VkLE6Yj3C15W6XjCbII0D3jE0nyXSDZP/Qg0ah4kwrs0SUcq1XwtT0hHG3UOQ6hWn8ReV5rggAThDWBmQfZLAhQSefXLo3gXM8kLvXPYGLBoDg/V/tg5Rfv9YEhNzXSciDZVNFQwmcPN+CxvfU4uqsJnzrUgUhIE9LKhbR5g4o3Wbg5a+EfBjP4zbiBkYxX4ZG6uOdtvdIBBZ4edL5hhAVh6fEp96RWBpoV4EBExr/ZH8ZjrRoiKhdvKuRZ4Gs2JwJMEDbnvvKqyoyAKDngOPhPb/TixTOD+LBvGsOzKSRN25X/L+xMLfOsiuzOF1uyHciWg6gq45uPdeG5oy3Y31WPXe0xBDS14EQMEk1asBwMJm38Xz0pvHgngztpG5aohCStXWlnP8DRj98soVgUTVkhTQgJ2BmW8N8fCOLTLTrqAwpCmrIhtrfIp4EvZwRWRIAJwooQ8QVbHQE6bwzTAiko/vVvbuKnpwZwcWAGs4YFy6mSOgTFbJJtQyaZYV3Fnzy3C18+0YldrbWIRwNQyVVSYCONR8puHEnZ+N97UvjxUAYDKdu15K9F0SafEPjEZ7Xj2oAmOegISviznUF8ullDe0RFc0SBUqBVpUDo+DJGYEMgwARhQ2wTT3I9EbBsB/MpA3NJA3/zyk28+P4ArgzNiewFu/DzdD2XcNfYkmNDhYOGkIa//MJ+fPVT29DdGEGA3pSLsIT45/NoxsF/uJXGj+5k0LdARMpxqzxWsvlkwFOidt0Zq8yEEIGbDpp1Cd/o0IXs8r46FXvrNQ5WrORect9ViwAThKrdGp5YtSCQNmyMz6UwMpnEP77Ri1+dH8KN0QVk6DTdYHlwkuNAV8i9IKE9FsBfvLAfX3poG9rqwyXDPWk4+PuBNH4+YuD6nIXRpI2UUFYsuctPbvR5Rt64ArfgUtlKSdqADAd1qoTHGjU8GFfxqUYNj7foCBWQ+lmG1XIXjEBVIcAEoaq2gydTjQjMJw3cHJ7D5b5p/MuZQbx3ddzNXiAp4jxyxNW4BjEnx4Hs2KgLSOiu03CoNYyvPbEHTxzuRENtqORpL5gO3h418N64gbPTBs5MWxihEtCrDdzMdiEsRRDKaaig7A440GWgsUbF/joVX2kL4Pc7ddSqK2tDlAwg38gIVCkCTBCqdGN4WtWDwNR8GuduTuLtK6N488ooLvfPYnzegOlXbhQBeTTfIpUM13qJjgPFttAW1XC4PYRHdsTw9P3bcWR3C2KRQMmzoRLQN6YNfDhl4u1xAy+NGehN2y5BKEVHwCcG/ozIGlHBapaLC/fcFrSdSkDBzloFv9cZwF/sCCJOqoobJBa15I3kGxmBHASYIPAjwQgsgwCdGSMzKbz20Qh+crofF/unMTSVEhUNbVkBZL/+Apm7rXurL1YTurYDzbaxPR7EI7vr8NnDzTi6uwU72+sQCWolz9S0gbGUjeuzJn4zYuAHAyl8nLDhkHWlWIJAMQW5AY6VjmfIXrk3tiRL2B5V8HvdQfz57iAadVloYW3AkJOS95VvZASYIPAzwAgsg4DtOBiYSODHpwbwH1/twdB0EgnThmFLcBQVoAJNnvketvkJSag2VD0lQd0G9rVG8fyxVvz2w53Y1lKDxroQAnlKOxe6BOqaijf1JSy8dCeDv7mZFDLMixaEQmMRqCOLqlUWOnKFriNXg2ljW1jG17YF8cf7wmgNyQjJkgg5KXQ5FZodd8sIrBkCTBDWDGoeaKMhQJH4VJypZ3QePz7Zj//vlZsYS1owZNmr3JhTvZHKMdMntwmpY8+6sB4g+EJJjoOAouBIdwy/c6IT33piB2JRDeGAVrB64lLTp+JNlOL4i5EM/vp2Gh9Mm3D8AEKy2WefqgKPPEJKPtEqZ1xBIXjnKjwSQbActAclPNeq4+vdQZHN0BxWEFa5gFMhkPI1mwMBJgibYx95FWVGgM4M07QxMZfG9aFZ/PT0AP7+1R5MGxJsTYGjKEuUds5zuomD0rMuLDXPbB/7Yq6hUBxa/SsrkRZhpncQCOg4tq0eX3uoE99+fDt0oRQoFZXeuLiExTm7a76TdvDyhIG/GzJwYcqERemOIpshx9Xgyx6vNRG4h7gJRuLGj+SSBAto0SU81qDicy0BPNCsYXtMRV1ALtprUuZHk7tjBNYMASYIawY1D7SRECDVREpv7B2Zw6W+Gbx0fhg/eG8Ac+Ra0BRAKcIb7VsQFk8iD4nF3P3s4EYiBPSRAXJhyPQpYqx81gtxCFL5Rgl6OIT9bTX43IFGfPlIy6qSMChlUnIsSK7YNCjd8f05Cy9NWri0ACRsGRnHK4N9lwVhjYSUliRjWcTAv+aeuAegQQXur1XxeFzFE206DjbqaAyTaNJGepJ5roxA6QgwQSgdO75zEyNA7oWFtIHT18ZxvmcKb1+dwisXp5BwvOC7ok+JfPn69D16u7fcDzXxtk0ERAO0IKCHXJKw2kbBgooCtSaCjlgARxsCONGol2Y58OYi2xYUOw3ZzohXcBKOumM46MkAN6FjTAlgVtZg51pB1ttyQNaUAgIfY7KEvUEJx8MSPrc9jAdbdbRFFajFBl6udu/4fkZgnRBggrBOwPOw1Y2AaTmYXsjgh6f68fbVCVwemMeVoQTSKEN+f/bSRQli+ngxCmQ50EJAIAJoAUDVXcKw2iZy92TIoQDqAio6QjK2B2WUlt1PAQQ0ZxOybYgPERzTtjFvWpiybIxGIpipjSERCrkEYa1JgW+duceiksedsAS2VJehVQG26TK+vjuEpzsC2FGrIsiiSat9Gvn+DYIAE4QNslE8zbVFgOoujM6m8R9evomXL47hzlQakwsGTPGWX+a5ZJMEOshDMSBc51oRKNahHAOKcAYZkqogoMiIykBNyZ4LlxxI4mMLNwNMA7aZgWGZSJsGkg0xpFsaYcRq3WyGtcxMWFRfzMNKcmMNltlKsttEJCAmSfj23hC+0BUU4kk1qsRuhjL/CnB31YkAE4Tq3Bee1ToiQO6FlGELtcT/+b9cxS8ujGImZYJSHiv2IkwkgdIkiSBE40BN0yeWg7IREjfgUaJwBEeCXKr4EBECcisIq4erPggjBcdMwzHS7tfWOJzuVjgNdW48RaWAW2oNIq1zdYMKTkXaEY6EP9gTwm91BnAkrqIpIENnK8I6/oby0GuFABOEtUKax9kQCNB5Q9aD2aSB22MJ/C8v3sDLH41h3jArW3chmyDUEEFoWV1w4kpo56oVrnT94s+9lE2L3ArCnuLa7M00YKYAI+1+WuJAZyvQGHODLctGcrIm6gcW5nMnrI4bLC6LgjsVG/jtjiA+06bheFzFnnoNMZ2zGQp+ZPjCDYsAE4QNu3U88UogQNaD+ZSJsdkUbtxZwP/xq168fmUSC5blEoRKHHTijPWCFX0XQ7TedTFQgGIxJRYrAUp2n35GhplDEIgwEEkQBCEFNNQC7U1APAYEdGAVQkx5l+S7CopwGSwLTT5C4fUtO8BnmjRR3fGBBg0PtOhoDClFJbJUelu4f0agEggwQagEqtznhkXAtB1MzKRwe3Qelwdm8Z/eGsLJnhkkSeFPqyBBEKmI5NuHG5wYCLsZDHrYJQrV1IgsmZksCwKZ803AMl1yYCQBKv7UVAfU1QA1EZcklEJ0lrV0FJaNsCJ0S43hWSgoVOOROgUP1ql4sEHDU11BzmZYEVS+YDMgwARhM+wir6FsCJB7oW9sHhdvT+FczzR+cWECl4YWkKLDopIWBN9U71sTyFQRqgXCMTerQWgjVMp8USR8lJIpCIIbg+CKDdHHci0ImQQQUoCaIBCLAPE6oKamuLoMi2/0vupiOXwGS6k3LhOv4FWtPhyRcSgq40SThi/uDGNbTIVGAlNFQseXMwIbCQEmCBtpt3iuFUcglbFwsX8Gb1wawdsfj+PCQAID0xkYNHIZsg0LWoBwN9iAHnDJQTDi6SFo1UESfHcIWRJEwKKXokDfJ+JAsQiU7xGgVIkQ0NYMULBiIYJPuS6DRQJSEHLLX+RLP+e7ahlLBZGAVhXYFpTxcJOGb+2PYF+9tii7zCShDHvDXVQlAkwQqnJbeFLrhcBC2sR71yfw4vuDeOXiCIYXLMykHTcgfs1OAr+8sTdgKPqJJaEcmgirBtcTfSILAsUeEFHwXSTkasgmCVRGels70NJYmPpkvkO81GyL7HXS/pHs83JtmR8HHSCuQhCEP7svimNNGmpVGTqV41g1ntwBI1CdCDBBqM594VmtMQIiK84GZhIZvHFlDD84OYCXLowgQVkNJK+8xvMRwwkTvgVoYSBUA+hBTxvBqyLpV5Jcj7n586NgRYo9WCQIRBoybhwCfT+kAdvbgbYmN1DRP03zAuoRo3JpJtxlFXDgKUKXhpbpoEYB7m/Q8G8ORnCiSUdzUEZUY02E0gDluzYCAkwQNsIu8RwrjgC9uGYMS4gjvXZpDD88OYSXPxqFqUiw101aN8uSQIJJpKpIQYt6BFApw2GpglEVh8sdQMQcZBMEihegYEXPzUCMiwgCpTu2NAC64sUheHEF+WhXuZiYEHvM6Ww1fZsOwjJwsFbF13cE8XCzjp0xFS0RsiKwDWGNnjgeZo0RYIKwxoDzcNWJgGHamEka6BlZwOuXxvHzc6N48+MJQCeJ4kpmLxSAh+/zp5RHsiIEop4Mc8BVWlwvS0I+gkBVK8lyQCSBLCC6CrTGgSYv3ZH+7bfVHNiCoGRjl/UP33JQLksEDWM5CEgOusIqHmvR8WirhgcadRyoU0UsAjdGYDMiwARhM+4qr6loBJIZC0OTKZzvncJbV8bx1sfTOH97pjoIAp2E9DbuV3mkNEhhSQgDmlerYT1IQi5BWMxm8IIVKT6BUkPrI0B9FIiEgHDIjUVYLTnwCYIgAUtYCsoxRhaZUeGgJiCjq07D4806Ptem48kmDTFaIzdGYBMiwARhE24qL6l4BOaSBq7dmcerH43h3WsT+Kh/HjfHEu4BV3TlxuLHX/EOEajnaSVIiqeT4GklkOuhXDUbVpxI1gUia8FzMfjzE3OkN276fgaSbEOKqJBqg3BiNbBrY+URTVq0EuSrklnMIgq/lmiAosjQghKeatXxu50BfKEtgMYApzsWjiJfuZEQYIKwkXaL51oxBCbmM3j/5hS+d3IQ7/dMY3jaLc4kyEHJRY3KPV2PIFC3MhVy0oGA53JYjElYw8kKVcWsctWiNoP32m4ZkKwMZJjQNQdKVIfRUA+jIQ5bI+GnAg92nwjkswb4Usvlhnm5/kSBBglPtmr45vYgvtQZREtQFhIZ3BiBzYYAE4TNtqO8nqIQcNPuHQzPpPHGlQn81Wu3cO72LJKGBYOC3KrxD79QXKS5UWnoABDMznBYY60EcUhThkDGTXekuVEjgmBnoDgGQjChhDVkmhqQam2EreuulWGl9MVFcpCHTJTTfVDMEyPWCjzarOGrO4L4QncQXREVQbk4HahihuRrGYH1QoAJwnohz+NWBQLEAQzTwuBUEr+5NIH/99VbuNA/W5myzmVbsffmTqcsyTBrQVdQiQIY6f9JkGgtYxLo0CTtAwpOvIsgGJDtDIJ2BnJIg9HciExbE2ySXV6OHGQHF4r80/ViAzkb5pMa08GDjRo+3xXA851B7I6pqA9IQlmRGyOwmRBggrCZdpPXUjQCVHthgSo3jifw2uVx/O0b/bg4NA+L/tavobW+uIl7B+biISu5xIAUFwMRTyuBJr9WCyCWlUMQbIpBIIJgQDYzkHQNdkscdmsjnBAFVi5xmBIZyM0+qBJ+sGj1MB0ciil4qjWAp9p0HG/S0RlVEGI/Q3GPMV9d9QgwQaj6LeIJVhIBklYemkzi6tA83ro6gR+fGcaNsUSVE4QsRPwUSN+SEAgBoZCrk0Da0A7pQ1c6TTMPQRASzJTuaLhaCXR41tcAjbVANAwEiSTkEBg/pqCc6YnlfHiyLAidYRkH6lUcb9TxQlcQxxuoBDRbEMoJN/e1/ggwQVj/PeAZrCMCMwkDl/pn8cGtaZy6OYXXr01hYDrlvsTm/r2nNMOV/OZrvhZfTMkNnpN0HWpdFHIwCDg6HEuHbUuwpXtfzMs31XwEwQuoJJJA1gXJAiI6EA24JaBroy6JycbTtxRUi8UgF6AsghDRJTRGFOyp1/CdnSF8tk0XwYrcGIHNhAAThM20m7yWohEYm8vgrSsTeO/6JM71zeCjoXmMLxhwfF/6Yo+UzUAEgYLrqu0V14tJsGwEQyoaOusRqY0AThCZtIa5DLBg2EhRyYRKveSKGARPGto/9LMrPDpkRYCrK9HcADTFAQpWJCirlRAsQxAoxEPXZXTFNPzFvhC+2hVER1gW8FYK4qIfbr6BEVglAkwQVgkg376xERiYSuFHZ0fw8qVxXBqaBxGGZNp0CcIiESByQIF/ngVBHHxVRBL8QD7TRlt9AE8eb8XOjjpIko7xOQlXxwxcnTAwPG+5YQmVOMFE3QjbJQlkNfB1ESgN0kwDdgYglUUK/2xvBtpbgGBgwxIEWp+qSuiIKvjzg1H8zvaAyGYg2Qy2I2zsvwk8+08QYILAT8OWRIBSGylA8cZoAn/zzhB+9uE4ro8mYGfn9mcTBHplJJLglzfOdTWsp/uBMh4dQDYd7G+N4E8+ux0P72mAoqron7Hxzq0U3rmdxNXxDOZNB4bjVOalXaQAenEHRBh8YSdR3THtfTJAVwvQ2QaEgi5bqUYLwlLuDrFGstg4wiDSFpbxhwej+PKOEHbUKIiqFG5RCQa2JX9NedHrjAAThHXeAB5+fRBIGxZIPfHjoTn843t38PKlSfROpj9RTRTkIEffn6Z6l2XB9fuLj3gt99MP13ZNQuGPrPdwcLi9Bn/+3E48tr8RoYCGiYSND++k8cFgGh8Op3FhJI2JpAWTllbuc0yQK8tNecwlCFb6k0yH9iago8UlCLmBimsL3dKjEQnIF2/iazNYjoi7bArK+MauEJ7vCmJvnYr2CGczVMsW8jxWjwAThNVjyD1sQATmEhmMTifxYd8MfnR6GG9em0H/jOFWHKRaAaL56YRe5UIyl+e6FsiyID70Juz9fI0DGemcD8hARAGOd9fiz57bhScPNCMW0pAwHAxMG7g2msb5oTR+cnkevVMGkpYjAhfL2pYkCK7ssiu/bAItje4nHHBll6tJP8DnhCYpRC5h2vBIAolsxnUJz3UG8XSbjsMNGvbHNcRoM7gxApsAASYIm2ATeQnFIzA+m0LPnXm83zOFX340gbN98xieNwE1nySe9zZJBOEee7iXQrgYvHh3VsGiYJGvflj8VFe8Q5YkxEMKOmo1PLQ9ht97bBse3BVHTUgFnXMzKQtjcyZuThp4uSeJyyMZ3JxI49ak4a6mXEQhL0HwrAp+yiN9pQBKUbwpDIRJ3InUH1dcZuUu8GM4FvmAp8WwgkAT0QCq5KeTOtMAACAASURBVEik4EiTjseadTzfGRDBitwYgc2AABOEzbCLvIaiERicSODCrWm8e30Kb9yYwcejKYwnTM9lsER3iwWJsn4uDhV62/Tkj7MJhIhbIOO/55oQZvfyN1WW0FUXwOG2CB7dVY/PHm3Fvo4aRAKqsJITSUiaNqaSNi5MGLgwlMI7Nxfw5vUFGBRXWK4wgHsIglj4J64XsiCQgBK9YYdUoCYC1MVc3Yb18tv75IDIgNjLbKvRynulKhIiYQVdMRWf6wjgj3eFsLfG2/OVb+crGIGqRoAJQlVvD0+uUgjcGF7AGx+P49XLEzg/uICBmQzmMiVkJvgZDXmzGvz4BC824S6CkfUzcS6VGKnnUOaghH0tETy5tx5P7ovj/p1xdDWGENDcg4p6togkWDb6F2xcH8vgzK0FvHNjAT0zJoYXbKTJ577a5qc1ZmcyLKY8Wq57gbIZZBtQbFcLoakRqImuDUHIt71+LYlFguCBUCAcggNqMlqiKr7QFcC/3RfGwTpVxISsp1FktVvJ9zMChAATBH4OtiQCF/rn8JOzI/iXD8fQM5HCQsZCptRDMp9lwT/0hWvB107wTx0iB17cgoj0X0XapAUEJQn3b6vFlx9swbOHmrCtMYz6qA51MZbCnQIFJs4bNibmLdyeSOHyUBI/v5HC6cE0plIlkKN8T85dJIFSHj2riVB89GIRKKPByQCxWqCj1f1a6WBFP/vADzJcnLu3J6tZviyhOSwLRcW/OBTBffWakHuohirhW/KXmxddNgSYIJQNSu5oIyBgWjYog+FUzwy+d3oYL14Yxdi8CbsSJu7soMV70iKzCEJu8GN2VsRKlgUbCCkqHttTj99/rAPPHWlCbUhDUFfyxv7Ri3LGtDGfMjEyZ+AnVxbwZm8KN6cMDM5ayNhOycaMu/afrAUmuRSy0h2FiyEDpJNu0GJdrZvuSF8VZfWv3L7SYV7i4plRVkMElurXcdAYUvBsewB/cCCMYw06YgEJQUViK8JG+KPAc1wSASYI/HBsGQTorE2kDYzPJnHqxjR+cnYUL1+ewmTacjMXyk0SfMvCUoe8H7joxzGInfAUG8nC4GsyLCcUICkI6xqe2teAP3qyA8/f14CgKkNRXFW/fM22HUESyGpyfiiFj4bTODOYxq9uJjGTsoU7okAL+9LPznIEwSBNBI8gtLW4BCFvcGiRj+ZiPEGe+4QFo8j+CrncIyX1ARmfatLx1Z1BnGjW0VWjimyGakrQKGQ5fA0jkI0AEwR+HrYMAiSONDWfQe/IrCAIL304gbduzGCaIvUo3a7cBEEgm+eo9V0OS2U23CXKlON+EOmUbr9EAXRdRbwmKAjCdx5tw6f3x6HI8opLIUEow3IwOpfB4LSBkwNpfO/iAvpnLUynbKQMG0QkSm75CAJlMJCbQVR+NNwgRZJdrosCulYaScue4qKI0RKv+qtYzpI4eAShRpNwqE7DM+06HmsL4GijjraoDKUiz1TJu8I3MgJFIcAEoSi4+OKNjAAdisNTKXzQM4nTPdNC++BM/zzmDMd1GK/lH/NF68ESp5bQXfIyI3wLxKLrQRJqfroMNNfq2NsexeN74/jC0Rac2BGDVOA6qNsUCUalLVybMPBGXxpn72Tw4UgG/dMZZNKU4kAyjSVE3N1DEESopOty8AlCSANiUZcghENAIE+Fx+UeOBFYmJN1IGIg1rC+g0cQyJ3QElawJ64JXYQXugLYF1OhccbjRv6TseXnzgRhyz8CWwcAeiPuGV3Aqx+N4lTvjMheuDqWEmJC6+csziEI4sChgzRLc8FPvxOqjVTCWQJMCxFZwoG2EJ45GMeJXXU4vjOOXS01RfEcOmNJcnrecDCesvCbWym8dDOBs4MpTEwayGRsV36aWjFh+UJymSwGVJfBt6R4JzcRBApUpFB/qoAoSEIMiERcS05uW7w/5wcEEflDsg01lbASLPcr4hEEciVomixSHr/UHcQf7ArhRKOGoMpxCFvnL8zmWykThM23p7yiJRCwbAcfDczheyeHcLp3RogFDc8ZyPiHTLUgt0gQvAn5qXjiTV6GkEA0bcQ0CSe21+K3T7Tg+I4YdrTWoCUWKoog+EumDAfiSeeGU3hvII1TAymc7U/izrSJFKV/inO4CCJFloLFT7YCJTESIggZt3CTbLnCSY0NbjaDRhUOspofV5CPNIiflSNgYhUbnx0YSZkLiozf2hbAH+8N4ZEWHTW6AtJK4MYIbEQEmCBsxF3jOZeEgGE6ONk7jX//ah/e753FxIKBZPYbckm9VuCm3LRJYUr3sgFoOI8gxIMqntoXx7ef7MDhbTE01QZRG9ZKmpBwADjAeNLE0KyB88Np/OBKEucG05imLI+0DYrhEPLMhZx3i3EWVJuBrAhU7dGzIFAGgygPTZ+0SxBam4H6OjcWIbvR2kVdhDzL8i0La2018KfikwN/fJJ3cBy80KnjO/tC+FSbjnhEQ1DLn1FS0kbxTYzAGiLABGENweah1gcBOpcypoWFlIk3rk3hf3u5D+f654S64IZoIgLfczlk+dwbIzqev68Rf/pMN+7rrEFYV6Gv0ultOySaZIu0x/9yI43TAyn0jRoYm8oIyea0TdUgCyUJXoyAKN6UVQJa1GTIAJTNkEkBNWGAshniWQTBq33lZnIQKVovFrBMPIMf7+AZV2iOiuWIQMWv7w7g4dYAumIaYiEVCqczbIhfNZ7k3QgwQeAnYtMjQK6Fqfk0RqcSeOvqJP7j64O4OJxAml6FK5HeWAlEs60KdNgoEppiOr54uBF/+WQ3DrZGQJLLchkOIsuxMZ9xMDjvqi6e60viVG8C18YzGE1YWCB/BI2zkiXBd40sRRDo+xSPEA0DzY1uuqOu393vulsJPIJSyJ4SLAAebtTwQpeOh5p1HGiibAYVGrsZCkGQr6kyBJggVNmG8HTKj4Bh2RiaSIj0xneuTuF7J0dxfTyFNAX9Uf59gVH/5Z9ZCT06DlRVRjCsoKMhgM8fasKfPtqBPY3hsi7Dd/0Pzxr4YCCFNylwcSAlCj6NJmyICAIiAMuRhLwEgawBZEEwXCEl+hoKuNYDkl6mTAY1Jw6hBJjKcksJGRHEmw7UqXi4UceDLRoebw9iT70qRJO4MQIbDQEmCBttx3i+RSNAokDXh+ZwqW8a796Yxi8vTaJ3KgODeqq0xG/Rs13uBremQzQgo70+iH2tETx7oAG/c7wVXfHgii/0pUxlPm3jzqyJqyNpvHsriTMDSdyYMDCWsDEvLAnLuBuWIgjCZUK1GYgkZCByAaNBIBpyMxmCofXbl+yMCd+rUYR3g2hAU1hBZ42K+5s0fGOnG6wY1ZgglPL88T3riwAThPXFn0dfAwRSGQtne6bxzrUJIbF8emBBZC/Q+bahmnewNoUUHO2swYPbYnh0Tz0+tbcBTbWBiiyFznhKg5xK2Hi/L4G3exO4MJTG9XEDwwlXmpmIVn4o/RgEklj2YhCyXSUUvEjpjrIJ0AFKloRYDKghZcV1sCLkBh2WiKiiStBUGUebdPzlwbDQRIjpsuBS3BiBjYQAE4SNtFs815IQWEhbePniGF48P4r3b816lRutdY17K2khlI5pmeis1fHMvjie2h/H/TvqsLstihoSHapQo3MzbTjonzZwfSyNj0fSONOfxsejGQwtWBhLWktnN4ggw5yUR59OkKtBxCdk3CyHgArE64F43I1FqFRb0jKwRLZECfMge8HRBg3/7mgUX9geQjwgQy0gbKOEofgWRqBiCDBBqBi03HG1IDCTNPHDMyP4x/eGcLZvFknTEW/FG64RQTAs7KwP4IvHm/HCsSYc7q5FY01gsbRzpdZEYknJjCMyGW5NGHivJ4EzAylcGc/g5pQpshssaZlyB1QCWhRr8rMZKBaBxJQoUDHlfqXy1KSH0NTkxiJUomXrFlTqEbAcSJaD+xp0/PnxGnx+RxBk9eEKj5XYUO6zkggwQagkutz3uiNAKfRTCQPfPXUHf/vGAM73z26czIVc9IQmgI09jUF840QrvvRACw601yAcUNYsjY6I1fi8iYtDaZzrT+H8YEpIM48kLMyZNqisBQk93tPIPSLkl8la4J3M2QSBUh6JIDQ1As1lIAjLHf7Z6YmVeEJNB5Lh4GBcxR8eq8HndobRHlYQUV1PCjdGYKMgwARho+wUz7NoBCh9nnL2x+cN/Of3BvH3r/fjAhEEXXVJwkZqXmYhpTEebIvgmw+14ivHmrG3JSxSG9fq3BGaEpaD+ZSNnokMzvYlcZaIwnAavTMm5gyb9BHvjUlYJAiGW2OCmiAI5GZIu19JZrkx7hZwWq2LYTkSUCnLgf88eQRhb72K/+q+KJ7bGUJ3VEGDLiFQhjTUjfTY8lw3NgJMEDb2/vHsl0GAjiEKRCTFxO+/N4S/f6MfH/TPuVHzGyl7wXEg2Q5Cmoz6iIrj3bX48v3N+MzBRmxvCK35M+AXTRybM3FtJI3Lw2mc7E/i0mgGd+YtTKZtpPwiT/7s8hIEUlf0SYLhWhAa6oDG+uIJQu6hX2krwXKoewRhX72K3z8cwfM7QuiKqogxQVjzZ5UHXB0CTBBWhx/fXcUI+O7myaSJ75+6g797exDn++eEMF+lXyLLCotlQ7YsNEZU7G4O4bG99XhqfyMe2FmH1liwrEMV01kiY2Ni3sKdWQMnb6dwfiiFq2MZXJ80MJmyhath0d2QjyAISwK5TTySQOUp62OeomIRWQzZcQWLhKSYlZT3Wsl0IJsODsVV/OujRBCCaI2oCKsUqLhWtp7yrol725oIMEHYmvu+pVY9l7Lw0wtj+N77wzhzawYzCwYyhltbQDSyJlTr321RbtGC4tjY3hDAYztr8dzhRhzZVodtzTUl114o5wOQNGwhpkTxCOcGUni/P41bswZSlALp11LytQ9IHMl3Mfg0Tfzbci0IsYhb/jm3aNNyEy5B0Kic67+rL9sBKVJEJOBoo4Y/OhzCZ7YHUR9UBTkotBR3xebHHTMCRSDABKEIsAq5dPHQ8S7O/XduH9l/MPiPRyEIF39Nig6wvhmcvjmJUzem8c71aQxPpSkhwH3DJTVFRXFFf6qliepJVOjIhqRIUEMKDrVH8YVDcXzpcCO2NYQRi1Q+e6EQOKikxdi8KdIgyd1wpj+Js4Np9M2YGE9YImPElT/wik6Jwk1ZkQoUD0KEgNIcIwEgqAsp6aLbepuFbCpO6WBbRMHBegX3N+t4bkcIR5o0RHRZKF2uXbRI0ejxDYzAPQgwQSjTQyEq3dk2TNOEZVmLH/oefXyiQCTA/9DQiqLc85Fl+mNSwh/IMq1ls3VjktTyVAJ9Yws40zONn58fx43hBBJpSwQxWhQcp8pwqgxzxbIgmxa0kIpwXQBHumvwxUMNeGF/HA0RHRo9O1UQS0HnsmE5mE3a6J3I4MOhFE72JfHxWAb9MyYSGUf8nP4TRgMiBx5BEG4IQQ50lyDQR8SIbKynUHIAFRICDnBfXMXDLTqONes42qyjq1YVcbFMDjbWnvJsASYIZXoKDMNAOp1GIpHA7OwsFhYWkEwmkUqlkMlkBGEgkkCEQFVV8VXTNASDQYRCIYTDYfGJRCLQdV1cwyShPJtj2w7mkwamF9K4MbyAd69Po2dkAaMzGUwnTSQdCZYswa4iPwPRwwBshCQHDfUBtLVGsbctige7a3GkLYKwTiWE5SqaMZA23RTI/mkTV0ZSgiyQVeHOrI1pElNafMOn3wVXXMkm3ImgaZrrYiA1oUIKQZXn0ShbL2SEimoKGoMy7otrwr2wu05BR42KWEARRipujMBGQ4AJwip3jA59+hAZmJqawsTEBPr7+zE8PIzJyUlMT09jfn5ekAS6jkhBIBBYJAZ1dXVoaGhAY2Mjmpqa0Nraimg0KkgDWxJWuTlZtwsLjwMk0iYm5jMYGE/g+tA8ekYTmEjZSNtuxkO1NDoj63QgHoTQOjiyswEtdUFR0pmqNlaZsUPA5nsRqHrmfNIU+hN3pg1cGMqgd8KEkSNOZcoSMqoMc1FiMMtqtsEMaEFVRketir3NAeyuU9EZllGnSVAkSfAdbozARkSACUKJu0YHP5GB8fFxDA4OYnR0VFgO5ubmBCmg/yfSQB+yLPgWBDr0yTpARIG+kgXBtxzU1tYKouAThra2NnR3d4triFSQ1YHb6hCgyo7kWpiez2BkJoXRWQMLhivw42Xnr26AMt1NBCCs0FuphPb6ADobI6gJ64IcbISWMSwkM5awHAxMWRibt2H5QaHeAshqYyrk2lmm4NNGWCyFsSgS6kIK2mpVNIVkxFQJIaU6idwGgZSnWQUIMEEocBN8S4EfU3Dr1i309vbi2rVrOHv2LPr6+oRbgcgAxSHQddR8YuDfnx1/4A9N3/NdDrFYTFgROjs7ceTIEZw4cUIQhpqaGkEU2KpQ4IYtcZlbfMgWWQxJw0KahH1sx019zCsBuLrxSr2bzkyK3SPTdEhXEAkoIuagGi0H+dZI0sym5cYeUAxCioI9spqwNog0SGljpZwusaG0LzqRAk1GUAH+//bu+1u3qjof+OYiiBVBA4ooxQJ2bCkmamLUFOwVMRo1RmPG+Jr6Q/6CZCQjphqxxgZ2QUFIaEHFLiJFqYqAVAEpKk249zs+657nuNi+bb/nPffec+46Y7zjtPfde+255przmc+ca66dN2AP5p399rkmgW1DAg0gzDAPnDvHr55A2uCaa67pLrzwwu6iiy7qvv/973dnn312d+WVV5b/AwT9QsSRBnSpcLFfwKgGAYuAPTjwwAO7Jz7xid2DH/zg8vsee+zRSUlgEwCF9jW/BDbvjFuqrl+6zDaUYSgjin/ZrE/b7k7McbOQk5NHtSmYf+a24U8uzdFanKttWKptaFtRAg0gTBE+cMDpAwZXXHFFd8YZZ3Rf+cpXOgyC9IL6AsBAkaL3cfj1Lob8rX+b7GqQZsiL01egmJc6BPUIj3zkI7vHPvax3UEHHdQ95jGPKYyC97SvJoEmgSaBJoEmgdWSQAMIYyQbYIA5kDo4//zzywtA+MY3vtFdffXVZceCdELSA6ktUF/glV0Ivic1UKcqAh6yPdK9AI0wEGEX9tlnn+7hD39496QnPakwCuoSsAlqFlKXkG2W9eO0dMRqLZt23SaBJoEmgfUvgQYQJgAEAODGG28sYODkk0/uvv3tb5cdCooSgYb0PODIRfTqBNQQ7LnnniXKF/2nwBB44LA5cp+zqwHzoJgxBY8KHRU+el9SCMBCrvuwhz2se/SjH9096lGPKozCIx7xiHL9gJm69iHFkADEqO2SbQvl+l/c7QmbBJoEmgRWIoEGEEZIj8PnwKUQLrnkku573/ted/TRRxf2wK6EfMXJcsacuNoBBYb7779/95CHPKTbfffdS5RvlwIAwVnn2sABkKGeAeC47LLLStEjAJJCyHwPEHE9xYvSDL/+679e2ATXxkR4T9IcxmdMahXqFEZ2Tvhbei00lmEly6d9tkmgSaBJYP1KoAGE3tzGgYvqzznnnO60004rzIGf1SD4f9gADne33XbrRPbSAMBBXqMYBIAi0T5nDiTYFqm+ARjROwFAABryu795b1gKrMRee+1V2AP35OCBmboGwiO5V4AA8GKcChwxHH5OvwUMRJ0OWb+q3p6sSaBJoEmgSWCIBBpAqKTFeXO0aH9FiF/72te6L37xiwUkcMKi9DhfjpXj3W+//brf+q3fKtR/Ugt1N8SkC+rtjaktqGsPgAUFj3ZD2BmR3RFYCwwB9iFpB/fGTChiNF6shrGlviFjdE8sAkAAVBif2gU7IoAaIMZ1PEcYhXEpiSFK1d7bJNAk0CTQJLD2JdAAQjWHHDEnraeBQkS7Fc4888zS6yA7C1KAiOr3ssMA3S+ilwIADkTuQ7+SJsAcpL/Cl7/85e6UU05ZLlwM++DaHHm2X6YR06h7Gi/WQJdGgABY8F0KxN/SvRFw8D+gozEKQ2evvb9JoEmgSWD9SaABhKU5TWpBQSLG4JOf/GTpb5BtjN4GJIi4OdinPe1ppQZAvYE+BZzwvGcoZAcCkCDlIMWg9gF7cdxxx5Ux1PUFUcMAhjRlCnNQ/9/PATU5A8L3MAtAjh0ST3jCE8p3dRSeJWdBtGLG9bfo2xM1CTQJNAnMIoEGEJakxAGrBRC9f+lLX+qOOOKIQvNz+ih9jhI7IKWgSPA3f/M3y04CuXyFgvO2QU6aod4xAaQoWsRefP3rXy/FjElxBEzUp0QaGxCQQkiP5P/ZNpnP1N/9rJ4Bc6CWwc4IAMHzadAEJHjudmjULMuovadJoEmgSWD9SaABhKU5lccHDhQjfvWrX+2OPfbY4qRF2gAAZ8mZSic85znPWY62k1IYGmmnURJgAhzY4giQnHXWWaVDo2JF6QYHQGUXg+/1zxgHX2oTjDEshr+5rs96rtQ8pB9DjpjOaZKeATMiRaK98+///u8X0JCUSevauP4WfnuiJoEmgSaBaRJoAGFJQgoTnanwzW9+s3wXuXPQAQiYAhH2s5/97O4lL3lJydfP+xXWACsgpZDtlFIaCiO1cQZO4viz+6HfwhnI8DfMATZA6sN4/Q174Lqun10Qeb9x9xs2KZIEGHRrfMUrXlHYEQ2ZpByAo3kZknll1D7XJNAk0CTQJLB1JdAAwpL80fqf+cxnSkMkLIJ0Q3oeiLBF1diDxz3ucSXKVsw375frpv/Bd77zne673/1uAQSaJPm7mgOsQn3gE7YAg6HmITsSOG/MQX18dPoaeH9Ok5Si0PCp3k6ptwPwkO2QAIPP2gqpgFF9xVOe8pSSelCnYKfDPMWX88qofa5JoEmgSaBJYOtKYLsFCJyvyDq0PUpf3cHxxx9ftjiKphNlo+7f+MY3FvaAs1T5PySizvkMSScAAmnAZLeEPgtSDPVBT/X2SD+7n/oAEb6dE/vuu28Zi9RAagX6qYA8Y1gKfRwAESmMtIvGNCTdUXdkxCAARE9+8pMLILI1MrUWQ9MpW1fF292bBJoEmgSaBOaRwHYLEETXcvQiay8OW90Bx6k5kagcde+7yP1Nb3pT96xnPavQ+NiDIXn5dE0EDNQZSCHU3RM5bk7cV9IJonX3ktrAFPgZKNC/AINgTBkLMDNuPGESXN/zGoPnw1p4Zls6gQbyyE4Jn3Ff9wMUnvGMZ5Q+D2EsGpMwz1Jrn2kSaBJoElhbEtiuAEIdKeuUiCngHDlrBYoiedG1egROUF5foZ5c/Ote97rSEMnfZmUPwkC4ntQBcPD5z3++1BlgDPwdg5G0QCJ+jto9DjjggO7Xfu3Xyq4CrAHqH5uRXgXZtjgpos8YwpSExQASHD6VZlDSD1IRvgCOgBUg4YUvfGF5doWLQAnGon01CTQJNAk0CaxvCaxrgLCp29Rt3LSpFOz95KafdNf86EelU6EXB+3FMXLUvnPigINommMVReeo5YMPPrhQ7dOcY7YXqiEQrQMfonTfpTE0XQJG1BkoUvTF0buuWgeAxEsaI/eWSkivhbAF89L8SSMAA+SAzbCdUi0ERgHLYOxYD6ACayDV8Ku/+qulV4ItnsbXvpoEmgSaBJoE1rcE1iVACFNwx513drfeflt30403dVddeWV3wfnnF2r93HPPLecqpEVxegqIrjltgIJzlPMXweelQFDaYdRXXWcAcAAfgICdCeedd165H8DA+bpvfdRzDnvSChko0JXRvdKtUYFgDnxaxOFKaSltLAARNiFdI40ZUPA/XxgTDIpUg94PT3/600uKYxHjWN9Lqz1dk0CTQJPA2pbAugQI2UZYouSrr+ouv+LK7tJLLunOXQIHomZsASfN0aXTYNoXAwle8u4KE5/5zGcWuh+jMCr/XlgKBy/99KfdDddfv8waSCnYESFtYcsh1kDkn/MOXEu6IK2QOWIROpAAnKDz7SqoCxYXpW5JPZABOdneiUnw0ihKzYJxAkSYDbUPwMHv/d7vle2eOeRpUeNp12kSaBJoEmgS2LYksC4BAucuSkfpf+3rX+++893vdhc7SvnSS0s6QXTsPWEaciQyR5yWy9gEW/1e8IIXdM997nNLFT9H/ks7BTZt6u7cuLG7xtHQF1/cfe/CC7szvv3tkkqotyxiJQI8OGWgBDgAPOxM4HQBBMBAjwW7E1Ioudoqgy3BeJCXGol3v/vdJeWS1tH+DxxJNZCF8SqSxGy0ryaBJoEmgSaB9SmBdQMQkltPgyCUvlSCA4/OPe+87sorrih0uq8wBmkqlE6D/ufn5N+lFl7+8pd3f/iHf1jAgffXAMF7f/qzn3VX64J40fe78887vzvv3HO7s848s6QXjCVHQ7t2WiLnJEgMARDy1Kc+tUTonLC/TWMMOGxgwzgBGc+eSD/3G1qjALQAT1/4whe6d7zjHaWAE8jKfTAZGBVpBi/9EYx3W/hKC2lySZooHSc9V53OCSjMfGQLad1dMoDR90k7RLaFZ29jaBJYDQnU58PEPtZrZ9w9Uzg9ayH3SsZeN3uz3uszaVZy3Xk/m0Z2bEpt9+e93rbwuXUDECgHZgCVL+evZTG6nKOT+8+hS2lPLKcvCjaRHK3PxpEEIDiQ6dBDD+2e//znl2i/fxQyZ2QXBJbCvX7wg4vK7z+6+keFos8OhSw298QQ5IAnuXzAAHMAGKTWYJRi1DswpATS9MhzGTfGIX0ROLWkQoYABYBAseIxxxxTnkcqBrPgOdQiAASAwe/+7u+WdIOxb62vyCO1H4CMOSR321bJyPOYSy//rw+8SqonBaJAmzn2nFIqXuYrR2HXNRdDZLq15NPu2ySwEgmwKQKcrJ0cJz/pmtZFiq37wdRKxjLOHuYE3AQxNSu86PvNcr20svfs7EcC0Fk+u62+Z10ABM6CAgMHqH29DE499dTi5Pw9vQXCMpgMjABan4PwOemAOJAcn2xr32tf+9qSZhh1aJHFw6F+/OMfL+c3KPYThbtPjkyObuVYIAAAIABJREFUM+HIgIAUPLq3LYTSCRQpyHtUP4O6gZFFABxIBygm9LNntOuB8wZ6OLlshSxIfocduh1m0EDPb2eDZ3KSpBd5ur+F76WQUldJMtFVcksXK9ZRg/F6AQIAQfo8mE9sEbDg70CU96T4lCjCHKRNNZkBA5gSc0I//GzO/C9zNMvW0hlE3d7SJLBNS4BtS/fVHBaX4GrcwK0pa4ctErCsJvuWQmvr2jrPNm22cGt9hXFMMMWebAkmZTWfd80DhHrbnh0Dmh3ZqaAwkMMOXR+noJYguX5OmvI7e+GMM84oP7teAIIGQQDCi170opGNiESsivve+c53FoDg8xaRa1AWCmKxYArcV4SfXQocucU0bduka4XhkDYBCrzSwyFjhlhzD/0KMBV77f3g7n677dbtfLedug1Awg6TYQIQ43oYlxNPPLH73Oc+V+QClPis/1N+hYovfvGLuyc96Unl93E7O1ZDcRkA8wOI2TqabatkU4OC1HwAEAEGYYgyruiG8ecFCABX2IOcdmmubDMlV/OZZ54mz9V4/nbNJoEtIQG2kz1l3wRPbMA0gMDmZWs2dhG4ZpdWY50YS4BBDrlLw7ctIZ9R9/Csggr+RSDIBrMna/lrzQMETguK5NROOeWU7rDDDitOI07N5ERBOWM5f6kDPQ1MoEj8s5/9bPe///u/BTEHmbruNIDAmQIG//qv/1pYC0rL0QTFctjy9hypwj6pBcg6Dga6HNcBsWYNOD7PJ7I/7bTTSoMjIAH9b5yhtiB2zZT0K3jyU57cPfYJTyi/3wfdtdPOyymSSQs2tN1JJ53UHXXUUeXQKnKJoyXD3/md3ymgSe2EPgmeZ7W/kkpIZAMQMGDqTLAcXknrkF1qCjL/kXOePWmfOlWRe/hMdnBIqwB2tnk6m8IcYlHq1MNqP3u7fpPAlpJAGDrriU389Kc/XWzNLDl+AIFj/O3f/u3ltQJQD+k6O+tzskdsIvvNJv7P//xPCQyzU2zW6yzyffrDsA3s78te9rLia4CGtfy15gECRaHAUKTteeh+VDNHEFrYJKVVMWDghT0QGXK2n/zkJwtI8DlfOf1wFoCgf8Db3va24kgtLpFnjk7mTHI/yJryZEzjlCbAAMBBlXOEiZLVBFi4kDKEz3HnsKVQ/ZRU6sLzPfyAR3b7PPShm6Pfhzy0jEt0PEvET5YMhOfS6EnEDogBCIoUpRk4TGjZPVcjSoiMahAIFBmPeas7YWITMAXeWxcehiWIfGqAEJCQPhjZHluDrqQZsAdkKjIiT6yQZw+VmgKltWwM2ti3bwnE9tS1SGwjG1QHWn0pBVRYA2yCbeGAAlANXK8Gzc5GYzbYfjb46KOPLillY08n2C05m2QQgAAYqF3TXK4BhC05CyPuheZXbyCCpyB1qoAzFt0y5lAdZMt5AgvZRpgaAgBBpE7JQ6cNAQiYBNE3h6IWwOLQ0wBA4EhEnJzrtJx9OjFyyMamFbKTF+2KABjqYjyLAWqv8+NxiP62+/3vXxboQU94Qikq9Owi/lm2J5KlZ4pcOWD3A4AYAbJxkJM20JiS1QQIqS/BFnidfvrpJWpI6iC1CLWhqh12/+eoUd5f/17vaKkLGRk5sjaXwIL5jT6Ryagala28NNrtmwQGScB6sMbZGetfgCDNKHCadOR7asCsHbYPs8g2cJAA9Wqc3TIKILCX/j7KKfft0yw7MiYJr75ebIa6JfaVr3nlK19Z5NAAwiAVXNybOQ10s4hS3YHteeoOFKtwov4PBOgzwFFTWEWHwAGEGVQLUGAdAhDCIHD2QwCC7ZSUE4r8jd/4jeU0hkI+zME4BF4W18aNpdHST3/6k+7aa64tz4Q1sBvDQkWjpfOj6D85couWoiYvL+XBadZbHz0v9sLz56An4/FKpe2oBQyUoPA5Yr0RsBeMB8DFOVJ+qRPXBTxWAyB4LmmDnGMBGAAI5GI89XbE2kFnwYYZmNUYhHmo0xGpW0iHTfOLecImSFWZX6DB34Ye4rW41dCu1CSwcglYL4IkLKVzaRQps2to+xQ9j7pLmLcc8qYTrMAIyyi1OgtjOXT0owACe2WdAuzj7FECqNj/ScxfzTDWBe4Za4rfY28Eh1IqAMIhhxzSAMLQSV3U+2ukK7XAuWMRrr766mUGgALJH//BH/xBafAj0lVzECMeBQIQPvaxjxWKaiUpBpQ858yBoOCBi5xdwHmM+9Jk6bbbb9+cT7v0ku7ss84u3Rc9l79JI1igHCVFBG5czyLEDrgnUARAoNyBBMofEJT+CJQXNa4mQeoDBZjzHUYVEgElnLACzhR+AgjYB/fmGFFpmAkAZDUAgmdBIcotAgeMlnFlC2O92Os8J0MVViH9EKaBhOxdro/Org1A6hPIlUwjTzIACBlCYKwxCYta5e06W1oC1o3UJdYy601UzsbQ+XGpgjjP7HZiA9nb17zmNcUOTivEnuc5AxDYPExnUgwY5Ulr0DrHrqYXzrTUYLZHp8fKKDsSJjKn7ybFIIjaEvVZ88hv1s+syRqEIF1RLgpccSKFhn5NfuhgUZ5iEQAh+eK+8iwKIAAoGA07EywKebgABKiy/jL+NPTRnvnaH1/XXXnFld1F3/9ed/q3NkfJFN/C9BVlTmU9Jy+KB3g4bYwD9gSwABYS9dZNgiwEC1c6QMQv+vUdk5BCw9o5AlvGQK4KlcjJvbAyPodKtBD0RGAMFlmIlDSL5wIOGCxMhvn2fOYwUUm/piALuN6OmLROP72TCCHyykKvo4X+Z7JLhY4Bm4pQgSQgAUNj/rdGDnTWBd/e1yQwSgIpzrbmpRasNwGCwIOtmtT4p1431i4bLAj5kz/5k9J5VVCRbd+Lkn7SjuqxjPWEE04o9g9AmFTzEEAQ8D9uZ0ZsQ/3c4xoxea/rCRoEb4Inu7zYRzZ7LX+tSYBAOSiuqF1TH85RjjzHFXPInCgKnIJKMUB3nEo/0q0BwkpqEAIQKAmAoNIfQOBA+gABKnUvub7vff973XnnX9Bdeukl3eWXXdZdesmlhclQgwAgUD5MiOcBCOS//RxamyxcS2SNek/hnhQF1iHXoOhpBCRXVhfaAVJhJLAJFrMxkDGA8NGPfrQsQosvAEHqxgJwVgWwsEiAkNSRQkQMBoAANGFSGKsApiy8AKGwBZ4TuwL8cNjmJMWZMR7Jm5KP53Jtz0xuQIjf/S/UagxLH0yYGwDJXAMKgBsZta8mgbUkAXotALDOjjjiiLK9EUC3Fn3VQLkGBPXfA+ytFfYFg2BLNKdpDS6yWNFax64aY1IiwALbOuk+7Ae7yL76fHZo1UxCXVPhOYw/NWvj7JzPs53AkAAKiyxgWA32ZEvq1ZoDCJSQ0ia18KEPfWg5Gk/+ncFWIMNgo34VKY7bj9uvQTDRaZjk85P6IAAk2cUAILh/n0EAEEToob05Iw4IlacaX42B3Nlll1/e3XjDDcspgqQJKBjnzQlDphwzx5cdCZTFfaUjgANRtqgbWMACWAAWTV2ZH5CUPbtxcFIFFgOmgYyNU0dKBgNT0wcIZPuc5zxnYQAhqB3gYahQhwAK+XDcKcbMYu4XGRbmaKedCiB7zKMfXaIYc5/55+xTb5H58JyMRQBRdkeQned3r3oHRJ12YKSMCeAC3DSPwhxhadJ5c0su5navJoF5JcCGcJzSePq6AObsW7840ZqrdwbVvUX8z3pia6xBHWgFSukWu8ieAOnZYu1aqwJEti5p2HFyAPwFU2yvl58Bo7pfToCO72qs2F1AIezguHRq0o/sJ9tDBmudTVxTACHIjgPhAI888sjugx/84HK+PQ7GpIpsVZkntTCuUKbPIFCsbHMcAhAU83DElEMxJBZBoQ6AwBFbOJyQ3QicOLRLqeXY0+QnVfmhrzEGSSX4GTLl7IJm0/rZIk2DI8CD0rsPwOAerh90XSu3xZ+iO6yEl3sYN8W2cMhZEScGoU4x5JCpRQIEz0GGwAB2SLMm0YFnAk7qLaJJA4TS5KQBJ82h9t9v/27ffffpHvTAB5Xn88rBV4kuUlOQg70YjnSoJDfzEiNC35K7jPzyeeNwTfcQLQEIAJ15Wuv5x3mdTfvc2pNAmg5Z5+95z3sKULA26HDNutF3tkGkbE2lS6m1a21kB5j1KO2W+hw2ZZF0u3GkxbIxAAphOyYxCNayICAv9s3nk5I0c4A/W2eNs2/YAGtaoDepfXKKnAUH7IGgdJGsydbQqjUHEEwch6F4RnHiRz7ykeU2wBTXBMqvH3zwwcVYc86TWn4uqgYBk0CxUqRIqXJ0M4WhmJy1BWjxlTMbfvSj5TMgEg2n8t7CzHOgy9N50d9TgFjn3+ve6ZwpRgEQkUfEUrivhZB8WaLw1GsAUBY9xw/1Q8vey0na6oRJsABDoa1GDUI6JEoZaXyiONJc1+xHKL7kTC2aIPZHPebRBdw8Cijbddfunrvco+iGZ0uEUMvMZ+v0BIPD0ABUGCpGBDNkPDGMNcUYwApQuo+iJMWfmBXpl0nFqVtjsbd7NgmMkwB7AZizE1hZLGS2DPYBAhuQZmE+I1XqvdZG7BcwIIq2FhIwAQ2L+qrrh8IGpp5gUsG0IIDvYM/YfrbRmq/Pr2HH0xX3JS95SQH+AjXreVSaOs9U29TUwq1G8faiZDjLddYUQKB8aCQGO/t0FdBxwGlzyZlyrJAfYz2N1qpTDCvZxQAgUFC1DtIb2VaIbuZ4EtUrpBEVW1Tp3EjpoqAWmetYYK5jqxD6WkSaYsJZCn4AKYDEfbMLABVnMYRSDx0YmhCKRqVxbgCC38mErAEFDpycUYZoNzUei9zF4F7uI6WAPbDNylj7x14HTJEVx8wQ/cbTnlYWMXCABdl5p7t1G3bYMMsauMt7yMI4yI6enXzyyWU8tloyLtntEKCQYlO/k500Df2zewbr0z/ga/CA2geaBLaABAQs9F0qUQdVwQVHyQ5F15P2BA5E1IIvtgGYZkvqAnDvFcxYDxysgC2H421Np5keD1KX0ihe7HBd1+S5BVO+v+pVrypjV2Ok3ihby7fAlGwTt1hTAIHxZqgZbI7d/vzjjz++TC5l5Eg18fHiXEW503JAiwII8uUADMdaothHPWqZkuKYOWnOWnRfny5YR8dhBjxnnLWFKKpXJ5A+BmnVXOfG+9qUoqMU33F4qHOv9C7n8NzfdcIsGINFkAWTXF+OfuasU+ORo6pX2gchOw+MTXGURWsBA1JASd23IpGD5yVrxsp8O5JbOmm3UHsbhoMD1wx1KYLA+hgLfUuxJONW10IkYoocjUlq64/+6I8KiEokMWm192spJr133LasyKUuIItc6+vVVdz9n7ekReqPs5bBqHEbWxxLvyZkkQ5nlrnI/fr3zbizL37aM42qb1nkswyZTzU/nL31p6cMe8GG1JR6UpIAOYdJ17PjIb0S2K3oIgcrbakWQSRufaap2JCxLfK9QwAC8K+fQQBCaou21hwtUg6zXmtNAYTsXtD+lwPxXe7fhFE8TtmuBbSWaBJgmNbFa1EAQaW9hYFGEzlaGJgNf0vTIymFOOAcJxzKKo2fAIgUSQICGAnXAw6gcc446Qb36qcb6olPnt71UpyjNkHaAZVoXDkGO6AF2+GVSDknlIXSd79U7GNJyHmlnRSTzweiMAfmFYjJSZX1mRXea3w5GAZ4so0VYzRup8qsiyHvi4EjE1EV4/l///d/ZccMWWZPeD/FA1QwqFJbr3vd6wqLlHqRcUalTnHMAgzSHKo/z9Gf+pAq165PtzOnYaoCALMnfNK5IEPlN+390Utji76ludm4vhXklwg2xWA5YCtjX4nhrp3auK1vea5+/426cLVO9dGVPE9dzOc6Se2FHcuzzMIOTpPvPP+35tKRNtulk1bL1t6cgCt1ygbcd9ddu49/7GMFUIjC2WDPkdSb9QDAY9Ne+MIXlkBnUWt0nmf0mXkAguDD82Jx2fSV6Nm8495an1tTACHnLjDWIjq5JNGdv1togAGkKnITeXNc04pE+gDB5MdBD+mkaIH54tRzIFPurQAo9Qb+hpoDXtKHwNhR6SlgtNgABYst15L3S5MjCB5YABr83/vGAaEYPs/kHpwuFkZ0js5XjOe+8u6odQYtxTbGmlcMHwPGIaMN5dw9h0W/kkVjbJwx0ILeBLbIK4Y6EWMcCzaDzBSiSnFYvMAhAzVtvmddaLkXFoF87LP+xCc+sZwWqiNaP4eWNA8Ks7RaxWKhJc3dKPkE7IRVmjY2sveMdae4zC9jbG690lyLnMg17BDZBJjS0xxpneOsA1ZXMpfTniFA05wbM50kY9/JwStnatTXSkvxnHVCpsbvFcZrWjAwaWypXM/9x72XbNKHI849acEUvFpH5iHnlwR805HMRRqYGX+OF/ezuej33pgm00X8X80PAMyOqUcw1uhB5oM9VU/wpCc/uTvgwAOL3fnv972vO/GEE4rtqAGCtUuW6oOs0Wc961kFMGMRVuuEx1nkMAtAiG6GQWgAYRbJbgPvsQBFvxSZMwllnjMJUM1//Md/XIoDKSLHNW1//qK2OcrdWVBhDbITItRzCij9HxIVeedESQsrimuBKszzu+dKlJUtlBwyJM4pelm0DAzDsottfDvuONFZM1DZFgkg5GwDBXnykIx2jEMoUDL0PDkIBYUuIuAAs0d4JerBkDAwdi5wwtI1/uaZaqMfp00PACM0/vOe97zS9jjV1ot2bu4pRaQWQb0LnePQwrJEvxhEbAwnnDazahEAObUjo/SQTDlz4Mw9kq7oyzKRPwdivm2fiqPlfNwX6HMdLwaec/J3cjS2MELkxrnmECpjY8QDFhjvONxFyjIAkw4FEJhzeu6V3h/1mCOHOGVrJw6VzlvfZBGgkK2/k5r6jNNTc2EcqHWyHPVFhinmJTMypHfWU1JSKfbDznmmPE868mUuyNh4yd8zeIm2rSfXjLNdTbCQ9WT8DmVKvxM6nHNjskPKd+vs5S9/efe033xat/dDH9rdceed3bsOe2d33LHHdtdec02RDTsX0Oq6dI09FrylNwy5TbPLK7Enkz7bAMIwya4pBsEiy/ZGAIFDYxDTXlNRou5dokkFY7Mo4qhGSfP0QagBgilIq1/fLRLj8UpTImxAnLtF5RnSEVGtgsge1Zf+4q7JeDNMjKPvCjKxCBgF3/fZb79idHbcsKHbsMMOIzWhjsI5kZwYKUp2X0BBHrJu2czgpqbBWDEr9vwnQl5pdXKKAlGcWqba5cHx1QAhaQhjSb2JI6cZHbLMToVh6j/bu43PmKSzgBfsC8ce5oYDS38Ohs8c00U7WRRyGt8oZsOck7sCV4xYIs1+Dp6xJmNzjLWh3zntk54E3AGW9Vkk0eNErcZZpxhEwOnOSTdtyaVLxpu20bNJaPq76JP1Gr2WuiFXMkh9C2A6LsUQViupEbKPkwW4w6pJx3G6Q/r/b9y0sfvpz35WKtu/9MVTSy5+1Jd7W3epC8IA+t0zKeoDHj0XgIE1zJa/AL/UJAR4G6M58BzWtufIqaHuATCkD8EiwVqezZpmA+iNnUoCL/YmadAwI+bOM9CP17/+9UWvH/Arv9Ldettt3Qc/8IHuhOOPL8Aq6aykXPxu/Gn0prug4AIYWhTTN13z7vqOBhCGSWzNAQROE9rlxCi2yCsAAfX95je/uRTRUUrOchpSXRSDIPJ3r5z1kJyjhWUson6GHc0GUTP4dZc+72PQRVciewaHwzz+hOO7227d3FExRjIIPdsSH7PERjzuoCd0e+6xZ3fPXXbp7r6Udhj1/Pm8eyZ3LeIBEDyHSJmRyz1jKDiwpBjUenBWjGQ6Rc5jxBKhY4Y870knnVQKOhlXRjMMQpwHmXFgonQpBnMu6po2z8OWxV3fzUBy5BwxAAMkAHPpzhiDmC5u5ttco2MZxHEn2jHOnJG0imLbRJspXI1jz7YyjFGO2fZZzohTsxbojOg1LEZ2T0QuAR0poIt+hvUyjwCfwlPsFgauALSddiqM1Gi4OV6qcYZhwMgLuM8Jpb7T9eyfT15/0jzmmsmJ+50D4lQ5L+MnI7/Xne8m6eWmblNxfj++4YbulP87pfvkJz7RnXzSSSP1iUMHpOicdZxCZODOHOQgMcAncxg2Y1RBcdZhipIFDIAOUGltsRmCgdVqusXepD4KQ6ZlvXUY4JJ1D8CRIdm+5S1vKSk09ouuscVSvtaH+cx2x6wJ1wBC6bDOigoWyXAl6aCVrOVxAKFmP1qK4RcSXnMAwSLkwCxIyu1FgRlEilsDBEo5zXEsEiAkyregvTAYogDGN22SOQsLJOce9I2XZ0mnxe+ec0532unf6q790TXdj6+7rjjtpB6y9740B9prr+4h++xT7lGOI37IQwq7ILqZJS/PQImI3feCCy/svvyVL3cXff+i7qorryxORzQEHLinhe15OBG0ITaBIasbjQxZwIxkOkoCCJwvx5fnS6SRYjaG3705X4baz55zNb88O9mLgNGwjKmfzXGqvMPMmE9jNC/AAaYFIBy1m4aTp38afh133HFFzsBugEGcOmMMdHhW8sZQMMiAVGpJQmcHpPQBQuSTaDbFkf6eRk90x1yW14EHlC2je+yxZ7fL3e8+lpEaJ/cAT+MCDIArkXZ20eR0Up9PAWJd7Bcg4/8Bxnlv2KSMnRMlnxTycrJeAoWA8HF2AEBwmuqPr7++O/GEE7sjPvzhklOv2SH38TzmEDiVUwdIOHTvA6rDaNKTNOzJc40roqznwj2SckhRMsADCLvPpOOW59V94xSI2E7MnmLJzEuKQcOMxa4BLhha4MV4AGdFxZg1gE9hcdK9AQDRYdf0WSkKAG41Gb9J8mgAYZi2rDmAwCB+5jOfKQrNSHvlgA453ze96U3FMFhUswKEnOZYn8Vg8Q7ppKiwzpeoC8XJaYswUM3Gg7JN97FUKo+KbCwoxqig2Ftv6W688abuwgsu6M4955zuW0tNlhKhZEtRDFHpUfBwNPSvdk99ylMKFZpjiOsq9f59E8mUDmK33drd9JOfbN7y9PVvdGedeebyIUmciuskcmMkLXqO0L0nNREZp5aulYZEDA2GCDPk+cmJYU/dhHkmW/Oi9oB8gZXV7liYXSAc+nvf+95CxXJ0jGS9DSxOjXz9XWGWVt0M6ijKGyDAALieIsgAhDjFRMwBCDkkC+gTtXJKHFL2n9cUduQ9Tsfq+YjOcRjR3cc9/vHdwS94fnFQu++2W3f3nXYuqatZvlxPdMkYW6/oa/Ul9fkihZVYSoPV7EZYraQaUn+QYtk4nvqzYZf8L7t+0ODAWdqSj0s5/BJAOPzw7qQTTlgufsx95NPpInBP/wASX2wGWwQEcY7J3ddyyjXqZ+7LP2vQ9xRk0h9F14Ch55rUxW+Weenf0xzRISwA5kCawByF7TAXAS7sKdZEXwDjMR/WIzuRLcDWryCDfmasxabcckthBNlmnwfk0vBt6LhX+v5JACG61RiEX0h5TQEEEwelqril2H6m2GnSIaKUI+O40jt7HgYhBxwNAQgiX4s72xyBArspRAGiGQ7Uosl4JtKemzZt3iq08c7utttuLxH2Rd//fnfqF79YKHgo3+LlQDltcvF+1wcIko/1HZNgcZNHqtVH0Xsx0qKpn99xR3fxDy7qzj/v/O47Z59dIiQOMc1DyMf4LXT7hNUBMJjjivEmLWr3FX14LgYGe5Aq6trxmWOGhsGXWnjpS19aGBPPtsgWrqPGmgp39z/ssMOWG8n0AYLPJjL3XE66pI/0Mqmn+voAgZwvBzoKIHiv65g3LIlUDuBJhzje1ELU0Vrmsf8cyXvXlHfe4zPZSZK8Ptk+/bef2T3hoIO6R+z/sO4he+89Vc51WsG6zC4j9TlAYM4EyRY/9697BqS+JLUncaiu67P0zyuOK44saQzvowvkBDxav9ZgAPqouR0FEE4+8cTC/tVNccjHeFwb1W6MaZ/ODgXURmdrBiTPUe8KqkFDnTqpt0MquqZDmLq0715E7j7yTGHw+973vsLE0sc8Z1KeZCziJ0MAQYqLXfF3z4/JMs9YCD0RyCG2zjOaG0yD97761a/u1A25lnVMhpPs4ErBwKjPN4AwTKprDiCgKXO8cwxQmulQYHkulK5oi8OatqD6rZYpbAwZOtf1VOyHsq3FWx/WlE6KDLk8rrGIvhgTzjnR8JDp2bhpU3cn+vO660qtxUknnliq/NP6V1QUgOC62X6Vam/gIPlZUWy23NXO6pfYBDnZTZu6n9gSed2PixNCI6IfjSFRrs95Ls4a3c8gj8u1TwMI5oCTJMNEMQxLZM6gMTAiFvfEHthGyFmKrFb7xLSaYfnP//zPMgccIEDWj+oCJugQ4PTGN76xdFZMPUUt71EAAQjxVQPbFLFxfq5jPAwd9iDvr2teRsk7ACFNnvr6XPdMcG+0va1sdJjuYKSsp2nAloOxHu2NpzeiS/UH1opxx6mHGUo9get6NvPbPz/F3EuB5ZCdml0Io5UtsWFvjJ8jo59eAM+oCL4PED5y+OGlBiE1Qnne1EpgAY3Pfc1fTgQ0xjxLUiA1o5QUXIpER40lKQfP52c2DMABEKRP/TwPS9fXB9c2H8WmnHRS9/a3v70wIdE7c5MUkedkw1J3AbRYd8ZvrrNlWh2C1K85CoPgOonG6al1q19JtqHPsstsiL2c5b2tSHEWKa1RBoHSip5FtBwWao9TofAMH2CgCCb74jnIacUwriOvLG2RQ3ligKQH5Mzsg81+69pw9wGCz1F6DoHTtBCwGSvpyR+61tgUsr3//e8vTtu9GKtsSatp+ERZoYuD/nNEtDH6X/Kzo0BUaGcOW8dKUaD6DxEDw+gzxYkccEBxIMBUcpPTWJs+1WkeP/WpT5W5tIDTArousAuDYE5VQ9vi6BnMy5CK9WHL45ff/W//9m+dlJSIeBxAYAyBGRTxn/7pn5aqb3PVb4IzK0AI8ItTr2lbfwszlH35YQk2LUXtCzlvAAAgAElEQVToZUfN7bcXY50TT7PLpl88V9P1ZPvIAw7onvmMZxTDzmEFYIySo89mZ4xzNNRVoKDDbuVeYTn8bqxy76nXSR2N39MmnTxFu4ID0TqnlB0QYc/icONkfQc4OCVRq7U4ag5mBQjGHPBhvOl7kSPmkxbo1zwEXNYFweYg6brIpGZzwkKZV7YDSFMUDHCOAppDdZrMRPpYQY79Xe96V1lz0Z84fzpMZ9ky8y/oUf9i3XtPeh0kaHOoG+AcMFQXOXpm9sE11DIAPON29wx9niHvbwzCEGl13ZpiECikCUbLcuyiFNQsIwm1phIbyqWMHOM05yHCOfzwwwtASE/uGEm5NgsjJ/TVvcQtkHEAgUPwymmOqfIfNjWb383AcCQAAgrvAx/4QHFOFjkHyem7PgNk0aeQ0djSeCUdGROdiawSCfjfuO5g7k0mFr0oXx5ZGsAcxDkCKOTEaeuYxngO6QZn3NIzDt1ybQ4mkdgogMCoAG1y++n/MKoAcB5Zz/KZIQCBQZd3XSlASIV/xpeeFH6nk/Q853X43Voo+9EdBa6L5k9+0t10441lrzrdyQE78sV1RBt9qyNgOmP8qGUAnK6NS+lwKGqCAEmFnIA8tsv4w7TEsZhjDtv1ko7DQBm/v6dIMEA1xxEbO11Uq8Ix+d16jVOq3+951Mdwrjkbpb+zaVaAENkH1Bh/ehskNYKhs7bSy8AzkCXnm9MSARzjBuLTEbLPJvTrEQQZ2v0KVALspwU+43Q5gQT2lQytPYfepeYna9fv5tP6xsAAWpjR1HZFV8jeHFi7bKjrAnRJVXhf7CldAvCBg9QQbcm1ayyzMAgBf55BCrU1SprFMm4D77HYOMr6sCZbxChxco8WqMhfRMsojMr91o+iSEyRjkIxVGgKBN2L0bUoMBKcfajPRCKMlgX2L//yL2WB+GyOe4a6FwUQ0gERGHK8tYIoRsdiFRlB9Qyw8QMJWBZAIUwIowBEMVzoQVGa2ggGmcO1cOsixjqaSVMlRl9qB4vBCTCUZMRIyo++7GUvWy4K6zc4mqQ6rgF4eC4yZJRqYxxDFAbBHLziFa8oDbFEmfVWyC2hokMAAuckxUAX0vFynhRDPlNX7zOs9NAcisgyl5wUmfQBwg3XX99dfdVVBVxbP17YoHzVTipONkWh1pFcuO90BzDrf/mMtcnpmEdsUKJ9uhLHk2v7Tn+zPdE6c+3Sx2Op2Veeu65tSE8KzIS1yyHVUXwcUo5Otz6MG0UO6JBP7VyHAoR6bfjZc3Hacup0M7UC2WZpzsjRGrYmycdask7TCC21CbVM48itYdcE0IAEDpb8w64M1XnXdV81A+q4gC0F1jXICoNAhuwqB4mFyfkLdUov6S6t79kn1/RsnjfPFcDDFpMLhtUaNuexz1uqFqEBhGEas6YYBIuNckOsDB3EesQRRyy3n6VsjCaEKpqNYZ4U0YqO5Uq9RFcK5LJtkgNiUDhV0RPwATT4bpEaD+odQODkOMu0FgVQFg0QOGeOlIFJPj65QcY2DEtaNqdpCyQcKtozGSNjLHLDJKSIblSdBcPBULhWCpHIzP0ZZrIiE8ZL+2XGjMxmrbgmQ0yQQimOJR0KkzMfBRDUHzjrAEOypQ9/GQIQME9veMMbimMKZV6nX2ZNMWRJZy6y95+s1X5wgkCe1BGZ1AdE6XYHXJmrG2+4YbmpT6rPcxZH6gPqe5lbBj3nXXgO90oFf21qjE1Om7MBtnOMrnvX2xQDEMwvcAB4cBjWFEc7zfEZUxoTYSjk0Bl9epM0gO9pEkUm1q+xp4K+ZhWHAoQ4O2slhxepEbCWzAHZsA3Ry4Bo485JtAC+NKHvwHxN7ZNLUjDZWgx4KLjM+nIfIHCerzCSWAPbiq1lWx2Ns2aqUpNCb3PYEqYwKc363p6L7RQssYPsE11IU6tap9JHxVwI5KKvQ9KS8zx3PtMAwjDprSmA4NEsfIaVEor85eSTFw2VJToGEFBjqd4fR8lBu6IQeXDGzWJJwU7YBMrLgHGqgALkyym6r8++853vLIuDkaLwwAHnAHEzgitNMYRBCECw/51hF03Ic4tUgRFRDEeQBjrFAHzve93NS53Q6nxoDLTFz+EmKukv1ERv5CRK4MylZRjpnAPvvkBZXtoLp6f8NHVkmDAT7373u5dZmH6lvTHUDMK2DhDSHZBRt4uBAwTK+mzWrAAhc5DKckwQ8MvpMdpYoLSa7tcU5LO+M/rkKPcM2JK7KB/gDsVcsxXpReF+QAJdo9sp+MvcpujNbhsOW8rOda2Peqtq9M/fOFByQeECqRzeKIA6iqkwLmsUoJT3pu/SJQH29TPkHAHy+tu//duyJuveIEMBQuYgzauwdyJsNifdJ8fNAftg3NaOtSRlyO7Q9+x+qNNqOcAqdQhkz/aYC457nq+wsAC5iF+NEVviq5abn82TwIONsGXUfUcVVyZoA3hcE0gAgICJpC/NPdtEBzFeGEdzArwlLTnP8wz9zCwAoW1z/IVU1xxASE6PUbDdUcEYxctWGpOb44gZaOgeSBiXN2WkOb9s14GoVeJaOCh7/2dkRAYcfbYMAgwMAuNqHBaH91F2hjuHCK0WQDAuAAEIEoUxHH73hcr84WWXdeeUosKLuksuvqT7wUUXlQimbm1rwcsFMtLZ4TAOSKF2gScUIiaBgUuqIdvKRJdqNsgc4JglKjCfiiBrgJB0x6gaBNHUWgIImA6OkK7MCxBStMbhAqDmjXFVZyO1MKRQ07Xoh4hPHY9aAdE+vbBGapl7r98ZeoZcBIspsr4C4kLpixg5hVSzAws514FTqesarCHzKIIE5Mc1kppk/LMH39rDJlq31nGChdyTXbAu3eutb31rcU41WBsCEMJMAFnWGnAG3HDcZDKtH0dsF/kLcOg9Z5qzM+KUw5qxZSl8BkTokeewzrAtQ78yfk7yv/7rv0oRqbFkzsNeBBimrXQKJAHDUV+ADNvCZtqNBPhI/6SVd4BHAAL9VZ/DTmLAcozy0OeZ5/0NIAyT2poDCGERUHMiCErOueegIf/n7BQsWrwcKCWEuEdV62c7jyg9pxsynqLk7MmHsLN1J3k1AIFiMz4p/Ep7YJH0atQgYBA+9KEPFdZiFEDIEdPG8TMHIN1wQ3fZFZd33/7W6d0XP//5AnxEMOmMyOgw+tA8g82pjyvqtLgZYIbNODgC8gnNCoSRiVwlQzZrT4QABA2IGMukQ2q6c60xCNnFACSuBCDUBptczA9AwEmIWDlW7M2QLbSJ5BhK8ydFByTQ/0TxMSFhHawRwBeYpCui8Ho3gzWAMaCXWKvsh7dm0ksgVDvQge0CaDlrzzLLsex9s+ae1j0mRKoB+weg1Fvswmxw6O6nHkQ9gnXLHpRGY71OiuO2Obp/nsH6Afw5OS9AQZQ/LT0SMGUtWYsAGnmlLqQu5kwqhrwAQOsTIKRTnmEoK1kzSIIa23U5c/bAvIf1SBoLQwIQuJd7sqXkNuorzJQgQitydWHsZ850CEAIm5PD6gAE8y9VNg1cDXNr49/dAMIwSa5JgEAhKSNnpRgKvQ+xUvbQlxYVVM+oUXJKGRp2lIgsDJ+HqFGwoioRs8UkOqJYjGha/nKIjLOFZSxpMiJKlNOvtzkOXcz1+JIzdA+O2S6GcQAh/fPjWDQ9uvpHP+q+9tWvdscec0yJsjyLazGaHLqI3w6EHHIzzsh57nIk9cUXlxzz0Z/9bGFNyJQx8d1z2l0g4iCbaT0oYnSlLd7znvcUwMcRBhxszwxCZJdiNfNF5xhqVH9OAh16UFYcBRCDIfvv//7vwoD5OXUfdcFYqtnpNSpdcZn1lK2V5tC1FLtxChx2tqvWZ1VYs9liyeFwrKnR4Vxn0ZV6XRiXMbMBnGx6dWTrb4powywCU4ceeuhyoaV7AsNDAYJnsA4ADmCYTHKE8azPYC1JiQBVxp7j630+LFPmKbs90slQOhE4tL6GfKU40doHrDB2ZEY+dWFo5hvjBQjmfpz4uJbmGatr0SX1DfQg9UTGSafYWO81RwIINlKAQpbzpkyGyMB72zbHYRJbkwAhyo6a48TlISm7yU8qAdoHCixgDhutlbqBUSIKYqfUOZIWS2ExiUzkVhmj9LrP9sA0asmWp9UACKXA7MYbC0CQOwQQGKl+iqEGCIWm7DTUua6kBZy45nNYEobVeEWjswKEYuB//vPuiiuv7I468sjuEx/7WIl8Up3veqLFv/iLvyhR5qwHsqRIcT0BhEUxCNFT1/MC4oADOo394eTmKVaLQadTmj5xUEAxvUixWkBCHAbgSFe0/gUQOJDcm35KOwWoq5HJaZd17wZpAXpi/PLaIm9rcpZTV/trlj66h3GrpRANYxLKsee77LK8yyaFtOpiOHQAS+CAbfNM8wIEka9UlyZqCRRmrcRP/wDBCDClB4hnyHbJuhbAfJCze3Ck5p89GwoQElSRl2DK+R/kBXgCmZkn8yPYYTsBObUH5sn9JulagGzAWg7TS31D7GQNfFI4ql5rJUHUEJfXAMIQaa2xPgh96pNyo70tMABB8U+MELSKkmXMIGFK7jvDln3ik0RlQUH5OaKWEY3hS1V4Gvokb+8z6QsgDy9qkS/kyHO++6zTE8DiHpRa5C9nib4DWLKI1R+kBqEPENwLiEJlkg/DAPC41lCAoLsiY3X1NT8qAOGjH/lod/ZZZy0bDYaAHP7mb/6mGM4cyDLteZNiABCkGMzbtl6DoLGWOZjWKGmlKYbILnUjKYhjtMl3JdvdQr9raIS5SWU9+de7DmqAIOp3b2sqp6UaI10EXjmHNNPKceGJql039QCuAWhYH4Dkfe573xJhctalecOEL6dK7rC0xVZ/hzTpySmbfYAAWFlDwLB6BzS99IAUpLU6FCAkJSmNiE3BULIpQ77qVAWAoKgz/VxE16MAAjDIpljr7j0UIJhHNQKYUesMmJMaTcO1GhCaT/IBCPUcwR7kHJlJz+laghF6gE2yRtga1w4ASXDHXpgLuxlyZPuocyyGyHWW97YUwyxS+sV71iSDYPgpehJFiF7kIDlAUW2OJxXNo8U4aHQmg83IoutEvpO+kvdOkyJMhbwhwCAKt7j8znijKmMIpTigb85a7UOqjhlUSH1IlMGgAilyxRabxQeZp/KYkRBRTAMI6F8GKAAhfeOHMAjs9qZNG7trrr2upBewNmeecUZJ6ZiLAIS//Mu/LIaTgRnXgKmWe3Yx1ABhre9iWDSDEICABeNcRcLFsS41FBq25De/O4Za5IoOtm7oF+CYqnrvC0Cg44rxFCkCCCLw6DM2C63sWtZJTmqse2tMAgj3vs99Ci7YuGnjdICwww7dhg07eHPRuRogsAF9gJCtgtiXNEwCTPxOP2cFCOSVL2tYFG8eXHPoaaIpFjR+jtrWZQALMGOXVgMgmFcpRoEOUMiOsS3WX9KKCUror/SjuVbATFa1jRunb+ZYnwd6pIjZd4yF50ptU/SOXRU8AVjsMt2WdpjW2G4eXa8/0wDCMAmuWYAQI5ciQRGQxUb5GazkUy0MhhQKlvNiHDhGICF51P62pIgw27IwA5y1/B2FBw4ov+/Zg21xWGy+sAWiu5yDIGKxyDh0Y8ke6dw3z1KzBpwC9A2MZM+0nCVwoFaCcUHLQd9bAiBkjIyKGgTUtGiEnLMtiENQKR6AMMtR0zVASLOpbZ1BmLXVModab3PsR0izbnMMQAA4Rd5eAOdKekAEAKdtOYPOwVtP9VHHAQhpuSsKR9OHwTD/QLotxylctSZy+mGcnTWUU/3orOg0aZJ73POe3UY+f+PGrvLDIy0ZbFBOldy4educGqFs2aSPdZFiaG9rE2AFpoEbbCIHOA9AAJ6SRuRAPcvQ/HnWuXlls9QVyd2vFkAIWwQEAnLmynz4e+zkZtlvPiTOM3LY5tqhaAKsWQIb18xuMEEJfcAoZSdMaqPSWZJNll7AiGBHElQMc2HD3t0AwjB5rWmA4FGTWxMVczCMN6ORw1NSFc8xAwUMG2ctJ4lVEO0n5TBpW16qezlnSmYhYBAABuDEz+kPz5jK1wEgjEe2Rro3gOLe/SY/2crmGmEpXNeiliZghDmU5KMBBNTmlgQI5F0DBEZgFEBAS1rs/ar4UarJMGGA1Fak2VSA01ovUlTg5ThsudY0hKkN7VCAQHfIltEGDgGOWQvj+rKP8wQMMEucrB1BHHudOhkFEDhZ85ue/KllsBsiPQn6AME8p7Mnds3n6zUgkt84Jb3gGaQYNiwdE52WuNY+IC2nb+3VdHY6Klrz1oqdEyLXeQEC8GRdYxB0N+Tg5gUI1nIAAtmvBkAwz4IksjHXAIJDldLwqN69wAZZs+aHjNLPZdYtleaY7cUiAWvu5Z5phe9eGQ9wlJ0ZAKeaDqBktXczzAIQWqvldZBiqKN8RoyR4mBUZTMWHKi/BxUHLVN29KxCJcgVm4AizOlto47DTfScJilp1MJxM4iiMEjZ4vC39CGP07foGHQAQd5N2kEE6L4pqsxxthiCHGOtqJATprC+4jATsfv8lgQIZHkdBuHoowuDYGzGFPqY7MIgeNZsn5qEWcnUvImiALycTlg/b6Jd/1tLrZbNTQ5rGnVGxTwAQX2HIlD6FGc4LCbY/O4ABIYcCEXPM+gcqgg52xMXBRDcM1Gqa4eyDmCaARuUcQMI9VeAR3ZI9Fm5lQCEundKUgzAk2ADQFCBDyDMs5PEmuEkyZ3urxZACPspoFEXgKnAsqZHRQBmmjIJOuySAALZKUHUrM9nLlK3RacEa57PHKfHRs2SYlSxYmrDgJGDnvjEbtcqxTKPXk/7TAMI0yR01/+veQYhj8PYKuKzvxdA4EwoYxqmMHTpU0DhgQSIVWQhn+qFTUhUM62rG8NjgYte5N1C/8u/elFEbEN6kue0OrSa+3J07sfJc6zGjzmQJwQ0vORXLWzPkTwe4xrjsqUBgqOnPddnP/OZzTUIZ55ZDH0oTDL7q7/6q+UUA2M6rVmSzyrUsh/fd3LoA6IaIJgnDjKHNeVcjGFqP/+7Z2m1nJTAog5ryvUwCAACFiH52mnyHfekAQg5z4DstS63RlYLIGQs5rymtAPih85Kit8mpQhXAhDqGpoaIAB7It61ABDYPWtWobJoXgEhIO7Z6sZdqdXIzi/PJ4jC9IxrMjeKlZL2cT82Uc8WW5jNdV3DkIOurF2BEpCAjXn6M55RWFEM0SwpjaH64v0NIAyT2roBCNkG+I//+I/FuVrQ9dnpyblljz1nxjFDsSh/eUkvjjs7HXy+btjTj1yi6DmpTc2AVIOFKPoPUEhnsuR2gRALDzixIDl9FCDUbWGlxXM6qcWgGrOo0f8BoC0JEOxiuOPOO7qrrr66O/LIo7qP2+Z45pnLLZU5MfL867/+6+LEyDHtYyeppHlCb9uJwnDlLAx/r3sBpNUyYKc4zHHPomjAa7ULmxJx+/7v//7vg457zmmOqNN5j3teDwBhmSlY2g0Th1uDg7oQcBYzNqpvQ/250NnWS1IMIuOVpBiA3kUBhC2RYrj1ttu6Sy+5pBRBAgmYzuzAqfUx9SGYPwAci+BnNmbI+mITsbcCJrszAAQgzVzlZV68zxcbse9++3YveelLu+c9/wXFHu60446b60xW4WsWgNBaLf9C8OsCIFA20Tr67O///u/Lfm6OvY4AvCeFhHXxIRRLKTnsnIinKIeDq4sKJ0Vi/meB5cS2bBnDZAAMgIP/MfQWi0XBubk+MGKhAjjYAqxBnCMgkeN1PUuKstIy2ee3VIrh50ug5IeXX9599qijuk9/6lMFzKRq3Jj9/Od//ufLVfaz5Md9juGyj10Ui0UBuMxXnUsGEMjPXKl8BkJyQFF9utwq2JQyH9k1g6HKuffTtjkqHn3zm99cimNHnTo5b4phrTMIDHDSfwFfQ8FB5jnAY1TEGTrb3Kk5SJEi2lyB5DxFimsJIAD1bMZ5553bHf7hw0utSRqlJZUaubFL1hx7Q1/JR40JGc2yjjMfkbmAR22RreFYqf58Bbz534P22qt78Ute3L3oRS8udvje97pXd/edd16NpTwTg9AAwjoCCBTNhMp9AQj/9E//tAwQ6ir6ukjKQkj6Ie1AU1BogVBS+TfMggJDdG69oEYZo0T9gIJCQyCFs1OwA7WnK2NOnWNokotNoR/knX7l7odOl5IwBuNyPfl6oMP7/H2WPgiL2ObIgGjdrOaCM/e64PzzCyjwSp2FY5hRr7N2UjQPjIhGVBgEkQcWgTzDQNQpBte1tUyhnnnaEn3cU3ti7t7xjneUKvAcRtQ/tdJ7gRkvbb7f8pa3lCLFUXu8txWAgLlSLLfaNQgBAelGmt9rdmHRXiHrHEBQL4BBABAEA1sbIEyqQSCTsJ7W1tA+CMVRb9zY3XjTjQWAH/b2/yqsZmp86vMXyDz3YjOzDbxmYGeZlzAE3kv/MbnsctiC2m4GIBgP22bHxMHPe16xuX4HElbjqzEIw6S65hmEOA8Trwf82972tuKcoV4LKyfKJQfG0VHK9AVPZXUaxHB2qDUUGyqSExKporJdD6AYd6BRLXrXV5+gpkDvAoWMnEpYhCxI4CbRsjFyJK7vXsCB7T+pjxABiF4BjpzmWB/WNK5R0iIAgvuJPrAG6Epb4oCF9JqQSyQ3W/Dsa571LAbzh/IEDrwYMYYlACGVz5k3xoOh1w+AMclJhsPUfti70/kOKNOiVq4+51DUACF0uTkFFGzlU6SoGHYUTbstAAR1JGQOINi+yrCb0zzXoooUw8KQC/1Oii8/r5RJmDSjdIhu5qAjOW+/D2mUtKVrEFYKEApQvf227pprry0pvH9927905y1tOZy0UyA6nDRAgqlZV0zdJn1cejbXsqbTyZHNYMukeaWDhvaWmHV8rZPirJLa/L41DxAshPQM0AxIERlHxgChyCBviFjEgDajIKJ5Bh6lz0j7CkPgO8MRer8+eS79yOUgAxImUZuujWrj2Dk/kXIoviy8RFMciOsyXByfsYp6vGKsUXaTDmtaTYAgqtf3AdCRChB1cuTkTMZ6PQBUOSeA/GYpoGOIpGJEOWQETJmX7MfPNcjJ39IdU2oFy6OQqm4uM0z9Z3u3+4qEPK9iSnqGxaEnmZs4QPrAwRqnbY453Aiw7H/NAhBcL+2CGU89JrKLITUysz3FXd9lvJ6L3LPNEcCO3JOfHgoQzB1dyTbHALwwK66nat3cSRflgLDU2aSXyDzPNO4zxpBtzgAm8Eo/hxzWtBoAYTVrEKyX6358XXfppT8sa/aDH/hA9/2LLurutuOOU7cS5lkzJ8VRLG0t7cu4zwLVKZ+aURg1N2wgfcBasHfYHYGZbY+A/2p8NYAwTKrrAiDkyGbthP/jP/5jGSDI78fhRvkYL1Gwl8gpbYdToyByTa1CHR3bhsNAAwxobk7J/8MoZGEEsAAtagXiWBUucrAKF/0ttBsHy9AzYIwXh4c1EOWohfA3i0gEzzHZxsmgjzrNcTUAQiIJ47ZNCnMg6rQdUyrFc2BYnOAoUiZnoGaWLY6JGjEtZAMgKGpSwyGyqGn5pHBcF9jLMbvuNytbMWxp/OLdHLTaEExHWvrSG+AgNGxSWJyROSMDOoNFAPhGsU6zAASjSJEiEJY+CHTQ/Yfkh+vnD/MmujSf5tYuIE6r1ukaIIjyUMFk3m+UpMg0fRDqRkkBCNl5AzioWHceA7l4Dg4iNR7z1iJMm9s0OErdSOZtaCfFRdYgrOY2R/MoJXnBhRd03/zGN7tPH3lkd9kPf7jMTo6TV+RfMwmTHH3eV7+nBg3TakTYD/qGMaAP0nHSpn6ut6xOm99Z/98AwqySWkcMAkcsugMQ3v72ty+fTMdQcyYMK2TKYEPW3isCxCQw/Jydv1EezoBRzLZCIAAll1QDp+1niDcRUF3rwACm0ZHIOIWHnKDrc6oKFpPScI0UR0LNruseOZKWQ0wBpAhPQyHR+yyHNZliYGQlKYbsmMjJc0CKtEkaNnHknAXHEWeIUcg++mnqyJhk73SO7zbeUN1xgHEgDH2OorWbAWMBoPR3CEy775D/mzNONCeHAjM5OTR1EgydMRsvihSAUexF7wC3UY58KEAAHp286VU3+BryLHlvAAJWSldQzyfSTBFtCkRrgNBvtSz692X9OSNE5zx6Ajz1GyXVrZYdcCQV5Xmkpuh4GJh5nmWWz2RLpOdKp05/W68AgR1j37CWWDnrlg0KUBrFBMTZ1zqSGo5xLEIfINTXqEFDvYth1PWNyzqmY4qQ1Ylk19cs8zvre1oNwqySWicAITsYOHmFborIsotBZKnngMhf/hEtjVrMVhyGjLPLGQciV86KMUt3xfRRsOA4Ic7QNeXBUx9QH5rDcaNtRWbpRy7NkK53qeD23aLQOIljdS2oGThI7i7oW6ThulsaIKSQiEwYGvdXnMjQlAKvpSppoEbPdg6bwZ90rPYo9cyZEwCCBkwclWfuV/67H7kBJ/6nSyFH4/5hGxa9f9o96RPn5wQ8gA9gqCl0z5Tua5wP4wYwYVWkpQDVUemWoQDBtRhPDhbooMtDtqD1GQQy5jjUH2DUAM90Hg2gCUBwHzrv/sAPY54GOjmLAQORPh7mqM5Bh0EAohSYSpVgyXJK4KLnbZwZ7N9nawKE1Uwx0C0MKVvEvmlYJFgwJ6OOdO/3phjmRia/OzKvz+aoPxHwSJ8AfiwZYF0fKb6o8TQGYZgk10WKYRSDYCFIMaB6RSqMter6RD3pXGjRiPjVJIh+MAsify2UXbemywAESpwDoET52WnAQYkqORPXCTOBms+Rp5xa2i4bG8cBbDCUDC5A0z9Eyv23FkBIZzQpDWAH6EFFAwxpJ23MHCLZAmDpGDhL/UFUNU7ftUWiHBZQBcj1I48wGuQNWIk45LSBq1nTGrMukQBJugAcKRBNWiURVYyfcTHKHCkwygEycuYb47FSgEAHMBOemZPGOmUL7KzPk0K/jKAAACAASURBVPfZ/qbp1U033dh9+EMf7k484YSirxy9Oa8dewACp6KIDHuRtE6K3eg3cIBh4ZQwLNZOChDJKE4AQACectxzCtKG6MvQ5530/q0JEFYzxcARmhNBk7WbtI+5SLor6UNzk91IdfOkRcg5qbescXbX32qgljVtDMCnFJROlWzr0DbW08bcGIRpErrr/9cFQGCYsQGiITUInDQF5MjTMVH+lGFNdWwo61TScu6MJOcuksp2QsprITH8nCJDlgpsRpMD4KA4LJE1JsNYjCntX3MNzpMzxRYw8NiIOk3hev1cdaL0MAhqEBaZYrBlkNFnqIGWRBdpAgU8MTTAgRw88JTukN7veThEL4Vn8xzZmujFc9mqKtoRqbtP3Q+B6qawiZzS3AoLg843npUU7tXUZ7Y2Anie284N2xsZuH7dSQwtJsTz0zWdHjnStPAeFSHPyiDkdEgGU47WnOmqiG2qjweedenfsfHO7rbbbi8V7ocd9o7u2KOPKYAssqvHGsPOcTDcon/nGeS53JOjE6UCeF5+BrzrQ59qBgGoEynmSHSs00pqKeotzAGUSSVMK5TbmgBhNRiEUPxSprat2nEjfRTb1a8VSM0VJie2aN65GKV/Sb3REToGYCe9Gj3znrT4FiwJ5rysb+NaJLs0C0AIG0j3MaPqZdh48pnlhNpZ1+FaeN+aBwgWhIVm4hnxf/7nf14GCBwyxgAFLboV1dUHj9QFORSUAnPwOa2RkwIcGHLOKu2b63wpwIH6tQAZReDEZyiXv0HFjGnaijLsqv0DDiDk+oCZvtK4l3uL2gEgfdvR/YsoUiSX9BQwnjhYYwgbQhYAAucNAIkMOUKLFvjCHOS4ViBjli2g4xYGcIY9SE4cq2Ne6jMHyCMGRgRtDByWyJoD9QyYhHmNSq4v0iV3Dg+DYkxSIL5qxxeDnNbB9I08Xv3qVxfwlF4Xo555VoAAlBhPCrkUg4qwGFD1HkOKuQojdcstRVd/cMkl3Yc+8IHCIHhWOlo7hzrCtJZE/lI6HHtScJ7LHNl6yxEBd/QFSM6BQOYijsK6MG5gUrTIEaxEb1w3fUfoZhqkWXNpRz2po+d6AwjWBl1hu7BximrNjfmr+xrE9qU7a1rAc4IrWcN9PU/Toeh66pfq7a0B49Y50KtmDBCW0qIb867lUWuuAYRhsGTNA4RElYyE6PMf/uEfSsEhQ5G8P+fHkb3xjW8sOfJRX5SUIQYCKDNFEi1zUpQ6Ua33xWFlcUGVvrI4OVA/c/6cFlCQY6Y5tOTpfS7Ga9wiCM0PeAAIH/nIR0qV/yIAAqMgKrRtTk6bc8t2PPdATXpxkoATw2M8ZGS8Pv+GN7yhVB1zzCvdbphTMoER1CgWx3OSU51rjzP23d+lkNDfgJeUDZnPS1lnFwp9km6yrVFNhN/Na13kZs7DRLkf+ZEj46Yeg3wm7QWfFSDU93B/6RRsmGfGRCU6nGXpc6iYgwsuOL87/fRvdyedeGIpYk1dR+RWF59lK6tISv8JDr6fhqAfdMYuFJEr5ilHL5diwKX2uu5PVzBvgI56CvM2by0FneQAATj3t+YBR+AXCMluo3FOb70BBPIQ6Ej1sIc5gpsc6p4d5sEcAlJAgXSYF32ady5G6R+AAHxaP06RtK79XK/pBFz0xN/NH5ZJt1Qge0sAhLogsjEIv5jJdQEQPI7owS4GZzGghZO/5vQ5ZRGmojZgYRSV7xp1NEhJOOWABAAB1ZwIOs2W0mgpVdJhDXLMsxoIiJgTg44tyByDPI7+LIj6jjs2b5O89tpibDkr1cgOW/H7IjopcjSiQkVBIlFyQQUCWAyMyBmDIPWCUQjdn+2fDDsKjqGvo8VZHNWo93gmxkP1tbn0wlokZ1lHytlX7zvAZSzoSS+OmbNOo6wAxb68i9PauLG78847uttv/3l3y803L0ejdAg4xEpxQEkzZQxxepl/BiaRsdSCCJ/hnfQFIJCx0/WAP7/3O93VaQ/3Eq2nHa60Ct1yHw4gc9C/ZwBG2RuPOfjBD7ozzzqz+8bXN6eNPCtDXh+uFcBMnzl0DtcaAgY5kdpoey/9cF0AQTEnNqjeLRB5BdTRIcyPWgRMgmi/3g00SW6JODkeayE7MMwTGZh769x8kE26ofaj6LLmu80dB398/fXdiSec2H3k8MO7k0866ZdSQ4m4t/VtjmQioJESBLCBe+sZk1l3Jk2RLUBrHqQIzYOIfdEAwbo2rve85z1FN9jVuotsbG+APz2g269//etLEfe4U0sDOpNiyucn6Q79F4DQGcDYy7qrG+DVrZYxZoJL9oUezbI7K1vXF8nEzGtTV/q5dQMQcpqjGgTOlKMLI8D5QaQO+Emzo2knlCWSZPgoVbZEcpYcB+CQbZEBI4wHYCCKzUlotkSmn0FQ/LgteUHSty8dBcvgfvfss4uxdX/FchymxWbReS65XEZbtDSuD4JKZg7IwnBN17AIAhDkldHLnsPziZjdjxxFI+6VegpKz/hyTO6pGZBnTaOplSikMYmARKOAkGjDs0uvcJz9rnvpWEjunAIgyMAZD2BmQaPlI/d6jAEHP7/zju7WW27pfnrT5qZW5BNZk7d5pgOAQT9Szy4Pjpv8GBLz4f5k1C847ctmVgYhn0v9Bedqrukyw2Ueci4FR9B33snxeg7OQ6Sd6nYFhubWV23QUjMAZJEpJ4LyZbDpc/1FDuYN0FCoiEGQBvO3fr65jhbJSToGmAJA5JtzrsYkRi0G3PxwgMCsXRjmqm6dnuOE6SpdpxP9gtH1BhDYJKyffiWcH1tl/QQkh/UKGwZQJ8dOTtbMqKZe867r6Cx7fNhhh5VCX4CFrsUO1rUIbDYHi4XDTtKNnC7a17n0rsk5LbEHk8ZKFnSFfnqlK63xRP9rBuHggw9etnECkWkAwbMAWKnRmZfJnFfei/7cugEIFF6U//73v784FQslBySJgBKtoKwYiuxmmCRQCphiPYoF+TKwMUiiF1E+paYUQAenzYi6X84KoCxBwaPyxUHC2Vlx409+UrqgnXvOud23vvnN8jwcl3ulItyCE0kCB6hmToLhNobauAI3DAaAIFplVD2H52L4GX11CBaHa2IM0JLZfZGDVlwzHekU7Fi4vgNDFs60YrBZFDfOg6wZNxGQMZM5590vtMr7U2hFzpyC+c2R2mQEJKSFdX0AlGK923/+8+5mEc4Nm3tpeH5RdcBYqPQ+c5A5i0Egg0QbUhxpyz2NQQDabB2dxiDEsAOuvjwPMMrJiv7MpTEkTVQbXQYUELAmGEXPyEgyjmRayzXRXJpzuZ6aA0DQfTjauo4nz5dUGF0D7LBdAbPGUoMPOkX/RPecUk5YtF6yVuodEBlTGJQ0IPMM1jwnCFTS9bpvhp+tRXUOOYOBLtylzmIrMgiLLFLMWrBusTh23QC65jzgOk2rzBXbuGHHHUta4bWveU13wIEHFtC5+267zV0wOkrXw8rSp3e9611lGzMglxRHbQ/9LQxaGddrX1vsjDnrF+OG4WKzYpvro+LHrbscipdOugIi90zq0Oeyq8KY6U5seYq4x4HXFK/T4ZyEudZZhHUDEEwygyfvhj4SJXHglE4kx2hzoqgrk24CZ/2i5KIsymjBcSQctu+iMn9nsCkQI81YZ4uOiG4aZRfEynFzTudfcEFpi3rF5Zd3Vy3dg/IzrBZUFpJ7SRF4AT6cYf9kQ0aTsWYwOAeL098ouYXHKHOocQj+5z2eKY7Xdw4vBp3RBQ48JwcyjY2ZVc55n7lk6NLkReEikJAIoUb7cdTpK2EsjIlx+e73FNTFCPi+iSFYSi38/Pbbuttuva0wJYxNmlmRQV2QGEflnmE7AEJRGHlwomht9w4QWSRAqCnVMBpAAj3gtM2nl79hVcKCMYr01CvNuvKcAQgxeqHSs71RRIl9kwrAVrgPXRj1lY6TADSQKboHtMiizn/TJ2PzN3NkLWJD6BMmhB4nZUL+kTeQkzUShoueJDWTY4VTEOl7OvNxOPXcZPzrhUHIM3N8xx13XGFxFIpmB1UdyZJ9tqH+zrOe1f3lX/9Vt+9D91k+vXHDmLbKQ9fxsoyXTkP96Ec/WsCwuaN/7FlSs94bu2bM7BnADZTSDzpeP4P35vRcNhMwpWsBGOPGSq/pS150qs9yJYXlO11k1+lpasZGXdtzWBfAQbqopj/LvHLbFj63bgACZQMIvnnaacvnBZx7zjlFqeI0GDsUMIcqchnSqSt5XMrkXgwtJadolIxj5izKSWT3vvdyncMoR1Eb+rAGFjMFN/4zvv3tAhJ+9tOf3qUPQxZT8rlACFobgyCSpMR9etA4pQzkuUVcDCpHwcnmcChjT7//pEviDH13P8/GwKo3ALQAi/qUy0Uqc+htY1V8hknAKHgWTttXv+lKXVRXyzfMR4xLwIW/q/O4Y+lgJZ/Je/Ms9e91fUqcqPcBB0AnR2QOzH//hMdxshmSYsj4ambAXIVRMJcMFHCQfD451qAnsst4alakZgJS80GXOG07gNJ7YZKRpMt0K1uOgQRgwTgiyzr6StOwnJMAHIhiMWGATtZRUjmubY1Lj2BBOIjoZ98Zuafx5xAgOstgr9cUA3BEPgIjOxcABPIJAKzlQ550gV189nOf2/3d3/1d98AH7tndc5fNRzuPi5DnXeNhNwRvOQIaSCgsxoYNy7URATnmTp0LvVMXASxgBGuA4D3sQWqzBEB0jb5PovVrPazfVz9z1rrvAbN+nrZbiM6yk8ar8BvzMA5MzyvLLf25dQMQTKRCIwj61C99qTvh+OO7b5122nLLZIpvshhzxVYMBsAwb3Mdipge+VBr8k6jnHR/UrPbISck1s2ZOHG0V+oEQocGoXIAiRRFXRaQ6JVxHdWbX8QlL8xoQNqMt/smHx+wkaJLCyFGwv8YaUAEtZx8t8VrDKul/HHwN9x4Y0mvnHX2WQUgOI3uyiuuLOPPmQE1NVinHDirRE+1/GOQErGksCngK8VK/esm3xkAlUiBHmFUGAVRDgc66z7yWQFCxkjHUmyWrbfSB5mzpLlSjJdCTvJKTU6o++SA+44jLA095lDNuSgO1ZsjvMcZ4Bh4awPrE2CXOg4yrus43CvbWI05uo2B8ZypdI+hznZmQBp7l54UxlNYoWoLbBgvwA0DArwx3v197Nsag1ADGPPnNctxzynYxLoprJWyCgMWBjPrw3e2QmT8rGf/bvf/3vrW7gG7797ttPPO3YZuh4X7oDhcOoFVEu1jNdmiOsWVtAE9ygFw0luAAgaopuvpjrQjWxn7Jh0ZWzzuIbL+EyhMAkRhjmNLxl0zAQO9ZQOM+VWvelWxC5NOzly4oFfhgusGIJikW526d/31BaUec/TR3ZdOPbVQwb58pxwMuSiYY2XcTei4osFJ8k71euoUsuVx3J7rLM7Qvtm7bUFLiUhZyKNy6DEMUbxEihYNow0YMHi2TqL9LXTRwCiEC2iQhz3RnK37Mhz1wohDzjNFZp5FNGeBUnb3BhZyAt+sjnAevQ2tfJMTMa+7tjvnu9/tvnTql8p3gIqDqJtXBeiE+UhkPereqZcY9Z46qs41I5/MtfsCSbaI0iNsCj1KFf6sEdisACH35UTTHAm7IpqOE8h8xgDGiYf5qoFQnr8fNeW9ntd9FK8xzPQNAA0gHPd8tZxEiNkJo3+EiN//+4WiYSsCyKLzAWz9KC9OJDqaZzHPoYbNAyYiB7T57nmyS+Muz92rQTjCLoYTT/ylXQwZZ3YxAEzYOzU8aTk9q57XgIfT1NtEWsC4kmv3cx8gsFcYUParv107p8ayJeRtFwPwGJa0tj+unTNlfuvpv9Udeuiru113vW+34453WwV4sFkqnoUOeHlmET/nzvYmsKntXgqP2Ti7rMi6Dy77AIG+0YtJgUut+6PWQX8OY3tr1rD/nqytnAAsYLNFk81crSBqVl1b6fvWDUAoSggk3H5bQaifP+WU7tQvntpdcvHFhXqzWCgEh4o2tdhyuFDynatVcZroU2QFAAACMfBy6xw3R556hpr+F/EYnxdHJJLP0dV+j1Pqjz0GgROxXfBjH/tYuS+EbTxxpHE+lNw1clSxaG7X+92v22/ffQt9bqGKIBmwaTUVK1XKflR7m/TR5Zd3Z5x+eqFQyYvcspsjOyyy4Pvb63K9SY4t8oiTq41VvXWVTO6/dPIc4MR5ktUQ5iDjmQYQMt4cCU53n/LUp3b77rPP8umS9CZ51HHGrw8ca2cRXaBzUk2YobQAl7qSihuyBTFyzPHYgK8UF8elvoWOZ1eMcdSUb5x/2vHWehT2IYVgKbgLo2P80V3MIEoa8wHUWu/jnHifQTjiw5tbTzPstZ6HYs42SnVMACKAMLQdcB8gKKwGEDxLzXAEwFpzggNAh80CEDxj/YU55XTJGgtJ7gB/nYqLTnsuwE+k65oKnedlUmdd656Z7UsRpX4uxplamsxnfT3rzjweeuihpa9IbI9nGsUgKPilO+lLM+vY+noWHZ7182FI6IG1Q662fzeAMKsEt9D7SuHZHXeUIrvzzzuvVDjb7iOa4RhTyZ7mOrb35Vx6hnEeJmHSowV1psARpYYql0O1gOtdEBQ+Vdq++8IMiNyAArlu37OdLf0UxjEWMbbo2GOOOab74Ac/uHxYiwXm/6mnyDY3chF5MR4Pf8Qjuofus0+390P27vbe68HdbktOcEhTnkVMe5yZ7n8/vu66AqTILjtJzC3Hw9n6igOpq+DjaOtosx5bFnhkQi6ZD+9jmNLP4tGPfWy33/77dXs/+MHd3g/eu9t1qUPdPLnbaQDBvY25nJx5663FWB78vOcVx+fo3u9+5ztl6ypDCyTU9GmdJsp18syJtFOE6u+o0Bg3rEgae2GLAn5mZUZcLzqvGM56BOzMmfH6PS13w7xlvJnvUbpTz5/3cQYpTjVGAEreF6gB3HxntD3buK17AIJeGNddf31pGoVBOOF/j79LCi4OI/VM6UOhlklh6rwAoT6LQY2QIGZU1bvgAGNgXkTS0qR9gIBef+9731t2MGDX6ENAf+YtgIM81JSozzDPWNW6B8Yi1u2oa3g++uBYcD0RpBnqAsF+lE4WAB4GQUMtck/n2RogYCTUXJBBnx1drWfJdesx8yHmiQ62FMNqS37O65uwtAnmiPUi55T9zUJhuChlCvwABBF5OR3vfvfrdnEewk6otvlzcYlC3YtxF02hw1DjcnDG42eAQdRQN24K1crgAQPZ657tmZRwlsWcnREibfUHaEwOCUjKnuiwDkHx97jXPbtHPOzhxXA86tGP7vbZb79ujz1+pdtl57t3O27YMOeMLO5jDJzoM137RKV2rohKyDj58zj8OnUyjiIMlV2zDvWIQ3VyznTloCc+sdtv//273e+/e3f3nXbuVlLxPStASAHp4x7/+O6QV72qe85zn9td/+PrugvOP78784wzi04p2KrZoESLoT8DEvKcYRUCKuiVNZF6A2CUY5oH+NTGM5306Du9x+6phQH0Uj9RMxr5edR8pdYgz5D30Gdj3f9hDyu1Eo+hu/vsU55nWhoMQMA8Xn/jjd2pUnGfPrL7wuc/P3Lbbhg2wB2IFnljEqb1u+ivgMIglP4bt3bfOv307pOf+ERxmmE56/e7Z8Bbdsq4NzavljPZvvvd7y7pBczaJDCHLXD+inUO+LJ9iw6Oxq16z6g2hT1SgBwdGPV+c2cOMTXYrBxoJ5Bh33LQHv23tTY9DRZncWa/EnkDL5gedTsYD/Zi0Tu8Zh/RYt65rlIMQfrZGSC6VKwDqaLgIGtGFDK16CwyNL1I47GPe1x34KMO7B70IF3p7tNt2GHDXMa/pg9RaqJd0ZNXthgmlZBGMn0Uyjin1oBjonRoXqxB3RVwkgq4NgDivqqHHTSU3Rae3fUgcpGIfOT9dtutu6/+9b/ygO6he+/d3f/+m0+WvMc979HdbcPiK5vnUV9ySpOcgC6OEfjicESlZFtvVcwWv+y9HxWlYAjIJGd3iJotdt+zfZCukJW52PV+u3Z332WXbscdNqyo4nsaQIiRD0B47OMe273ykFeVdsd323HHEo3ZBpueDeabHMjD/8y3z9J5zx2995xJJeT56AJHwQh7ztSZrDTt5t5Zj9aDMQILxmme0oiMsU+X0hSFJeINiEuqx5iNz3rw2m3pZFRjL9sknYp6n/vMfJAV2fzs5psLE4N1xMzURby1rqYRk/XJYasFGuoEMJ13OjDr9ttLuuyrX/5K952zz/6lg8lyXyCVfpofET/7ENYiJ3OyMyefdGJ3/nnnF3nXxc2xiwFfngGwSdpw1m2586zZ/mesXwARSMi5DNkp0H8v3aOn2FNjTUdMAKHe5kiG7JxAIWzoIsY69Br0IEXd6U0y6mjtodfdmu9fdwAhi4FxYYzk5DAJofbTFMP7KJPFUaL0xz++e8JBBxX6eI899+x2vde979JcZ1ynwDpKTVU2Q5ezHCwG1JdixJwRkWslIqLw2XIo8klTF+MCYPyvLp6bRWFEEehc99aVUKqFs6CwFl1o2Cy+B+y5R3ff+wIgd98cGW/YDJCG0MqzjGsR76kjzkSocYycIzn7PVtR/S3MUb8wkbEsTma33YpcUIReAIFXmg9hdFJMNS5VMfTZpgGEXC+7ZRjJVx5ySPeyl760pJ/MEWdQgMJVV5W6BGCBA/bs/u4eddFpdgoEGHKonjNgsS7kW+Tch9Fg2I0tr7omJ83NgNuaDTIOayYFgjnPxJi9HuD7nnsUULuzjng77jh1S9oox0WG2SFhzY1iHzL3Sf+R3dCaHABh06bN7dSvve667uIfXNxddcUVZa2NShkmbUZP6WN2Y3iGO5fOuNBY7XsXXthde8213aaNG0deJ0Wo7oM1pQPZSrpSIDir7htDeq1Yl+yxuR7FGBlnutOWeV4Chtas6+TcHNfzAohTUzPreBb5vuyMsMZao6RFSnYVrkXhKAxjyUmjs5wyl8Yq2dUA9WX/6oP22qt74IMe2O2990O6h++//3JRXpBhf397IloGPNvOKCpkzNAAKDnhkfEzniyE5ActdsrE6MmhJt2R3Qn9zm+zioqxU/ikmhn1ZkzJzzFq6FFUWNiK+yz18i/gZRsFBv1nTyqBQ0k/CjIGjvwOEOWVHRqjohSsjDlGvYZJwCp45bCfGOlFOs1Zz2K4C0B45StLTjY9KMggz49BCXsS1gEwCigKRe45PVspRF06adTfklKYVcfmeV+J1qt5MV+ATNiDgIO6kNZ9kgoB1DJmc+V1r6VXKdhdArZDx+Z+xkKGqecYtSso13Uv8nL/aWmMUWMpgcWmjd3NN9/S3bDUT6Uu2Kw/k7+nsVTdpRPYML90hK3RFTTy6utqnW5KC/IhvWCGynTccxurNUrONRAc9f4Uz3pmrzCosb2pdQnQ6AcAixjzrNfIPKXLaXaWzfr5bfF965JBiKApC4MjopSnQrWjEeWwKWed+0+VtEWvOO8pT35yqX4WKYRuziFL/euHMYCIFR66F6fs76O+guQpP5YAY6AJEbrS72EU6gNEZlWeFNpJqaiOtkcYWIiT8ZzAiOOI3Tfd6wowWGqSMn/1xayjXOz7Is9sScqukfw9hnFclJKFnfqP+nvNHC0SHJDASgFCmKXMuedOcWVdgxBpJ/rN86WQMzn9ldQbDJnRzFPmJ8WSGbNrjZurfh1C5mdcDcmQcdVbl6fNdWQ4CURMu3epf9i46ZeadfU/VxfZ5r71+ApIuPPOkpcPsBo3/sg1rd8XxYZNe9b6/6mVSepr0mezNgujufTKs9VM4qQ1PmRsK3lvPU9ZWyu53rbw2XUNECJgaFX+X6pBJTXnnXoAyDOLJpRWToPL9i5Ri0ghuyAoaowcildEBHB4yam6NqcM3cboUmAGvc5rAx/paZAOchiFeb+Myf0BIKkFlb0K+RIRMSAUV2HSn/3Zn5VqW5SliGyaQZx3TO1z4yUwV4qhYhACEJqMmwSaBJoEVkMC2wVASOteNH+93Yrz9LfQ/YBCXRBVU4dB3OlAF7ReRz+JfERxNTpOpIRyAgjk/RU5cdQKBOte3/MUtaQOAksgtaHeQmGmtIoUSzrOpdsjpgJAkGLAmCzy9LbVUNL1es1FMQjrVT7tuZoEmgS2rgS2C4CQXLWIXgogVa8YBQ40+bA0cAk7YGpCXdU0NJBQbymrgUXdwjP3TXGV3L9CM45Z8WE5PW333ZcPAZmXrgRS0mpVCgUw8GyYBGkOgAUIUJQkpWDLpB4Q6h2mHV+6ddVzfd+9AYT1Pb/t6ZoE1roEtguAkEni7BllTlNdQroYAgxeChj9L6mBeq94cnXJg9U5rwCEFFLlcwERHHNqDAAELELdb77udjZUoVKkJq2BNcAeeHm25Kaz7UlKIW2m/SyF0tiDoRJf3PtbimFxsmxXahJoEli8BLYrgBDxcao5upljtctB6sFeYoWGmIT+WQv9wqoAhVS3p6o2BwQBFLmGZh8csshdG047B7K9aJ4K6BSjpRrYmI1fkxT1Fba7+Rt2AHvhBQzo+uZl/3bONt9S25sWr7pr/4oNIKz9OWxP0CSwniWwXQIEE5rz7lHzOTjJtkQ1CdkuZsuY/3txxtmCJSKvz0uwZcz1FAhiIDhwjjcsg/9LL6g50OktxYHSC5y4r2nVxCmkrLe1YTzCfmAMvAJwcuaCugfpjBxcAxz4fZ72uet5IWyNZ2sAYWtIvd2zSaBJYFYJbLcAIVtkkgaQVuDcgQP7ietmO+n1nxqFFP2JzNNHAXiwcwHIcJ0cOJOiR4DCDgVtUjlrrILfczRvfcxwPXn1Vp6cEcCxADK2MmrA5IQ0TIi/eY56GxCmAGvhkBfpDT0X0mSn7VyYdZmszvsaQFgdubarNgk0CSxGAtstQOiLLz0TRN6AQJq3pF0tBiEtYHNKGqduZwCQkNbG6H01ACL7nE2emgRRu3qEHLiUBk3YBb0W0vK3AHxkNwAABM1JREFUrnMAYDh918dQADCAADCiCDGsB5bD/QJMgBdgQCEiQOKAF6DElsahrWEXo2rtKn0JNIDQdKJJoElgW5ZAAwjV7GTXQd3t0L/7f68nNFF4DmUS1R911FHl8BDMQ32qIGef8xdyPC0nrmjRdkdAQa1AihaBFqkLjsRLSiE9FnI8tPunLWzqHoAEgMPZ8WnbrEhS3cO8OyW2ZSVeq2PLLobPfe5z3fHHH1/mOH056tqUcprjLbeUQlfnzKeTYuuDsFZnvo27SWBtSKABhAXNUxom6S3v/AdbDfUk4NQBBQY+bW8Bjhxzm0NzOHSdGtOek7NPfwPX9lkOBIuQughMR3o4YDMwFK4DZNjO6MAQhz3ZTql1M4fS0goLmvAFXMY86sUBUOryaX4xVeY9xaMpfgUuFbk2gLAAwbdLNAk0CcwkgQYQZhLT9Dcx5FIPgIDo3o4IhyU5HU5vAmkBxj9piaQR6lPj6p4LYS58Tw8GP+c9OSUvoMN1bZ2UUnDMqEJI4EBKQ+pCMWTbsTB9HrfkOwAE/SqctHnssccuMwj9fvLZRquW5JBDDik9LIDAxiBsydlq92oS2P4k0ADCguc8p4yJ9KUb1CPkKFIgIYcIcew5YTBnB9QNmvppjLoHfQoaOX0vqQOFh2oMdGjUqdFWSikL4AAIaV/bngQwQHaefOELX+i++tWvlvQTnRh1DoH5l4qyTfXpT396qSVZSf+MbU8abURNAk0C25oEGkBY8Ixk14HaAQ5AUaEdETo4SjnYdQAwSEUohOQU6kZLo/oi9A9hETlKJ9gFIZWANdA+Oee72xkBGOQwqpZWWPAkL+hyUkfST/SCfuSwonEHFUlH2aKqbiXpoja3C5qMdpkmgSaBX5JAAwiroBQpakwnQ0Ag595rZGRbot/L8aw331xSE95bb0/MsFKLEBCBPcAapLcChwEkYA4ABTUIddqiOZBVmOAFXRJjZP5TV1Knlfq3MI+pMQl7sKBhtMs0CTQJNAmMlEADCKusGBx7ziwPUAAOMAtxDHV/hbqQMWmFnO8AGChiBA6wBNIKokovP6c74io/Urv8giSQuhVzjnGa9oVdwgq1YtNpkmr/bxJoEliEBBpAWIQUp1xjVFOm9FtQqJa6hHRrDNWcsx04BI7BLof0Ssj3+pTJHC29BR6p3WJBEpi0hba+RX3WfGOFFiT8dpkmgSaBiRJoAGErKEj6G4ga0wTJdzlpfwugqHc6YBFyrkL9vTmLrTCB7ZZNAk0CTQLbgQQaQNhKkxyWwPfsXggwqIvU+qdI1odEtW2LW2ny2m2bBJoEmgS2Awk0gLAdTHJ7xCaBJoEmgSaBJoGhEmgAYajE2vubBJoEmgSaBJoEtgMJNICwHUxye8QmgSaBJoEmgSaBoRJoAGGoxNr7mwSaBJoEmgSaBLYDCTSAsB1McnvEJoEmgSaBJoEmgaESaABhqMTa+5sEmgSaBJoEmgS2Awk0gLAdTHJ7xCaBJoEmgSaBJoGhEmgAYajE2vubBJoEmgSaBJoEtgMJNICwHUxye8QmgSaBJoEmgSaBoRJoAGGoxNr7mwSaBJoEmgSaBLYDCTSAsB1McnvEJoEmgSaBJoEmgaESaABhqMTa+5sEmgSaBJoEmgS2Awn8f4JrzBHPVvc6AAAAAElFTkSuQmCC;" vertex="1" parent="1">
                    <mxGeometry x="284" y="344" width="79.06" height="44.55" as="geometry"/>
                </mxCell>
                <mxCell id="12" value="" style="edgeStyle=elbowEdgeStyle;elbow=horizontal;endArrow=classic;html=1;curved=0;rounded=0;endSize=8;startSize=8;strokeColor=#000000;fontSize=17;" edge="1" parent="1" source="3">
                    <mxGeometry width="50" height="50" relative="1" as="geometry">
                        <mxPoint x="281" y="485" as="sourcePoint"/>
                        <mxPoint x="523" y="384" as="targetPoint"/>
                        <Array as="points">
                            <mxPoint x="523" y="460"/>
                        </Array>
                    </mxGeometry>
                </mxCell>
                <mxCell id="13" value="ナレッジグラフを検索し、&lt;br&gt;検索結果をもとにLLMで推論する" style="text;whiteSpace=wrap;html=1;fontSize=15;" vertex="1" parent="1">
                    <mxGeometry x="257" y="482" width="234" height="42" as="geometry"/>
                </mxCell>
            </root>
        </mxGraphModel>
    </diagram>
</mxfile>